# Created by 3DAce v2.72


g
v 0.790797 2.505526 0.285863
v 0.853007 2.624036 0.285863
v 0.997809 2.672980 0.285863
v 1.192359 2.612305 0.285863
v 1.352482 2.427499 0.285863
v 1.063866 2.396204 0.285863
v 0.964981 2.364294 0.285863
v 0.853007 2.388307 0.285863
v 0.853007 2.505526 0.401988
v 0.997809 2.505526 0.433806
v 1.113604 2.511010 0.398480
v 1.352482 2.508849 0.365662
v 1.113604 2.511010 0.173245
v 0.853007 2.505526 0.169740
v 0.997809 2.505526 0.137921
v 0.923409 2.622326 0.359834
v 1.416599 2.508849 0.285863
v 1.352482 2.508849 0.206063
v 1.352482 2.599774 0.285863
v 0.923409 2.622326 0.211890
v 0.892249 2.724251 0.326022
v 0.854027 2.725182 0.285863
v 0.932639 2.751751 0.285863
v 0.892249 2.724251 0.245706
v 0.864133 2.789264 0.285863
v -0.790797 2.505526 0.285863
v -0.853007 2.624036 0.285863
v -0.997809 2.672980 0.285863
v -1.192359 2.612305 0.285863
v -1.352482 2.427499 0.285863
v -1.063866 2.396204 0.285863
v -0.964981 2.364294 0.285863
v -0.853007 2.388307 0.285863
v -0.853007 2.505526 0.401988
v -0.997809 2.505526 0.433806
v -1.113604 2.511010 0.398480
v -1.352482 2.508849 0.365662
v -1.113604 2.511010 0.173245
v -0.853007 2.505526 0.169740
v -0.997809 2.505526 0.137921
v -0.923409 2.622326 0.359834
v -1.416599 2.508849 0.285863
v -1.352482 2.508849 0.206063
v -1.352482 2.599774 0.285863
v -0.923409 2.622326 0.211890
v -0.892249 2.724251 0.326022
v -0.854027 2.725182 0.285863
v -0.932639 2.751751 0.285863
v -0.892249 2.724251 0.245706
v -0.864133 2.789264 0.285863
# 50 vertices

vt 0.048400 0.574060
vt 0.048400 0.511770
vt 0.012150 0.511770
vt 0.048400 0.574060
vt 0.058280 0.776010
vt 0.038140 0.713190
vt 0.030910 0.775110
vt 0.058280 0.776010
vt 0.132780 0.511770
vt 0.200250 0.572180
vt 0.246140 0.511770
vt 0.132780 0.511770
vt 0.161720 0.155400
vt 0.130610 0.091280
vt 0.115160 0.155400
vt 0.161720 0.155400
vt 0.115160 0.155400
vt 0.062440 0.105070
vt 0.062440 0.155400
vt 0.115160 0.155400
vt 0.062440 0.105070
vt 0.033150 0.155400
vt 0.062440 0.155400
vt 0.062440 0.105070
vt 0.048400 0.449490
vt 0.012150 0.511770
vt 0.048400 0.511770
vt 0.048400 0.449490
vt 0.132780 0.432420
vt 0.089430 0.472100
vt 0.132780 0.511770
vt 0.132780 0.432420
vt 0.200250 0.451370
vt 0.132780 0.511770
vt 0.246140 0.511770
vt 0.200250 0.451370
vt 0.132780 0.511770
vt 0.132780 0.591130
vt 0.200250 0.572180
vt 0.132780 0.511770
vt 0.048400 0.511770
vt 0.048400 0.574060
vt 0.089430 0.551450
vt 0.048400 0.511770
vt 0.161720 0.155400
vt 0.130610 0.219520
vt 0.185140 0.204210
vt 0.161720 0.155400
vt 0.062440 0.205730
vt 0.115160 0.155400
vt 0.062440 0.155400
vt 0.062440 0.205730
vt 0.062440 0.205730
vt 0.062440 0.155400
vt 0.033150 0.155400
vt 0.062440 0.205730
vt 0.246140 0.511770
vt 0.339450 0.468970
vt 0.200250 0.451370
vt 0.246140 0.511770
vt 0.246140 0.511770
vt 0.339450 0.554570
vt 0.339450 0.511770
vt 0.246140 0.511770
vt 0.185140 0.106590
vt 0.297610 0.155400
vt 0.297610 0.120810
vt 0.185140 0.106590
vt 0.185140 0.204210
vt 0.297610 0.155400
vt 0.161720 0.155400
vt 0.185140 0.204210
vt 0.376810 0.511770
vt 0.339450 0.511770
vt 0.339450 0.554570
vt 0.376810 0.511770
vt 0.297610 0.155400
vt 0.327790 0.155400
vt 0.297610 0.120810
vt 0.297610 0.155400
vt 0.376810 0.511770
vt 0.339450 0.468970
vt 0.339450 0.511770
vt 0.376810 0.511770
vt 0.297610 0.155400
vt 0.297610 0.189990
vt 0.327790 0.155400
vt 0.297610 0.155400
vt 0.161720 0.155400
vt 0.185140 0.106590
vt 0.130610 0.091280
vt 0.161720 0.155400
vt 0.115160 0.155400
vt 0.130610 0.091280
vt 0.062440 0.105070
vt 0.115160 0.155400
vt 0.132780 0.432420
vt 0.048400 0.449490
vt 0.089430 0.472100
vt 0.132780 0.432420
vt 0.200250 0.451370
vt 0.132780 0.432420
vt 0.132780 0.511770
vt 0.200250 0.451370
vt 0.161720 0.155400
vt 0.115160 0.155400
vt 0.130610 0.219520
vt 0.161720 0.155400
vt 0.062440 0.205730
vt 0.130610 0.219520
vt 0.115160 0.155400
vt 0.062440 0.205730
vt 0.246140 0.511770
vt 0.339450 0.511770
vt 0.339450 0.468970
vt 0.246140 0.511770
vt 0.246140 0.511770
vt 0.200250 0.572180
vt 0.339450 0.554570
vt 0.246140 0.511770
vt 0.185140 0.106590
vt 0.161720 0.155400
vt 0.297610 0.155400
vt 0.185140 0.106590
vt 0.185140 0.204210
vt 0.297610 0.189990
vt 0.297610 0.155400
vt 0.185140 0.204210
vt 0.133900 0.825550
vt 0.058280 0.776010
vt 0.087210 0.749440
vt 0.133900 0.825550
vt 0.089430 0.551450
vt 0.048400 0.574060
vt 0.132780 0.591130
vt 0.089430 0.551450
vt 0.132780 0.511770
vt 0.089430 0.551450
vt 0.132780 0.591130
vt 0.132780 0.511770
vt 0.133900 0.825550
vt 0.058280 0.776010
vt 0.080600 0.874510
vt 0.133900 0.825550
vt 0.089430 0.472100
vt 0.048400 0.449490
vt 0.048400 0.511770
vt 0.089430 0.472100
vt 0.030170 0.872850
vt 0.058280 0.776010
vt 0.030910 0.775110
vt 0.030170 0.872850
vt 0.030170 0.872850
vt 0.058280 0.776010
vt 0.080600 0.874510
vt 0.030170 0.872850
vt 0.058280 0.776010
vt 0.087210 0.749440
vt 0.038140 0.713190
vt 0.058280 0.776010
vt 0.030910 0.775110
vt 0.038140 0.713190
vt 0.058280 0.776010
vt 0.030910 0.775110
vt 0.038140 0.713190
vt 0.087210 0.749440
vt 0.058280 0.776010
vt 0.038140 0.713190
vt 0.133900 0.825550
vt 0.080600 0.874510
vt 0.058280 0.776010
vt 0.133900 0.825550
vt 0.133900 0.825550
vt 0.087210 0.749440
vt 0.058280 0.776010
vt 0.133900 0.825550
vt 0.030170 0.872850
vt 0.080600 0.874510
vt 0.058280 0.776010
vt 0.030170 0.872850
vt 0.030170 0.872850
vt 0.030910 0.775110
vt 0.058280 0.776010
vt 0.030170 0.872850
vt 0.012150 0.511770
vt 0.048400 0.511770
vt 0.048400 0.574060
vt 0.012150 0.511770
vt 0.030910 0.775110
vt 0.038140 0.713190
vt 0.058280 0.776010
vt 0.030910 0.775110
vt 0.246140 0.511770
vt 0.200250 0.572180
vt 0.132780 0.511770
vt 0.246140 0.511770
vt 0.115160 0.155400
vt 0.130610 0.091280
vt 0.161720 0.155400
vt 0.115160 0.155400
vt 0.062440 0.155400
vt 0.062440 0.105070
vt 0.115160 0.155400
vt 0.062440 0.155400
vt 0.062440 0.155400
vt 0.033150 0.155400
vt 0.062440 0.105070
vt 0.062440 0.155400
vt 0.048400 0.511770
vt 0.012150 0.511770
vt 0.048400 0.449490
vt 0.048400 0.511770
vt 0.132780 0.511770
vt 0.089430 0.472100
vt 0.132780 0.432420
vt 0.132780 0.511770
vt 0.246140 0.511770
vt 0.132780 0.511770
vt 0.200250 0.451370
vt 0.246140 0.511770
vt 0.200250 0.572180
vt 0.132780 0.591130
vt 0.132780 0.511770
vt 0.200250 0.572180
vt 0.089430 0.551450
vt 0.048400 0.574060
vt 0.048400 0.511770
vt 0.089430 0.551450
vt 0.185140 0.204210
vt 0.130610 0.219520
vt 0.161720 0.155400
vt 0.185140 0.204210
vt 0.062440 0.155400
vt 0.115160 0.155400
vt 0.062440 0.205730
vt 0.062440 0.155400
vt 0.033150 0.155400
vt 0.062440 0.155400
vt 0.062440 0.205730
vt 0.033150 0.155400
vt 0.200250 0.451370
vt 0.339450 0.468970
vt 0.246140 0.511770
vt 0.200250 0.451370
vt 0.339450 0.511770
vt 0.339450 0.554570
vt 0.246140 0.511770
vt 0.339450 0.511770
vt 0.297610 0.120810
vt 0.297610 0.155400
vt 0.185140 0.106590
vt 0.297610 0.120810
vt 0.161720 0.155400
vt 0.297610 0.155400
vt 0.185140 0.204210
vt 0.161720 0.155400
vt 0.339450 0.554570
vt 0.339450 0.511770
vt 0.376810 0.511770
vt 0.339450 0.554570
vt 0.297610 0.120810
vt 0.327790 0.155400
vt 0.297610 0.155400
vt 0.297610 0.120810
vt 0.339450 0.511770
vt 0.339450 0.468970
vt 0.376810 0.511770
vt 0.339450 0.511770
vt 0.327790 0.155400
vt 0.297610 0.189990
vt 0.297610 0.155400
vt 0.327790 0.155400
vt 0.130610 0.091280
vt 0.185140 0.106590
vt 0.161720 0.155400
vt 0.130610 0.091280
vt 0.062440 0.105070
vt 0.130610 0.091280
vt 0.115160 0.155400
vt 0.062440 0.105070
vt 0.089430 0.472100
vt 0.048400 0.449490
vt 0.132780 0.432420
vt 0.089430 0.472100
vt 0.132780 0.511770
vt 0.132780 0.432420
vt 0.200250 0.451370
vt 0.132780 0.511770
vt 0.130610 0.219520
vt 0.115160 0.155400
vt 0.161720 0.155400
vt 0.130610 0.219520
vt 0.115160 0.155400
vt 0.130610 0.219520
vt 0.062440 0.205730
vt 0.115160 0.155400
vt 0.339450 0.468970
vt 0.339450 0.511770
vt 0.246140 0.511770
vt 0.339450 0.468970
vt 0.339450 0.554570
vt 0.200250 0.572180
vt 0.246140 0.511770
vt 0.339450 0.554570
vt 0.297610 0.155400
vt 0.161720 0.155400
vt 0.185140 0.106590
vt 0.297610 0.155400
vt 0.297610 0.155400
vt 0.297610 0.189990
vt 0.185140 0.204210
vt 0.297610 0.155400
vt 0.087210 0.749440
vt 0.058280 0.776010
vt 0.133900 0.825550
vt 0.087210 0.749440
vt 0.132780 0.591130
vt 0.048400 0.574060
vt 0.089430 0.551450
vt 0.132780 0.591130
vt 0.132780 0.591130
vt 0.089430 0.551450
vt 0.132780 0.511770
vt 0.132780 0.591130
vt 0.080600 0.874510
vt 0.058280 0.776010
vt 0.133900 0.825550
vt 0.080600 0.874510
vt 0.048400 0.511770
vt 0.048400 0.449490
vt 0.089430 0.472100
vt 0.048400 0.511770
vt 0.030910 0.775110
vt 0.058280 0.776010
vt 0.030170 0.872850
vt 0.030910 0.775110
vt 0.080600 0.874510
vt 0.058280 0.776010
vt 0.030170 0.872850
vt 0.080600 0.874510
vt 0.038140 0.713190
vt 0.087210 0.749440
vt 0.058280 0.776010
vt 0.038140 0.713190
vt 0.058280 0.776010
vt 0.038140 0.713190
vt 0.030910 0.775110
vt 0.058280 0.776010
vt 0.058280 0.776010
vt 0.087210 0.749440
vt 0.038140 0.713190
vt 0.058280 0.776010
vt 0.058280 0.776010
vt 0.080600 0.874510
vt 0.133900 0.825550
vt 0.058280 0.776010
vt 0.058280 0.776010
vt 0.087210 0.749440
vt 0.133900 0.825550
vt 0.058280 0.776010
vt 0.058280 0.776010
vt 0.080600 0.874510
vt 0.030170 0.872850
vt 0.058280 0.776010
vt 0.058280 0.776010
vt 0.030910 0.775110
vt 0.030170 0.872850
vt 0.058280 0.776010
# 368 texture vertices

vn -0.687544 0.286952 0.667040
vn -0.833219 0.324790 0.447502
vn -0.970412 0.168374 0.173061
vn -0.687544 0.286952 0.667040
vn -0.723208 0.042688 0.689310
vn -0.718384 0.113292 0.686359
vn -0.722340 0.060383 0.688897
vn -0.723208 0.042688 0.689310
vn 0.337541 0.558855 0.757461
vn 0.166979 0.669292 0.723993
vn 0.119705 0.673037 0.729857
vn 0.337541 0.558855 0.757461
vn 0.181660 -0.726897 0.662284
vn 0.105826 -0.731443 0.673640
vn -0.023040 -0.719720 0.693882
vn 0.181660 -0.726897 0.662284
vn -0.023040 -0.719720 0.693882
vn -0.392771 -0.647953 0.652601
vn -0.511767 -0.604638 0.610333
vn -0.023040 -0.719720 0.693882
vn -0.582129 -0.427736 0.691497
vn -0.969555 -0.172945 0.173358
vn -0.717379 -0.634095 0.288601
vn -0.582129 -0.427736 0.691497
vn -0.687546 0.286941 -0.667042
vn -0.970411 0.168374 -0.173068
vn -0.833217 0.324791 -0.447504
vn -0.687546 0.286941 -0.667042
vn 0.097015 0.590170 -0.801428
vn -0.003336 0.569182 -0.822205
vn 0.337539 0.558856 -0.757461
vn 0.097015 0.590170 -0.801428
vn 0.166976 0.669294 -0.723992
vn 0.337539 0.558856 -0.757461
vn 0.119705 0.673041 -0.729854
vn 0.166976 0.669294 -0.723992
vn 0.337541 0.558855 0.757461
vn 0.097014 0.590179 0.801422
vn 0.166979 0.669292 0.723993
vn 0.337541 0.558855 0.757461
vn -0.739606 0.260145 0.620732
vn -0.557717 0.499165 0.663163
vn -0.348341 0.465965 0.813348
vn -0.739606 0.260145 0.620732
vn 0.181657 -0.726898 -0.662284
vn 0.105820 -0.731442 -0.673643
vn 0.133581 -0.716387 -0.684796
vn 0.181657 -0.726898 -0.662284
vn -0.392771 -0.647948 -0.652606
vn -0.023042 -0.719716 -0.693886
vn -0.511765 -0.604634 -0.610340
vn -0.392771 -0.647948 -0.652606
vn -0.582127 -0.427732 -0.691501
vn -0.717379 -0.634093 -0.288608
vn -0.969554 -0.172945 -0.173366
vn -0.582127 -0.427732 -0.691501
vn 0.119705 0.673041 -0.729854
vn 0.294127 0.647078 -0.703405
vn 0.166976 0.669294 -0.723992
vn 0.119705 0.673041 -0.729854
vn 0.119705 0.673037 0.729857
vn 0.294126 0.647075 0.703409
vn 0.391085 0.607090 0.691733
vn 0.119705 0.673037 0.729857
vn 0.133585 -0.716384 0.684799
vn 0.290880 -0.675940 0.677122
vn 0.397646 -0.642523 0.655012
vn 0.133585 -0.716384 0.684799
vn 0.133581 -0.716387 -0.684796
vn 0.290881 -0.675944 -0.677118
vn 0.181657 -0.726898 -0.662284
vn 0.133581 -0.716387 -0.684796
vn 0.683133 0.481721 0.548884
vn 0.391085 0.607090 0.691733
vn 0.294126 0.647075 0.703409
vn 0.683133 0.481721 0.548884
vn 0.290880 -0.675940 0.677122
vn 0.664195 -0.523492 0.533668
vn 0.397646 -0.642523 0.655012
vn 0.290880 -0.675940 0.677122
vn 0.683136 0.481722 -0.548880
vn 0.294127 0.647078 -0.703405
vn 0.391087 0.607093 -0.691729
vn 0.683136 0.481722 -0.548880
vn 0.290881 -0.675944 -0.677118
vn 0.397648 -0.642527 -0.655008
vn 0.664197 -0.523494 -0.533663
vn 0.290881 -0.675944 -0.677118
vn 0.181660 -0.726897 0.662284
vn 0.133585 -0.716384 0.684799
vn 0.105826 -0.731443 0.673640
vn 0.181660 -0.726897 0.662284
vn -0.023040 -0.719720 0.693882
vn 0.105826 -0.731443 0.673640
vn -0.392771 -0.647953 0.652601
vn -0.023040 -0.719720 0.693882
vn 0.097015 0.590170 -0.801428
vn -0.557724 0.499152 -0.663167
vn -0.173784 0.483120 -0.858134
vn 0.097015 0.590170 -0.801428
vn 0.166976 0.669294 -0.723992
vn 0.097015 0.590170 -0.801428
vn 0.337539 0.558856 -0.757461
vn 0.166976 0.669294 -0.723992
vn 0.181657 -0.726898 -0.662284
vn -0.023042 -0.719716 -0.693886
vn 0.105820 -0.731442 -0.673643
vn 0.181657 -0.726898 -0.662284
vn -0.392771 -0.647948 -0.652606
vn 0.105820 -0.731442 -0.673643
vn -0.023042 -0.719716 -0.693886
vn -0.392771 -0.647948 -0.652606
vn 0.119705 0.673041 -0.729854
vn 0.391087 0.607093 -0.691729
vn 0.294127 0.647078 -0.703405
vn 0.119705 0.673041 -0.729854
vn 0.119705 0.673037 0.729857
vn 0.166979 0.669292 0.723993
vn 0.294126 0.647075 0.703409
vn 0.119705 0.673037 0.729857
vn 0.133585 -0.716384 0.684799
vn 0.181660 -0.726897 0.662284
vn 0.290880 -0.675940 0.677122
vn 0.133585 -0.716384 0.684799
vn 0.133581 -0.716387 -0.684796
vn 0.397648 -0.642527 -0.655008
vn 0.290881 -0.675944 -0.677118
vn 0.133581 -0.716387 -0.684796
vn 0.337539 0.558856 -0.757461
vn 0.438696 0.472182 -0.764585
vn 0.411407 0.504361 -0.759186
vn 0.337539 0.558856 -0.757461
vn -0.173780 0.483117 0.858136
vn -0.557717 0.499165 0.663163
vn 0.097014 0.590179 0.801422
vn -0.173780 0.483117 0.858136
vn 0.337541 0.558855 0.757461
vn -0.003334 0.569184 0.822203
vn 0.097014 0.590179 0.801422
vn 0.337541 0.558855 0.757461
vn 0.337541 0.558855 0.757461
vn 0.438706 0.472183 0.764578
vn 0.203255 0.517365 0.831276
vn 0.337541 0.558855 0.757461
vn -0.348345 0.465961 -0.813349
vn -0.557724 0.499152 -0.663167
vn -0.739604 0.260147 -0.620733
vn -0.348345 0.465961 -0.813349
vn -0.739606 0.260145 0.620732
vn -0.723208 0.042688 0.689310
vn -0.722340 0.060383 0.688897
vn -0.739606 0.260145 0.620732
vn -0.739604 0.260147 -0.620733
vn -0.723199 0.042695 -0.689319
vn -0.537204 0.358027 -0.763694
vn -0.739604 0.260147 -0.620733
vn 0.438706 0.472183 0.764578
vn 0.411419 0.504376 0.759170
vn 0.325717 0.594823 0.734911
vn 0.438706 0.472183 0.764578
vn -0.722322 0.060382 -0.688916
vn -0.718367 0.113289 -0.686378
vn -0.723199 0.042695 -0.689319
vn -0.722322 0.060382 -0.688916
vn 0.325708 0.594806 -0.734928
vn 0.411407 0.504361 -0.759186
vn 0.438696 0.472182 -0.764585
vn 0.325708 0.594806 -0.734928
vn 0.337539 0.558856 -0.757461
vn 0.203257 0.517365 -0.831276
vn 0.438696 0.472182 -0.764585
vn 0.337539 0.558856 -0.757461
vn 0.337541 0.558855 0.757461
vn 0.411419 0.504376 0.759170
vn 0.438706 0.472183 0.764578
vn 0.337541 0.558855 0.757461
vn -0.739606 0.260145 0.620732
vn -0.537195 0.358033 0.763698
vn -0.723208 0.042688 0.689310
vn -0.739606 0.260145 0.620732
vn -0.739604 0.260147 -0.620733
vn -0.722322 0.060382 -0.688916
vn -0.723199 0.042695 -0.689319
vn -0.739604 0.260147 -0.620733
vn 0.970412 0.168374 0.173061
vn 0.833219 0.324790 0.447502
vn 0.687544 0.286952 0.667040
vn 0.970412 0.168374 0.173061
vn 0.722340 0.060383 0.688897
vn 0.718384 0.113292 0.686359
vn 0.723208 0.042688 0.689310
vn 0.722340 0.060383 0.688897
vn -0.119705 0.673037 0.729857
vn -0.166979 0.669292 0.723993
vn -0.337541 0.558855 0.757461
vn -0.119705 0.673037 0.729857
vn 0.023040 -0.719720 0.693882
vn -0.105826 -0.731443 0.673640
vn -0.181660 -0.726897 0.662284
vn 0.023040 -0.719720 0.693882
vn 0.511767 -0.604638 0.610333
vn 0.392771 -0.647953 0.652601
vn 0.023040 -0.719720 0.693882
vn 0.511767 -0.604638 0.610333
vn 0.717379 -0.634095 0.288601
vn 0.969555 -0.172945 0.173358
vn 0.582129 -0.427736 0.691497
vn 0.717379 -0.634095 0.288601
vn 0.833217 0.324791 -0.447504
vn 0.970411 0.168374 -0.173068
vn 0.687546 0.286941 -0.667042
vn 0.833217 0.324791 -0.447504
vn -0.337539 0.558856 -0.757461
vn 0.003336 0.569182 -0.822205
vn -0.097015 0.590170 -0.801428
vn -0.337539 0.558856 -0.757461
vn -0.119705 0.673041 -0.729854
vn -0.337539 0.558856 -0.757461
vn -0.166976 0.669294 -0.723992
vn -0.119705 0.673041 -0.729854
vn -0.166979 0.669292 0.723993
vn -0.097014 0.590179 0.801422
vn -0.337541 0.558855 0.757461
vn -0.166979 0.669292 0.723993
vn 0.348341 0.465965 0.813348
vn 0.557717 0.499165 0.663163
vn 0.739606 0.260145 0.620732
vn 0.348341 0.465965 0.813348
vn -0.133581 -0.716387 -0.684796
vn -0.105820 -0.731442 -0.673643
vn -0.181657 -0.726898 -0.662284
vn -0.133581 -0.716387 -0.684796
vn 0.511765 -0.604634 -0.610340
vn 0.023042 -0.719716 -0.693886
vn 0.392771 -0.647948 -0.652606
vn 0.511765 -0.604634 -0.610340
vn 0.969554 -0.172945 -0.173366
vn 0.717379 -0.634093 -0.288608
vn 0.582127 -0.427732 -0.691501
vn 0.969554 -0.172945 -0.173366
vn -0.166976 0.669294 -0.723992
vn -0.294127 0.647078 -0.703405
vn -0.119705 0.673041 -0.729854
vn -0.166976 0.669294 -0.723992
vn -0.391085 0.607090 0.691733
vn -0.294126 0.647075 0.703409
vn -0.119705 0.673037 0.729857
vn -0.391085 0.607090 0.691733
vn -0.397646 -0.642523 0.655012
vn -0.290880 -0.675940 0.677122
vn -0.133585 -0.716384 0.684799
vn -0.397646 -0.642523 0.655012
vn -0.181657 -0.726898 -0.662284
vn -0.290881 -0.675944 -0.677118
vn -0.133581 -0.716387 -0.684796
vn -0.181657 -0.726898 -0.662284
vn -0.294126 0.647075 0.703409
vn -0.391085 0.607090 0.691733
vn -0.683133 0.481721 0.548884
vn -0.294126 0.647075 0.703409
vn -0.397646 -0.642523 0.655012
vn -0.664195 -0.523492 0.533668
vn -0.290880 -0.675940 0.677122
vn -0.397646 -0.642523 0.655012
vn -0.391087 0.607093 -0.691729
vn -0.294127 0.647078 -0.703405
vn -0.683136 0.481722 -0.548880
vn -0.391087 0.607093 -0.691729
vn -0.664197 -0.523494 -0.533663
vn -0.397648 -0.642527 -0.655008
vn -0.290881 -0.675944 -0.677118
vn -0.664197 -0.523494 -0.533663
vn -0.105826 -0.731443 0.673640
vn -0.133585 -0.716384 0.684799
vn -0.181660 -0.726897 0.662284
vn -0.105826 -0.731443 0.673640
vn 0.392771 -0.647953 0.652601
vn -0.105826 -0.731443 0.673640
vn 0.023040 -0.719720 0.693882
vn 0.392771 -0.647953 0.652601
vn 0.173784 0.483120 -0.858134
vn 0.557724 0.499152 -0.663167
vn -0.097015 0.590170 -0.801428
vn 0.173784 0.483120 -0.858134
vn -0.337539 0.558856 -0.757461
vn -0.097015 0.590170 -0.801428
vn -0.166976 0.669294 -0.723992
vn -0.337539 0.558856 -0.757461
vn -0.105820 -0.731442 -0.673643
vn 0.023042 -0.719716 -0.693886
vn -0.181657 -0.726898 -0.662284
vn -0.105820 -0.731442 -0.673643
vn 0.023042 -0.719716 -0.693886
vn -0.105820 -0.731442 -0.673643
vn 0.392771 -0.647948 -0.652606
vn 0.023042 -0.719716 -0.693886
vn -0.294127 0.647078 -0.703405
vn -0.391087 0.607093 -0.691729
vn -0.119705 0.673041 -0.729854
vn -0.294127 0.647078 -0.703405
vn -0.294126 0.647075 0.703409
vn -0.166979 0.669292 0.723993
vn -0.119705 0.673037 0.729857
vn -0.294126 0.647075 0.703409
vn -0.290880 -0.675940 0.677122
vn -0.181660 -0.726897 0.662284
vn -0.133585 -0.716384 0.684799
vn -0.290880 -0.675940 0.677122
vn -0.290881 -0.675944 -0.677118
vn -0.397648 -0.642527 -0.655008
vn -0.133581 -0.716387 -0.684796
vn -0.290881 -0.675944 -0.677118
vn -0.411407 0.504361 -0.759186
vn -0.438696 0.472182 -0.764585
vn -0.337539 0.558856 -0.757461
vn -0.411407 0.504361 -0.759186
vn -0.097014 0.590179 0.801422
vn 0.557717 0.499165 0.663163
vn 0.173780 0.483117 0.858136
vn -0.097014 0.590179 0.801422
vn -0.097014 0.590179 0.801422
vn 0.003334 0.569184 0.822203
vn -0.337541 0.558855 0.757461
vn -0.097014 0.590179 0.801422
vn -0.203255 0.517365 0.831276
vn -0.438706 0.472183 0.764578
vn -0.337541 0.558855 0.757461
vn -0.203255 0.517365 0.831276
vn 0.739604 0.260147 -0.620733
vn 0.557724 0.499152 -0.663167
vn 0.348345 0.465961 -0.813349
vn 0.739604 0.260147 -0.620733
vn 0.722340 0.060383 0.688897
vn 0.723208 0.042688 0.689310
vn 0.739606 0.260145 0.620732
vn 0.722340 0.060383 0.688897
vn 0.537204 0.358027 -0.763694
vn 0.723199 0.042695 -0.689319
vn 0.739604 0.260147 -0.620733
vn 0.537204 0.358027 -0.763694
vn -0.325717 0.594823 0.734911
vn -0.411419 0.504376 0.759170
vn -0.438706 0.472183 0.764578
vn -0.325717 0.594823 0.734911
vn 0.723199 0.042695 -0.689319
vn 0.718367 0.113289 -0.686378
vn 0.722322 0.060382 -0.688916
vn 0.723199 0.042695 -0.689319
vn -0.438696 0.472182 -0.764585
vn -0.411407 0.504361 -0.759186
vn -0.325708 0.594806 -0.734928
vn -0.438696 0.472182 -0.764585
vn -0.438696 0.472182 -0.764585
vn -0.203257 0.517365 -0.831276
vn -0.337539 0.558856 -0.757461
vn -0.438696 0.472182 -0.764585
vn -0.438706 0.472183 0.764578
vn -0.411419 0.504376 0.759170
vn -0.337541 0.558855 0.757461
vn -0.438706 0.472183 0.764578
vn 0.723208 0.042688 0.689310
vn 0.537195 0.358033 0.763698
vn 0.739606 0.260145 0.620732
vn 0.723208 0.042688 0.689310
vn 0.723199 0.042695 -0.689319
vn 0.722322 0.060382 -0.688916
vn 0.739604 0.260147 -0.620733
vn 0.723199 0.042695 -0.689319
# 368 vertex normals

g matMain
f 9/1/1 2/2/2 1/3/3
f 21/5/5 25/6/6 22/7/7
f 3/9/9 11/10/10 4/11/11
f 6/13/13 10/14/14 7/15/15
f 7/17/17 9/18/18 8/19/19
f 9/21/21 1/22/22 8/23/23
f 14/25/25 1/26/26 2/27/27
f 15/29/29 20/30/30 3/31/31
f 13/33/33 3/34/34 4/35/35
f 3/37/37 10/38/38 11/39/39
f 2/41/41 9/42/42 16/43/43
f 6/45/45 15/46/46 13/47/47
f 14/49/49 7/50/50 8/51/51
f 14/53/53 8/54/54 1/55/55
f 4/57/57 18/58/58 13/59/59
f 4/61/61 12/62/62 19/63/63
f 11/65/65 5/66/66 12/67/67
f 13/69/69 5/70/70 6/71/71
f 17/73/73 19/74/74 12/75/75
f 5/77/77 17/78/78 12/79/79
f 17/81/81 18/82/82 19/83/83
f 5/85/85 18/86/86 17/87/87
f 6/89/89 11/90/90 10/91/91
f 7/93/93 10/94/94 9/95/95
f 15/97/97 14/98/98 20/99/99
f 13/101/101 15/102/102 3/103/103
f 6/105/105 7/106/106 15/107/107
f 14/109/109 15/110/110 7/111/111
f 4/113/113 19/114/114 18/115/115
f 4/117/117 11/118/118 12/119/119
f 11/121/121 6/122/122 5/123/123
f 13/125/125 18/126/126 5/127/127
f 3/129/129 24/130/130 23/131/131
f 16/133/133 9/134/134 10/135/135
f 3/137/137 16/138/138 10/139/139
f 3/141/141 21/142/142 16/143/143
f 20/145/145 14/146/146 2/147/147
f 2/149/149 21/150/150 22/151/151
f 2/153/153 24/154/154 20/155/155
f 21/157/157 23/158/158 25/159/159
f 22/161/161 25/162/162 24/163/163
f 25/165/165 23/166/166 24/167/167
f 3/169/169 20/170/170 24/171/171
f 3/173/173 23/174/174 21/175/175
f 2/177/177 16/178/178 21/179/179
f 2/181/181 22/182/182 24/183/183
f 26/185/185 27/186/186 34/187/187
f 47/189/189 50/190/190 46/191/191
f 29/193/193 36/194/194 28/195/195
f 32/197/197 35/198/198 31/199/199
f 33/201/201 34/202/202 32/203/203
f 33/205/205 26/206/206 34/207/207
f 27/209/209 26/210/210 39/211/211
f 28/213/213 45/214/214 40/215/215
f 29/217/217 28/218/218 38/219/219
f 36/221/221 35/222/222 28/223/223
f 41/225/225 34/226/226 27/227/227
f 38/229/229 40/230/230 31/231/231
f 33/233/233 32/234/234 39/235/235
f 26/237/237 33/238/238 39/239/239
f 38/241/241 43/242/242 29/243/243
f 44/245/245 37/246/246 29/247/247
f 37/249/249 30/250/250 36/251/251
f 31/253/253 30/254/254 38/255/255
f 37/257/257 44/258/258 42/259/259
f 37/261/261 42/262/262 30/263/263
f 44/265/265 43/266/266 42/267/267
f 42/269/269 43/270/270 30/271/271
f 35/273/273 36/274/274 31/275/275
f 34/277/277 35/278/278 32/279/279
f 45/281/281 39/282/282 40/283/283
f 28/285/285 40/286/286 38/287/287
f 40/289/289 32/290/290 31/291/291
f 32/293/293 40/294/294 39/295/295
f 43/297/297 44/298/298 29/299/299
f 37/301/301 36/302/302 29/303/303
f 30/305/305 31/306/306 36/307/307
f 30/309/309 43/310/310 38/311/311
f 48/313/313 49/314/314 28/315/315
f 35/317/317 34/318/318 41/319/319
f 35/321/321 41/322/322 28/323/323
f 41/325/325 46/326/326 28/327/327
f 27/329/329 39/330/330 45/331/331
f 47/333/333 46/334/334 27/335/335
f 45/337/337 49/338/338 27/339/339
f 50/341/341 48/342/342 46/343/343
f 49/345/345 50/346/346 47/347/347
f 49/349/349 48/350/350 50/351/351
f 49/353/353 45/354/354 28/355/355
f 46/357/357 48/358/358 28/359/359
f 46/361/361 41/362/362 27/363/363
f 49/365/365 47/366/366 27/367/367
# 92 elements

