# Created by 3DAce v2.72


g
v -0.141217 1.877232 -2.005382
v -0.174993 1.877207 -2.418192
v -0.120367 1.991672 -2.406569
v -0.120367 1.785296 -2.373995
v 0.000032 1.760871 -1.996267
v 0.000032 2.018524 -1.961939
v 0.000032 2.140317 -2.467438
v 0.000032 1.727730 -2.346321
v 0.000032 1.906166 -2.416512
v 0.000032 1.799677 -2.372323
v 0.000032 2.006053 -2.404897
v 0.141217 1.877232 -2.005382
v 0.000000 1.877235 -1.814825
v 0.174993 1.877207 -2.418192
v 0.120367 1.991672 -2.406569
v 0.120367 1.785296 -2.373995
# 16 vertices

vt 0.316840 0.066420
vt 0.277890 0.156090
vt 0.084190 0.156090
vt 0.316840 0.066420
vt 0.236250 0.602520
vt 0.268880 0.643860
vt 0.288850 0.602520
vt 0.236250 0.602520
vt 0.316840 0.066420
vt 0.084190 0.156090
vt 0.135260 0.050890
vt 0.316840 0.066420
vt 0.141000 0.618300
vt 0.088090 0.603620
vt 0.156630 0.511390
vt 0.141000 0.618300
vt 0.288850 0.602520
vt 0.274320 0.511390
vt 0.236250 0.602520
vt 0.288850 0.602520
vt 0.236250 0.602520
vt 0.141000 0.618300
vt 0.268880 0.643860
vt 0.236250 0.602520
vt 0.288850 0.602520
vt 0.268880 0.643860
vt 0.141000 0.618300
vt 0.288850 0.602520
vt 0.274320 0.511390
vt 0.238700 0.511390
vt 0.236250 0.602520
vt 0.274320 0.511390
vt 0.274320 0.511390
vt 0.288850 0.602520
vt 0.291290 0.511390
vt 0.274320 0.511390
vt 0.288850 0.602520
vt 0.156630 0.511390
vt 0.338330 0.511390
vt 0.288850 0.602520
vt 0.288850 0.602520
vt 0.141000 0.618300
vt 0.156630 0.511390
vt 0.288850 0.602520
vt 0.321500 0.156090
vt 0.277890 0.156090
vt 0.316840 0.066420
vt 0.321500 0.156090
vt 0.288850 0.602520
vt 0.338330 0.511390
vt 0.291290 0.511390
vt 0.288850 0.602520
vt 0.034390 0.065330
vt 0.135260 0.050890
vt 0.084190 0.156090
vt 0.034390 0.065330
vt 0.084190 0.156090
vt 0.277890 0.156090
vt 0.316840 0.066420
vt 0.084190 0.156090
vt 0.288850 0.602520
vt 0.268880 0.643860
vt 0.236250 0.602520
vt 0.288850 0.602520
vt 0.135260 0.050890
vt 0.084190 0.156090
vt 0.316840 0.066420
vt 0.135260 0.050890
vt 0.156630 0.511390
vt 0.088090 0.603620
vt 0.141000 0.618300
vt 0.156630 0.511390
vt 0.236250 0.602520
vt 0.274320 0.511390
vt 0.288850 0.602520
vt 0.236250 0.602520
vt 0.268880 0.643860
vt 0.141000 0.618300
vt 0.236250 0.602520
vt 0.268880 0.643860
vt 0.141000 0.618300
vt 0.268880 0.643860
vt 0.288850 0.602520
vt 0.141000 0.618300
vt 0.236250 0.602520
vt 0.238700 0.511390
vt 0.274320 0.511390
vt 0.236250 0.602520
vt 0.291290 0.511390
vt 0.288850 0.602520
vt 0.274320 0.511390
vt 0.291290 0.511390
vt 0.338330 0.511390
vt 0.156630 0.511390
vt 0.288850 0.602520
vt 0.338330 0.511390
vt 0.156630 0.511390
vt 0.141000 0.618300
vt 0.288850 0.602520
vt 0.156630 0.511390
vt 0.316840 0.066420
vt 0.277890 0.156090
vt 0.321500 0.156090
vt 0.316840 0.066420
vt 0.291290 0.511390
vt 0.338330 0.511390
vt 0.288850 0.602520
vt 0.291290 0.511390
vt 0.084190 0.156090
vt 0.135260 0.050890
vt 0.034390 0.065330
vt 0.084190 0.156090
# 112 texture vertices

vn -0.671246 -0.733582 0.106234
vn 0.000106 -0.995548 0.094253
vn -0.346628 -0.913045 0.214938
vn -0.671246 -0.733582 0.106234
vn 0.102715 -0.262450 -0.959463
vn 0.473009 -0.137364 -0.870284
vn 0.091299 -0.156881 -0.983388
vn 0.102715 -0.262450 -0.959463
vn -0.671246 -0.733582 0.106234
vn -0.566809 -0.791408 0.228911
vn -0.717700 -0.658528 0.226379
vn -0.671246 -0.733582 0.106234
vn -0.791326 0.557087 0.251908
vn -0.682802 0.527015 0.506000
vn -0.724750 0.630553 0.277742
vn -0.791326 0.557087 0.251908
vn 0.091299 -0.156881 -0.983388
vn 0.000011 -0.144117 -0.989561
vn 0.102715 -0.262450 -0.959463
vn 0.091299 -0.156881 -0.983388
vn -0.671246 -0.733582 0.106234
vn -0.873693 -0.436828 0.214106
vn -0.996093 -0.034014 0.081502
vn -0.671246 -0.733582 0.106234
vn -0.795071 0.592280 0.130635
vn -0.996093 -0.034014 0.081502
vn -0.915576 0.328422 0.232078
vn -0.795071 0.592280 0.130635
vn 0.000011 -0.144117 -0.989561
vn -0.000015 -0.361677 -0.932303
vn 0.102715 -0.262450 -0.959463
vn 0.000011 -0.144117 -0.989561
vn 0.000011 -0.144117 -0.989561
vn 0.091299 -0.156881 -0.983388
vn -0.000009 -0.159119 -0.987259
vn 0.000011 -0.144117 -0.989561
vn -0.795071 0.592280 0.130635
vn -0.724750 0.630553 0.277742
vn -0.734336 0.659903 0.158994
vn -0.795071 0.592280 0.130635
vn -0.795071 0.592280 0.130635
vn -0.791326 0.557087 0.251908
vn -0.724750 0.630553 0.277742
vn -0.795071 0.592280 0.130635
vn -0.000015 -0.361677 -0.932303
vn -0.000014 -0.339891 -0.940465
vn 0.102715 -0.262450 -0.959463
vn -0.000015 -0.361677 -0.932303
vn 0.091299 -0.156881 -0.983388
vn -0.000017 -0.422245 -0.906482
vn -0.000009 -0.159119 -0.987259
vn 0.091299 -0.156881 -0.983388
vn -0.588728 -0.680471 0.436302
vn -0.717700 -0.658528 0.226379
vn -0.566809 -0.791408 0.228911
vn -0.588728 -0.680471 0.436302
vn 0.346825 -0.912966 0.214955
vn 0.000106 -0.995548 0.094253
vn 0.671355 -0.733486 0.106213
vn 0.346825 -0.912966 0.214955
vn -0.091283 -0.156881 -0.983390
vn -0.473009 -0.137364 -0.870284
vn -0.102706 -0.262450 -0.959464
vn -0.091283 -0.156881 -0.983390
vn 0.717797 -0.658416 0.226395
vn 0.566982 -0.791279 0.228928
vn 0.671355 -0.733486 0.106213
vn 0.717797 -0.658416 0.226395
vn 0.724911 0.630368 0.277741
vn 0.682914 0.526792 0.506082
vn 0.791415 0.556956 0.251917
vn 0.724911 0.630368 0.277741
vn -0.102706 -0.262450 -0.959464
vn 0.000011 -0.144117 -0.989561
vn -0.091283 -0.156881 -0.983390
vn -0.102706 -0.262450 -0.959464
vn 0.996093 -0.034014 0.081502
vn 0.873746 -0.436720 0.214113
vn 0.671355 -0.733486 0.106213
vn 0.996093 -0.034014 0.081502
vn 0.915619 0.328301 0.232078
vn 0.996093 -0.034014 0.081502
vn 0.795171 0.592154 0.130600
vn 0.915619 0.328301 0.232078
vn -0.102706 -0.262450 -0.959464
vn -0.000015 -0.361677 -0.932303
vn 0.000011 -0.144117 -0.989561
vn -0.102706 -0.262450 -0.959464
vn -0.000009 -0.159119 -0.987259
vn -0.091283 -0.156881 -0.983390
vn 0.000011 -0.144117 -0.989561
vn -0.000009 -0.159119 -0.987259
vn 0.734516 0.659713 0.158949
vn 0.724911 0.630368 0.277741
vn 0.795171 0.592154 0.130600
vn 0.734516 0.659713 0.158949
vn 0.724911 0.630368 0.277741
vn 0.791415 0.556956 0.251917
vn 0.795171 0.592154 0.130600
vn 0.724911 0.630368 0.277741
vn -0.102706 -0.262450 -0.959464
vn -0.000014 -0.339891 -0.940465
vn -0.000015 -0.361677 -0.932303
vn -0.102706 -0.262450 -0.959464
vn -0.000009 -0.159119 -0.987259
vn -0.000017 -0.422245 -0.906482
vn -0.091283 -0.156881 -0.983390
vn -0.000009 -0.159119 -0.987259
vn 0.566982 -0.791279 0.228928
vn 0.717797 -0.658416 0.226395
vn 0.588857 -0.680297 0.436398
vn 0.566982 -0.791279 0.228928
# 112 vertex normals

g matMain
f 4/1/1 8/2/2 5/3/3
f 4/5/5 2/6/6 3/7/7
f 4/9/9 5/10/10 1/11/11
f 1/13/13 13/14/14 6/15/15
f 3/17/17 9/18/18 4/19/19
f 4/21/21 1/22/22 2/23/23
f 3/25/25 2/26/26 1/27/27
f 9/29/29 10/30/30 4/31/31
f 9/33/33 3/34/34 11/35/35
f 3/37/37 6/38/38 7/39/39
f 3/41/41 1/42/42 6/43/43
f 10/45/45 8/46/46 4/47/47
f 3/49/49 7/50/50 11/51/51
f 13/53/53 1/54/54 5/55/55
f 5/57/57 8/58/58 16/59/59
f 15/61/61 14/62/62 16/63/63
f 12/65/65 5/66/66 16/67/67
f 6/69/69 13/70/70 12/71/71
f 16/73/73 9/74/74 15/75/75
f 14/77/77 12/78/78 16/79/79
f 12/81/81 14/82/82 15/83/83
f 16/85/85 10/86/86 9/87/87
f 11/89/89 15/90/90 9/91/91
f 7/93/93 6/94/94 15/95/95
f 6/97/97 12/98/98 15/99/99
f 16/101/101 8/102/102 10/103/103
f 11/105/105 7/106/106 15/107/107
f 5/109/109 12/110/110 13/111/111
# 28 elements

