# Created by 3DAce v2.72


g
v -0.326423 2.584167 0.269622
v -0.333067 2.652716 0.115986
v -0.316973 2.583883 0.033818
v -0.303127 2.522005 -0.291672
v -0.308058 2.419692 -0.286204
v -0.310559 2.189417 -0.293112
v -0.312192 2.071819 -0.297048
v -0.317543 2.221555 -0.247221
v -0.299802 2.448120 -0.224938
v -0.300814 2.497458 0.055686
v -0.301914 2.465282 0.201685
v -0.304300 2.372985 -0.078076
v -0.346470 2.477377 -0.293042
v -0.344351 2.195094 -0.292903
v -0.360897 2.549625 0.167200
v -0.258813 2.455584 -0.348827
v -0.293080 2.181950 -0.325467
v -0.269802 2.555087 0.113684
v -0.304196 2.450093 -0.222428
v -0.304435 2.497727 0.057495
v 0.326423 2.584167 0.269622
v 0.333067 2.652716 0.115986
v 0.316973 2.583883 0.033818
v 0.303127 2.522005 -0.291672
v 0.308058 2.419692 -0.286204
v 0.310559 2.189417 -0.293112
v 0.312192 2.071819 -0.297048
v 0.317543 2.221555 -0.247221
v 0.299802 2.448120 -0.224938
v 0.300814 2.497458 0.055686
v 0.301914 2.465282 0.201685
v 0.304300 2.372985 -0.078076
v 0.346470 2.477377 -0.293042
v 0.344351 2.195094 -0.292903
v 0.360897 2.549625 0.167200
v 0.258813 2.455584 -0.348827
v 0.293080 2.181950 -0.325467
v 0.269802 2.555087 0.113684
v 0.304196 2.450093 -0.222428
v 0.304435 2.497727 0.057495
# 40 vertices

vt 0.288660 0.569930
vt 0.137030 0.563050
vt 0.327800 0.518270
vt 0.288660 0.569930
vt 0.239680 0.511820
vt 0.076740 0.513090
vt 0.238850 0.447140
vt 0.239680 0.511820
vt 0.239680 0.511820
vt 0.238850 0.447140
vt 0.371240 0.512180
vt 0.239680 0.511820
vt 0.239680 0.511820
vt 0.371240 0.512180
vt 0.211710 0.564890
vt 0.239680 0.511820
vt 0.085950 0.592200
vt 0.076740 0.513090
vt 0.211710 0.564890
vt 0.085950 0.592200
vt 0.087920 0.516850
vt 0.148140 0.449220
vt 0.327800 0.518270
vt 0.087920 0.516850
vt 0.087920 0.516850
vt 0.141110 0.566880
vt 0.327800 0.518270
vt 0.087920 0.516850
vt 0.087920 0.516850
vt 0.137030 0.563050
vt 0.062710 0.639630
vt 0.087920 0.516850
vt 0.026880 0.496440
vt 0.087920 0.516850
vt 0.062710 0.639630
vt 0.026880 0.496440
vt 0.087920 0.516850
vt 0.026880 0.496440
vt 0.102810 0.375980
vt 0.087920 0.516850
vt 0.087920 0.516850
vt 0.102810 0.375980
vt 0.148140 0.449220
vt 0.087920 0.516850
vt 0.123750 0.410410
vt 0.076740 0.513090
vt 0.238850 0.447140
vt 0.123750 0.410410
vt 0.238850 0.447140
vt 0.239680 0.511820
vt 0.371240 0.512180
vt 0.238850 0.447140
vt 0.371240 0.512180
vt 0.239680 0.511820
vt 0.211710 0.564890
vt 0.371240 0.512180
vt 0.239680 0.511820
vt 0.076740 0.513090
vt 0.211710 0.564890
vt 0.239680 0.511820
vt 0.087920 0.516850
vt 0.327800 0.518270
vt 0.148140 0.449220
vt 0.087920 0.516850
vt 0.137030 0.563050
vt 0.087920 0.516850
vt 0.327800 0.518270
vt 0.137030 0.563050
vt 0.141110 0.566880
vt 0.087920 0.516850
vt 0.062710 0.639630
vt 0.141110 0.566880
vt 0.087920 0.516850
vt 0.026880 0.496440
vt 0.062710 0.639630
vt 0.087920 0.516850
vt 0.026880 0.496440
vt 0.087920 0.516850
vt 0.102810 0.375980
vt 0.026880 0.496440
vt 0.102810 0.375980
vt 0.087920 0.516850
vt 0.148140 0.449220
vt 0.102810 0.375980
vt 0.141110 0.566880
vt 0.286000 0.573440
vt 0.327800 0.518270
vt 0.141110 0.566880
vt 0.076740 0.513090
vt 0.119350 0.420020
vt 0.238850 0.447140
vt 0.076740 0.513090
vt 0.076740 0.513090
vt 0.239680 0.511820
vt 0.211710 0.564890
vt 0.076740 0.513090
vt 0.148140 0.449220
vt 0.324860 0.447870
vt 0.327800 0.518270
vt 0.148140 0.449220
vt 0.076740 0.513090
vt 0.239680 0.511820
vt 0.238850 0.447140
vt 0.076740 0.513090
vt 0.076740 0.513090
vt 0.086580 0.597570
vt 0.211710 0.564890
vt 0.076740 0.513090
vt 0.327800 0.518270
vt 0.324860 0.447870
vt 0.148140 0.449220
vt 0.327800 0.518270
vt 0.507320 0.117500
vt 0.396010 0.128320
vt 0.430590 0.071430
vt 0.507320 0.117500
vt 0.525930 0.054130
vt 0.582200 0.147480
vt 0.507320 0.117500
vt 0.525930 0.054130
vt 0.507320 0.117500
vt 0.430590 0.071430
vt 0.525930 0.054130
vt 0.507320 0.117500
vt 0.527260 0.054450
vt 0.431200 0.070580
vt 0.507320 0.117500
vt 0.527260 0.054450
vt 0.507320 0.117500
vt 0.582200 0.147480
vt 0.527260 0.054450
vt 0.507320 0.117500
vt 0.431200 0.070580
vt 0.396010 0.128320
vt 0.507320 0.117500
vt 0.431200 0.070580
vt 0.327800 0.518270
vt 0.123750 0.410410
vt 0.324860 0.447870
vt 0.327800 0.518270
vt 0.324860 0.447870
vt 0.119350 0.420020
vt 0.327800 0.518270
vt 0.324860 0.447870
vt 0.327800 0.518270
vt 0.137030 0.563050
vt 0.288660 0.569930
vt 0.327800 0.518270
vt 0.238850 0.447140
vt 0.076740 0.513090
vt 0.239680 0.511820
vt 0.238850 0.447140
vt 0.371240 0.512180
vt 0.238850 0.447140
vt 0.239680 0.511820
vt 0.371240 0.512180
vt 0.211710 0.564890
vt 0.371240 0.512180
vt 0.239680 0.511820
vt 0.211710 0.564890
vt 0.211710 0.564890
vt 0.076740 0.513090
vt 0.085950 0.592200
vt 0.211710 0.564890
vt 0.327800 0.518270
vt 0.148140 0.449220
vt 0.087920 0.516850
vt 0.327800 0.518270
vt 0.327800 0.518270
vt 0.141110 0.566880
vt 0.087920 0.516850
vt 0.327800 0.518270
vt 0.062710 0.639630
vt 0.137030 0.563050
vt 0.087920 0.516850
vt 0.062710 0.639630
vt 0.062710 0.639630
vt 0.087920 0.516850
vt 0.026880 0.496440
vt 0.062710 0.639630
vt 0.102810 0.375980
vt 0.026880 0.496440
vt 0.087920 0.516850
vt 0.102810 0.375980
vt 0.148140 0.449220
vt 0.102810 0.375980
vt 0.087920 0.516850
vt 0.148140 0.449220
vt 0.238850 0.447140
vt 0.076740 0.513090
vt 0.123750 0.410410
vt 0.238850 0.447140
vt 0.371240 0.512180
vt 0.239680 0.511820
vt 0.238850 0.447140
vt 0.371240 0.512180
vt 0.211710 0.564890
vt 0.239680 0.511820
vt 0.371240 0.512180
vt 0.211710 0.564890
vt 0.211710 0.564890
vt 0.076740 0.513090
vt 0.239680 0.511820
vt 0.211710 0.564890
vt 0.148140 0.449220
vt 0.327800 0.518270
vt 0.087920 0.516850
vt 0.148140 0.449220
vt 0.327800 0.518270
vt 0.087920 0.516850
vt 0.137030 0.563050
vt 0.327800 0.518270
vt 0.062710 0.639630
vt 0.087920 0.516850
vt 0.141110 0.566880
vt 0.062710 0.639630
vt 0.062710 0.639630
vt 0.026880 0.496440
vt 0.087920 0.516850
vt 0.062710 0.639630
vt 0.102810 0.375980
vt 0.087920 0.516850
vt 0.026880 0.496440
vt 0.102810 0.375980
vt 0.148140 0.449220
vt 0.087920 0.516850
vt 0.102810 0.375980
vt 0.148140 0.449220
vt 0.327800 0.518270
vt 0.286000 0.573440
vt 0.141110 0.566880
vt 0.327800 0.518270
vt 0.238850 0.447140
vt 0.119350 0.420020
vt 0.076740 0.513090
vt 0.238850 0.447140
vt 0.211710 0.564890
vt 0.239680 0.511820
vt 0.076740 0.513090
vt 0.211710 0.564890
vt 0.327800 0.518270
vt 0.324860 0.447870
vt 0.148140 0.449220
vt 0.327800 0.518270
vt 0.238850 0.447140
vt 0.239680 0.511820
vt 0.076740 0.513090
vt 0.238850 0.447140
vt 0.211710 0.564890
vt 0.086580 0.597570
vt 0.076740 0.513090
vt 0.211710 0.564890
vt 0.148140 0.449220
vt 0.324860 0.447870
vt 0.327800 0.518270
vt 0.148140 0.449220
vt 0.430590 0.071430
vt 0.396010 0.128320
vt 0.507320 0.117500
vt 0.430590 0.071430
vt 0.507320 0.117500
vt 0.582200 0.147480
vt 0.525930 0.054130
vt 0.507320 0.117500
vt 0.525930 0.054130
vt 0.430590 0.071430
vt 0.507320 0.117500
vt 0.525930 0.054130
vt 0.507320 0.117500
vt 0.431200 0.070580
vt 0.527260 0.054450
vt 0.507320 0.117500
vt 0.527260 0.054450
vt 0.582200 0.147480
vt 0.507320 0.117500
vt 0.527260 0.054450
vt 0.507320 0.117500
vt 0.396010 0.128320
vt 0.431200 0.070580
vt 0.507320 0.117500
vt 0.324860 0.447870
vt 0.123750 0.410410
vt 0.327800 0.518270
vt 0.324860 0.447870
vt 0.327800 0.518270
vt 0.119350 0.420020
vt 0.324860 0.447870
vt 0.327800 0.518270
# 288 texture vertices

vn -0.965802 -0.185309 0.181347
vn -0.878412 -0.477079 0.028073
vn -0.825155 -0.440948 0.353106
vn -0.965802 -0.185309 0.181347
vn -0.003418 0.016462 -0.999859
vn 0.100031 -0.010409 -0.994930
vn -0.161237 0.023879 -0.986627
vn -0.003418 0.016462 -0.999859
vn -0.003418 0.016462 -0.999859
vn -0.161237 0.023879 -0.986627
vn -0.000560 0.033459 -0.999440
vn -0.003418 0.016462 -0.999859
vn -0.826067 -0.115422 0.551626
vn -0.778897 -0.222903 0.586203
vn -0.904805 -0.046406 0.423289
vn -0.826067 -0.115422 0.551626
vn -0.965802 -0.185309 0.181347
vn -0.974493 -0.065676 0.214593
vn -0.904805 -0.046406 0.423289
vn -0.965802 -0.185309 0.181347
vn -0.929657 0.361358 -0.071817
vn -0.854759 0.481107 -0.194741
vn -0.911089 0.354952 0.209586
vn -0.929657 0.361358 -0.071817
vn 0.928232 -0.344405 0.140611
vn 0.917004 -0.396216 0.046005
vn 0.872724 -0.420102 0.248732
vn 0.928232 -0.344405 0.140611
vn -0.874007 -0.484748 0.033643
vn -0.878412 -0.477079 0.028073
vn -0.925648 -0.362715 0.107762
vn -0.874007 -0.484748 0.033643
vn -0.943913 -0.032315 0.328608
vn -0.943547 -0.323013 0.073363
vn -0.925648 -0.362715 0.107762
vn -0.943913 -0.032315 0.328608
vn -0.982162 0.179043 0.057459
vn -0.943913 -0.032315 0.328608
vn -0.969994 0.238566 -0.046880
vn -0.982162 0.179043 0.057459
vn -0.999779 0.008219 0.019329
vn -0.969994 0.238566 -0.046880
vn -0.854759 0.481107 -0.194741
vn -0.999779 0.008219 0.019329
vn -0.557451 -0.009588 -0.830154
vn -0.819617 0.033250 -0.571946
vn -0.580119 0.035431 -0.813761
vn -0.557451 -0.009588 -0.830154
vn -0.849301 0.041009 -0.526314
vn -0.874144 0.047927 -0.483296
vn -0.876731 0.028245 -0.480151
vn -0.849301 0.041009 -0.526314
vn 0.939801 -0.077190 0.332891
vn 0.938449 -0.082853 0.335335
vn 0.965595 -0.087749 0.244800
vn 0.939801 -0.077190 0.332891
vn 0.938449 -0.082853 0.335335
vn 0.987584 -0.052025 0.148228
vn 0.965595 -0.087749 0.244800
vn 0.938449 -0.082853 0.335335
vn 0.876539 0.480255 0.032158
vn 0.940984 0.316790 0.119135
vn 0.764813 0.621626 -0.169240
vn 0.876539 0.480255 0.032158
vn -0.878412 -0.477079 0.028073
vn -0.752800 -0.642950 0.141097
vn -0.825155 -0.440948 0.353106
vn -0.878412 -0.477079 0.028073
vn 0.917004 -0.396216 0.046005
vn 0.997101 0.016514 0.074282
vn 0.984449 -0.150984 0.089800
vn 0.917004 -0.396216 0.046005
vn 0.986799 0.157958 0.035729
vn 0.919016 0.275065 0.282399
vn 0.984449 -0.150984 0.089800
vn 0.986799 0.157958 0.035729
vn 0.919016 0.275065 0.282399
vn 0.949601 0.313351 0.008292
vn 0.837971 0.544028 -0.042872
vn 0.919016 0.275065 0.282399
vn 0.837971 0.544028 -0.042872
vn 0.949601 0.313351 0.008292
vn 0.764813 0.621626 -0.169240
vn 0.837971 0.544028 -0.042872
vn 0.917004 -0.396216 0.046005
vn 0.953071 -0.276988 0.122203
vn 0.872724 -0.420102 0.248732
vn 0.917004 -0.396216 0.046005
vn 0.100031 -0.010409 -0.994930
vn 0.152905 -0.015314 -0.988122
vn 0.069537 0.020070 -0.997377
vn 0.100031 -0.010409 -0.994930
vn -0.974493 -0.065676 0.214593
vn -0.826067 -0.115422 0.551626
vn -0.904805 -0.046406 0.423289
vn -0.974493 -0.065676 0.214593
vn -0.854759 0.481107 -0.194741
vn -0.819765 0.381698 -0.426956
vn -0.911089 0.354952 0.209586
vn -0.854759 0.481107 -0.194741
vn -0.819617 0.033250 -0.571946
vn -0.874144 0.047927 -0.483296
vn -0.849301 0.041009 -0.526314
vn -0.819617 0.033250 -0.571946
vn 0.987584 -0.052025 0.148228
vn 0.953071 -0.276988 0.122203
vn 0.965595 -0.087749 0.244800
vn 0.987584 -0.052025 0.148228
vn 0.940984 0.316790 0.119135
vn 0.795933 0.600046 -0.080215
vn 0.764813 0.621626 -0.169240
vn 0.940984 0.316790 0.119135
vn -0.999819 0.012956 0.013934
vn -0.925648 -0.362715 0.107762
vn -0.878412 -0.477079 0.028073
vn -0.999819 0.012956 0.013934
vn -0.965802 -0.185309 0.181347
vn -0.904805 -0.046406 0.423289
vn -0.999819 0.012956 0.013934
vn -0.965802 -0.185309 0.181347
vn -0.999819 0.012956 0.013934
vn -0.878412 -0.477079 0.028073
vn -0.965802 -0.185309 0.181347
vn -0.999819 0.012956 0.013934
vn 0.953071 -0.276988 0.122203
vn 0.917004 -0.396216 0.046005
vn 0.998820 -0.048558 0.000885
vn 0.953071 -0.276988 0.122203
vn 0.998820 -0.048558 0.000885
vn 0.965595 -0.087749 0.244800
vn 0.953071 -0.276988 0.122203
vn 0.998820 -0.048558 0.000885
vn 0.917004 -0.396216 0.046005
vn 0.984449 -0.150984 0.089800
vn 0.998820 -0.048558 0.000885
vn 0.917004 -0.396216 0.046005
vn -0.819617 0.033250 -0.571946
vn -0.557451 -0.009588 -0.830154
vn -0.597281 0.271587 -0.754650
vn -0.819617 0.033250 -0.571946
vn -0.396902 -0.029899 -0.917374
vn -0.370785 0.000388 -0.928719
vn 0.100031 -0.010409 -0.994930
vn -0.396902 -0.029899 -0.917374
vn 0.825155 -0.440948 0.353106
vn 0.878412 -0.477079 0.028073
vn 0.965802 -0.185309 0.181347
vn 0.825155 -0.440948 0.353106
vn 0.161237 0.023879 -0.986627
vn -0.100031 -0.010409 -0.994930
vn 0.003418 0.016462 -0.999859
vn 0.161237 0.023879 -0.986627
vn 0.000560 0.033459 -0.999440
vn 0.161237 0.023879 -0.986627
vn 0.003418 0.016462 -0.999859
vn 0.000560 0.033459 -0.999440
vn 0.904805 -0.046406 0.423289
vn 0.778897 -0.222903 0.586203
vn 0.826067 -0.115422 0.551626
vn 0.904805 -0.046406 0.423289
vn 0.904805 -0.046406 0.423289
vn 0.974493 -0.065676 0.214593
vn 0.965802 -0.185309 0.181347
vn 0.904805 -0.046406 0.423289
vn 0.911089 0.354952 0.209586
vn 0.854759 0.481107 -0.194741
vn 0.929657 0.361358 -0.071817
vn 0.911089 0.354952 0.209586
vn -0.872724 -0.420102 0.248732
vn -0.917004 -0.396216 0.046005
vn -0.928232 -0.344405 0.140611
vn -0.872724 -0.420102 0.248732
vn 0.925648 -0.362715 0.107762
vn 0.878412 -0.477079 0.028073
vn 0.874007 -0.484748 0.033643
vn 0.925648 -0.362715 0.107762
vn 0.925648 -0.362715 0.107762
vn 0.943547 -0.323013 0.073363
vn 0.943913 -0.032315 0.328608
vn 0.925648 -0.362715 0.107762
vn 0.969994 0.238566 -0.046880
vn 0.943913 -0.032315 0.328608
vn 0.982162 0.179043 0.057459
vn 0.969994 0.238566 -0.046880
vn 0.854759 0.481107 -0.194741
vn 0.969994 0.238566 -0.046880
vn 0.999779 0.008219 0.019329
vn 0.854759 0.481107 -0.194741
vn 0.580119 0.035431 -0.813761
vn 0.819617 0.033250 -0.571946
vn 0.557451 -0.009588 -0.830154
vn 0.580119 0.035431 -0.813761
vn 0.876731 0.028245 -0.480151
vn 0.874144 0.047927 -0.483296
vn 0.849301 0.041009 -0.526314
vn 0.876731 0.028245 -0.480151
vn -0.965595 -0.087749 0.244800
vn -0.938449 -0.082853 0.335335
vn -0.939801 -0.077190 0.332891
vn -0.965595 -0.087749 0.244800
vn -0.965595 -0.087749 0.244800
vn -0.987584 -0.052025 0.148228
vn -0.938449 -0.082853 0.335335
vn -0.965595 -0.087749 0.244800
vn -0.764813 0.621626 -0.169240
vn -0.940984 0.316790 0.119135
vn -0.876539 0.480255 0.032158
vn -0.764813 0.621626 -0.169240
vn 0.825155 -0.440948 0.353106
vn 0.752800 -0.642950 0.141097
vn 0.878412 -0.477079 0.028073
vn 0.825155 -0.440948 0.353106
vn -0.984449 -0.150984 0.089800
vn -0.997101 0.016514 0.074282
vn -0.917004 -0.396216 0.046005
vn -0.984449 -0.150984 0.089800
vn -0.984449 -0.150984 0.089800
vn -0.919016 0.275065 0.282399
vn -0.986799 0.157958 0.035729
vn -0.984449 -0.150984 0.089800
vn -0.837971 0.544028 -0.042872
vn -0.949601 0.313351 0.008292
vn -0.919016 0.275065 0.282399
vn -0.837971 0.544028 -0.042872
vn -0.764813 0.621626 -0.169240
vn -0.949601 0.313351 0.008292
vn -0.837971 0.544028 -0.042872
vn -0.764813 0.621626 -0.169240
vn -0.872724 -0.420102 0.248732
vn -0.953071 -0.276988 0.122203
vn -0.917004 -0.396216 0.046005
vn -0.872724 -0.420102 0.248732
vn -0.069537 0.020070 -0.997377
vn -0.152905 -0.015314 -0.988122
vn -0.100031 -0.010409 -0.994930
vn -0.069537 0.020070 -0.997377
vn 0.904805 -0.046406 0.423289
vn 0.826067 -0.115422 0.551626
vn 0.974493 -0.065676 0.214593
vn 0.904805 -0.046406 0.423289
vn 0.911089 0.354952 0.209586
vn 0.819765 0.381698 -0.426956
vn 0.854759 0.481107 -0.194741
vn 0.911089 0.354952 0.209586
vn 0.849301 0.041009 -0.526314
vn 0.874144 0.047927 -0.483296
vn 0.819617 0.033250 -0.571946
vn 0.849301 0.041009 -0.526314
vn -0.965595 -0.087749 0.244800
vn -0.953071 -0.276988 0.122203
vn -0.987584 -0.052025 0.148228
vn -0.965595 -0.087749 0.244800
vn -0.764813 0.621626 -0.169240
vn -0.795933 0.600046 -0.080215
vn -0.940984 0.316790 0.119135
vn -0.764813 0.621626 -0.169240
vn 0.878412 -0.477079 0.028073
vn 0.925648 -0.362715 0.107762
vn 0.999819 0.012956 0.013934
vn 0.878412 -0.477079 0.028073
vn 0.999819 0.012956 0.013934
vn 0.904805 -0.046406 0.423289
vn 0.965802 -0.185309 0.181347
vn 0.999819 0.012956 0.013934
vn 0.965802 -0.185309 0.181347
vn 0.878412 -0.477079 0.028073
vn 0.999819 0.012956 0.013934
vn 0.965802 -0.185309 0.181347
vn -0.998820 -0.048558 0.000885
vn -0.917004 -0.396216 0.046005
vn -0.953071 -0.276988 0.122203
vn -0.998820 -0.048558 0.000885
vn -0.953071 -0.276988 0.122203
vn -0.965595 -0.087749 0.244800
vn -0.998820 -0.048558 0.000885
vn -0.953071 -0.276988 0.122203
vn -0.998820 -0.048558 0.000885
vn -0.984449 -0.150984 0.089800
vn -0.917004 -0.396216 0.046005
vn -0.998820 -0.048558 0.000885
vn 0.597281 0.271587 -0.754650
vn 0.557451 -0.009588 -0.830154
vn 0.819617 0.033250 -0.571946
vn 0.597281 0.271587 -0.754650
vn -0.100031 -0.010409 -0.994930
vn 0.370785 0.000388 -0.928719
vn 0.396902 -0.029899 -0.917374
vn -0.100031 -0.010409 -0.994930
# 288 vertex normals

g matMain
f 19/1/1 20/2/2 13/3/3
f 14/5/5 13/6/6 6/7/7
f 14/9/9 6/10/10 7/11/11
f 14/13/13 7/14/14 8/15/15
f 19/17/17 13/18/18 8/19/19
f 15/21/21 3/22/22 13/23/23
f 18/25/25 10/26/26 16/27/27
f 15/29/29 20/30/30 11/31/31
f 1/33/33 15/34/34 11/35/35
f 15/37/37 1/38/38 2/39/39
f 15/41/41 2/42/42 3/43/43
f 5/45/45 16/46/46 6/47/47
f 6/49/49 17/50/50 7/51/51
f 7/53/53 17/54/54 8/55/55
f 17/57/57 16/58/58 8/59/59
f 18/61/61 16/62/62 3/63/63
f 20/65/65 15/66/66 13/67/67
f 10/69/69 18/70/70 11/71/71
f 18/73/73 1/74/74 11/75/75
f 1/77/77 18/78/78 2/79/79
f 2/81/81 18/82/82 3/83/83
f 10/85/85 9/86/86 16/87/87
f 13/89/89 5/90/90 6/91/91
f 13/93/93 14/94/94 8/95/95
f 3/97/97 4/98/98 13/99/99
f 16/101/101 17/102/102 6/103/103
f 16/105/105 9/106/106 8/107/107
f 16/109/109 4/110/110 3/111/111
f 16/137/137 5/138/138 4/139/139
f 4/141/141 5/142/142 13/143/143
f 33/145/145 40/146/146 39/147/147
f 26/149/149 33/150/150 34/151/151
f 27/153/153 26/154/154 34/155/155
f 28/157/157 27/158/158 34/159/159
f 28/161/161 33/162/162 39/163/163
f 33/165/165 23/166/166 35/167/167
f 36/169/169 30/170/170 38/171/171
f 31/173/173 40/174/174 35/175/175
f 31/177/177 35/178/178 21/179/179
f 22/181/181 21/182/182 35/183/183
f 23/185/185 22/186/186 35/187/187
f 26/189/189 36/190/190 25/191/191
f 27/193/193 37/194/194 26/195/195
f 28/197/197 37/198/198 27/199/199
f 28/201/201 36/202/202 37/203/203
f 23/205/205 36/206/206 38/207/207
f 33/209/209 35/210/210 40/211/211
f 31/213/213 38/214/214 30/215/215
f 31/217/217 21/218/218 38/219/219
f 22/221/221 38/222/222 21/223/223
f 23/225/225 38/226/226 22/227/227
f 36/229/229 29/230/230 30/231/231
f 26/233/233 25/234/234 33/235/235
f 28/237/237 34/238/238 33/239/239
f 33/241/241 24/242/242 23/243/243
f 26/245/245 37/246/246 36/247/247
f 28/249/249 29/250/250 36/251/251
f 23/253/253 24/254/254 36/255/255
f 24/281/281 25/282/282 36/283/283
f 33/285/285 25/286/286 24/287/287
# 60 elements

g matWing
f 12/113/113 11/114/114 20/115/115
f 19/117/117 8/118/118 12/119/119
f 12/121/121 20/122/122 19/123/123
f 9/125/125 10/126/126 12/127/127
f 12/129/129 8/130/130 9/131/131
f 10/133/133 11/134/134 12/135/135
f 40/257/257 31/258/258 32/259/259
f 32/261/261 28/262/262 39/263/263
f 39/265/265 40/266/266 32/267/267
f 32/269/269 30/270/270 29/271/271
f 29/273/273 28/274/274 32/275/275
f 32/277/277 31/278/278 30/279/279
# 12 elements

