# This file uses centimeters as units for non-parametric coordinates.

mtllib legUL.mtl
g default
v -0.063102 -0.238274 0.041759
v -0.035370 -0.239152 0.062691
v -0.035624 -0.171365 0.068043
v -0.063982 -0.170491 0.048169
v 0.002823 -0.240218 0.066375
v 0.003789 -0.172460 0.072465
v -0.076197 -0.237620 -0.003756
v -0.076784 -0.169900 0.000919
v 0.040059 -0.241174 0.057099
v 0.042420 -0.173465 0.063478
v 0.064510 -0.243557 0.030181
v 0.068275 -0.174049 0.040432
v 0.070984 -0.241565 -0.014668
v 0.075498 -0.173996 -0.007990
v -0.008256 -0.238940 -0.085640
v -0.052926 -0.237793 -0.074658
v -0.051598 -0.170211 -0.071983
v -0.005255 -0.171416 -0.082613
v -0.071183 -0.237450 -0.050843
v -0.070847 -0.169812 -0.047664
v 0.059103 -0.240942 -0.060502
v 0.063954 -0.173437 -0.055550
v 0.037544 -0.240218 -0.081366
v 0.042008 -0.172729 -0.077459
v -0.033481 -0.007421 0.069412
v -0.060961 -0.006571 0.050247
v 0.004660 -0.008480 0.073605
v -0.073450 -0.005986 0.004561
v 0.042015 -0.009450 0.064824
v 0.066980 -0.010009 0.042471
v 0.073861 -0.009947 -0.004393
v -0.049242 -0.006268 -0.066027
v -0.004429 -0.007431 -0.076413
v -0.067813 -0.005889 -0.042456
v 0.062589 -0.009394 -0.050381
v 0.041310 -0.008702 -0.071530
v 0.002025 0.013537 0.001614
v -0.005394 -0.269226 -0.010469
v -0.041395 -0.258629 -0.007112
v -0.034848 -0.258955 0.015645
v -0.020983 -0.259394 0.025045
v -0.001886 -0.259928 0.026887
v 0.016732 -0.260406 0.022249
v 0.029065 -0.260669 0.010907
v 0.032195 -0.260601 -0.012568
v 0.026254 -0.260290 -0.035485
v 0.015475 -0.259927 -0.045917
v -0.007425 -0.259289 -0.048054
v -0.029761 -0.258715 -0.042563
v -0.038889 -0.258544 -0.030656
vt 0.645930 0.205920
vt 0.662470 0.206580
vt 0.662280 0.211050
vt 0.645720 0.210310
vt 0.646080 0.200860
vt 0.662610 0.201460
vt 0.662470 0.206580
vt 0.645930 0.205920
vt 0.645720 0.210310
vt 0.662280 0.211050
vt 0.661930 0.217390
vt 0.645260 0.216470
vt 0.646170 0.195800
vt 0.662690 0.196360
vt 0.662610 0.201460
vt 0.646080 0.200860
vt 0.646170 0.191380
vt 0.662690 0.191910
vt 0.662690 0.196360
vt 0.646170 0.195800
vt 0.646060 0.185120
vt 0.662610 0.185620
vt 0.662690 0.191910
vt 0.646170 0.191380
vt 0.646150 0.162790
vt 0.662710 0.163050
vt 0.662560 0.169200
vt 0.646020 0.168840
vt 0.646300 0.158850
vt 0.662890 0.159040
vt 0.662710 0.163050
vt 0.646150 0.162790
vt 0.646530 0.152660
vt 0.663240 0.152690
vt 0.662890 0.159040
vt 0.646300 0.158850
vt 0.645990 0.178870
vt 0.662520 0.179320
vt 0.662610 0.185620
vt 0.646060 0.185120
vt 0.645960 0.174910
vt 0.662490 0.175330
vt 0.662520 0.179320
vt 0.645990 0.178870
vt 0.646020 0.168840
vt 0.662560 0.169200
vt 0.662490 0.175330
vt 0.645960 0.174910
vt 0.662470 0.206580
vt 0.679130 0.206700
vt 0.678990 0.211110
vt 0.662280 0.211050
vt 0.662610 0.201460
vt 0.679250 0.201640
vt 0.679130 0.206700
vt 0.662470 0.206580
vt 0.662280 0.211050
vt 0.678990 0.211110
vt 0.678790 0.217320
vt 0.661930 0.217390
vt 0.662690 0.196360
vt 0.679300 0.196570
vt 0.679250 0.201640
vt 0.662610 0.201460
vt 0.662690 0.191910
vt 0.679300 0.192140
vt 0.679300 0.196570
vt 0.662690 0.196360
vt 0.662610 0.185620
vt 0.679250 0.185880
vt 0.679300 0.192140
vt 0.662690 0.191910
vt 0.662710 0.163050
vt 0.679370 0.163580
vt 0.679230 0.169620
vt 0.662560 0.169200
vt 0.662890 0.159040
vt 0.679570 0.159660
vt 0.679370 0.163580
vt 0.662710 0.163050
vt 0.663240 0.152690
vt 0.679990 0.153500
vt 0.679570 0.159660
vt 0.662890 0.159040
vt 0.662520 0.179320
vt 0.679150 0.179630
vt 0.679250 0.185880
vt 0.662610 0.185620
vt 0.662490 0.175330
vt 0.679140 0.175680
vt 0.679150 0.179630
vt 0.662520 0.179320
vt 0.662560 0.169200
vt 0.679230 0.169620
vt 0.679140 0.175680
vt 0.662490 0.175330
vt 0.678990 0.211110
vt 0.000000 1.000000
vt 0.679990 0.153500
vt 0.678990 0.211110
vt 0.679130 0.206700
vt 0.000000 1.000000
vt 0.000000 1.000000
vt 0.679130 0.206700
vt 0.679250 0.201640
vt 0.679300 0.196570
vt 0.000000 1.000000
vt 0.679250 0.201640
vt 0.679300 0.192140
vt 0.000000 1.000000
vt 0.679300 0.196570
vt 0.679250 0.185880
vt 0.000000 1.000000
vt 0.679300 0.192140
vt 0.679150 0.179630
vt 0.000000 1.000000
vt 0.679250 0.185880
vt 0.679150 0.179630
vt 0.679140 0.175680
vt 0.000000 1.000000
vt 0.679140 0.175680
vt 0.679230 0.169620
vt 0.000000 1.000000
vt 0.679230 0.169620
vt 0.679370 0.163580
vt 0.000000 1.000000
vt 0.000000 1.000000
vt 0.679370 0.163580
vt 0.679570 0.159660
vt 0.679570 0.159660
vt 0.679990 0.153500
vt 0.000000 1.000000
vt 0.322630 0.608240
vt 0.000000 1.000000
vt 0.322860 0.605150
vt 0.322860 0.605150
vt 0.000000 1.000000
vt 0.322960 0.602960
vt 0.322960 0.602960
vt 0.000000 1.000000
vt 0.323040 0.600430
vt 0.323040 0.600430
vt 0.000000 1.000000
vt 0.323090 0.597900
vt 0.323090 0.597900
vt 0.000000 1.000000
vt 0.323090 0.595690
vt 0.323090 0.595690
vt 0.000000 1.000000
vt 0.323030 0.592560
vt 0.323030 0.592560
vt 0.000000 1.000000
vt 0.323000 0.589430
vt 0.323000 0.589430
vt 0.000000 1.000000
vt 0.322980 0.587460
vt 0.322980 0.587460
vt 0.000000 1.000000
vt 0.323010 0.584420
vt 0.323010 0.584420
vt 0.000000 1.000000
vt 0.323080 0.581390
vt 0.000000 1.000000
vt 0.322630 0.608240
vt 0.323150 0.579430
vt 0.323080 0.581390
vt 0.000000 1.000000
vt 0.323150 0.579430
vt 0.646300 0.158850
vt 0.646150 0.162790
vt 0.323080 0.581390
vt 0.323150 0.579430
vt 0.646300 0.158850
vt 0.323150 0.579430
vt 0.322630 0.608240
vt 0.645260 0.216470
vt 0.645720 0.210310
vt 0.645260 0.216470
vt 0.322630 0.608240
vt 0.322860 0.605150
vt 0.322860 0.605150
vt 0.322960 0.602960
vt 0.645930 0.205920
vt 0.645720 0.210310
vt 0.322960 0.602960
vt 0.323040 0.600430
vt 0.646080 0.200860
vt 0.645930 0.205920
vt 0.646170 0.195800
vt 0.646080 0.200860
vt 0.323040 0.600430
vt 0.323090 0.597900
vt 0.323090 0.597900
vt 0.323090 0.595690
vt 0.646170 0.191380
vt 0.646170 0.195800
vt 0.646060 0.185120
vt 0.646170 0.191380
vt 0.323090 0.595690
vt 0.323030 0.592560
vt 0.323030 0.592560
vt 0.323000 0.589430
vt 0.645990 0.178870
vt 0.646060 0.185120
vt 0.645960 0.174910
vt 0.645990 0.178870
vt 0.323000 0.589430
vt 0.322980 0.587460
vt 0.646020 0.168840
vt 0.645960 0.174910
vt 0.322980 0.587460
vt 0.323010 0.584420
vt 0.646150 0.162790
vt 0.646020 0.168840
vt 0.323010 0.584420
vt 0.323080 0.581390
vn -0.380046 -0.399540 0.834226
vn -0.356190 -0.042441 0.933449
vn -0.819725 -0.024563 0.572230
vn -0.725338 -0.388284 0.568436
vn 0.021483 -0.404680 0.914206
vn 0.061449 -0.048828 0.996915
vn -0.356190 -0.042441 0.933449
vn -0.293781 -0.403624 0.866476
vn -0.799621 -0.374248 0.469622
vn -0.819725 -0.024563 0.572230
vn -0.997119 0.002335 0.075813
vn -0.862397 -0.501879 0.066255
vn 0.390309 -0.426835 0.815764
vn 0.471350 -0.057732 0.880055
vn 0.061449 -0.048828 0.996915
vn 0.080071 -0.407571 0.909656
vn 0.771491 -0.435864 0.463492
vn 0.885060 -0.050751 0.462701
vn 0.471350 -0.057732 0.880055
vn 0.462621 -0.433487 0.773350
vn 0.996691 -0.063031 -0.051331
vn 0.998473 -0.026043 -0.048716
vn 0.885060 -0.050751 0.462701
vn 0.887309 -0.102052 0.449743
vn -0.539415 0.044961 -0.840839
vn -0.536725 0.041628 -0.842730
vn -0.061669 0.042782 -0.997179
vn -0.064848 0.047557 -0.996761
vn -0.925478 0.021402 -0.378196
vn -0.924128 0.025376 -0.381239
vn -0.536725 0.041628 -0.842730
vn -0.539415 0.044961 -0.840839
vn -0.941685 -0.334489 0.036683
vn -0.997119 0.002335 0.075813
vn -0.924128 0.025376 -0.381239
vn -0.897701 -0.316283 -0.306753
vn 0.867354 -0.024881 -0.497070
vn 0.869493 -0.001121 -0.493944
vn 0.998473 -0.026043 -0.048716
vn 0.996691 -0.063031 -0.051331
vn 0.425465 0.023157 -0.904679
vn 0.428449 0.028820 -0.903106
vn 0.869493 -0.001121 -0.493944
vn 0.867354 -0.024881 -0.497070
vn -0.064848 0.047557 -0.996761
vn -0.061669 0.042782 -0.997179
vn 0.428449 0.028820 -0.903106
vn 0.425465 0.023157 -0.904679
vn -0.356190 -0.042441 0.933449
vn -0.352706 -0.003194 0.935729
vn -0.817728 0.007718 0.575553
vn -0.819725 -0.024563 0.572230
vn 0.061449 -0.048828 0.996915
vn 0.059332 -0.007256 0.998212
vn -0.352706 -0.003194 0.935729
vn -0.356190 -0.042441 0.933449
vn -0.819725 -0.024563 0.572230
vn -0.817728 0.007718 0.575553
vn -0.997181 0.018660 0.072676
vn -0.997119 0.002335 0.075813
vn 0.471350 -0.057732 0.880055
vn 0.461151 -0.006171 0.887300
vn 0.059332 -0.007256 0.998212
vn 0.061449 -0.048828 0.996915
vn 0.885060 -0.050751 0.462701
vn 0.880283 0.001100 0.474448
vn 0.461151 -0.006171 0.887300
vn 0.471350 -0.057732 0.880055
vn 0.998473 -0.026043 -0.048716
vn 0.998880 0.010964 -0.046036
vn 0.880283 0.001100 0.474448
vn 0.885060 -0.050751 0.462701
vn -0.536725 0.041628 -0.842730
vn -0.534022 0.038293 -0.844603
vn -0.058489 0.038006 -0.997564
vn -0.061669 0.042782 -0.997179
vn -0.924128 0.025376 -0.381239
vn -0.922754 0.029348 -0.384270
vn -0.534022 0.038293 -0.844603
vn -0.536725 0.041628 -0.842730
vn -0.997119 0.002335 0.075813
vn -0.997181 0.018660 0.072676
vn -0.922754 0.029348 -0.384270
vn -0.924128 0.025376 -0.381239
vn 0.869493 -0.001121 -0.493944
vn 0.871129 0.022634 -0.490533
vn 0.998880 0.010964 -0.046036
vn 0.998473 -0.026043 -0.048716
vn 0.428449 0.028820 -0.903106
vn 0.431415 0.034479 -0.901494
vn 0.871129 0.022634 -0.490533
vn 0.869493 -0.001121 -0.493944
vn -0.061669 0.042782 -0.997179
vn -0.058489 0.038006 -0.997564
vn 0.431415 0.034479 -0.901494
vn 0.428449 0.028820 -0.903106
vn -0.189432 0.969502 0.155506
vn 0.029975 0.999390 0.017910
vn -0.249397 0.968056 0.025870
vn -0.189432 0.969502 0.155506
vn -0.068196 0.962690 0.261871
vn 0.029975 0.999390 0.017910
vn 0.029975 0.999390 0.017910
vn -0.068196 0.962690 0.261871
vn 0.043480 0.955818 0.290727
vn 0.152575 0.955866 0.251079
vn 0.029975 0.999390 0.017910
vn 0.043480 0.955818 0.290727
vn 0.264191 0.955573 0.130701
vn 0.029975 0.999390 0.017910
vn 0.152575 0.955866 0.251079
vn 0.310110 0.950667 -0.008036
vn 0.029975 0.999390 0.017910
vn 0.264191 0.955573 0.130701
vn 0.258261 0.958361 -0.121842
vn 0.029975 0.999390 0.017910
vn 0.310110 0.950667 -0.008036
vn 0.258261 0.958361 -0.121842
vn 0.132822 0.965881 -0.222332
vn 0.029975 0.999390 0.017910
vn 0.132822 0.965881 -0.222332
vn 0.010237 0.965473 -0.260301
vn 0.029975 0.999390 0.017910
vn 0.010237 0.965473 -0.260301
vn -0.104676 0.973031 -0.205558
vn 0.029975 0.999390 0.017910
vn 0.029975 0.999390 0.017910
vn -0.104676 0.973031 -0.205558
vn -0.213324 0.972759 -0.090729
vn -0.213324 0.972759 -0.090729
vn -0.249397 0.968056 0.025870
vn 0.029975 0.999390 0.017910
vn -0.400472 -0.915918 0.026756
vn -0.028312 -0.999599 0.000607
vn -0.313887 -0.929330 0.194476
vn -0.313887 -0.929330 0.194476
vn -0.028312 -0.999599 0.000607
vn -0.145687 -0.936205 0.319837
vn -0.145687 -0.936205 0.319837
vn -0.028312 -0.999599 0.000607
vn 0.000279 -0.938257 0.345938
vn 0.000279 -0.938257 0.345938
vn -0.028312 -0.999599 0.000607
vn 0.132613 -0.946523 0.294122
vn 0.132613 -0.946523 0.294122
vn -0.028312 -0.999599 0.000607
vn 0.269684 -0.952570 0.140998
vn 0.269684 -0.952570 0.140998
vn -0.028312 -0.999599 0.000607
vn 0.330352 -0.943304 -0.032312
vn 0.330352 -0.943304 -0.032312
vn -0.028312 -0.999599 0.000607
vn 0.270985 -0.946452 -0.175489
vn 0.270985 -0.946452 -0.175489
vn -0.028312 -0.999599 0.000607
vn 0.110894 -0.943527 -0.312184
vn 0.110894 -0.943527 -0.312184
vn -0.028312 -0.999599 0.000607
vn -0.052288 -0.929083 -0.366156
vn -0.052288 -0.929083 -0.366156
vn -0.028312 -0.999599 0.000607
vn -0.210913 -0.932271 -0.293917
vn -0.028312 -0.999599 0.000607
vn -0.400472 -0.915918 0.026756
vn -0.357747 -0.924067 -0.134603
vn -0.210913 -0.932271 -0.293917
vn -0.028312 -0.999599 0.000607
vn -0.357747 -0.924067 -0.134603
vn -0.459698 -0.870771 -0.174456
vn -0.267817 -0.884074 -0.382998
vn -0.210913 -0.932271 -0.293917
vn -0.357747 -0.924067 -0.134603
vn -0.730316 -0.660009 -0.176145
vn -0.357747 -0.924067 -0.134603
vn -0.400472 -0.915918 0.026756
vn -0.862397 -0.501879 0.066255
vn -0.673984 -0.676831 0.296048
vn -0.746107 -0.653274 0.128677
vn -0.400472 -0.915918 0.026756
vn -0.313887 -0.929330 0.194476
vn -0.313887 -0.929330 0.194476
vn -0.145687 -0.936205 0.319837
vn -0.360266 -0.699163 0.617559
vn -0.526955 -0.688471 0.498323
vn -0.145687 -0.936205 0.319837
vn 0.000279 -0.938257 0.345938
vn -0.033309 -0.704508 0.708914
vn -0.177576 -0.703053 0.688610
vn 0.222514 -0.721729 0.655435
vn 0.093503 -0.708249 0.699743
vn 0.000279 -0.938257 0.345938
vn 0.132613 -0.946523 0.294122
vn 0.132613 -0.946523 0.294122
vn 0.269684 -0.952570 0.140998
vn 0.536105 -0.738182 0.409486
vn 0.398580 -0.729027 0.556465
vn 0.434258 -0.899773 -0.042766
vn 0.356139 -0.916624 0.181563
vn 0.269684 -0.952570 0.140998
vn 0.330352 -0.943304 -0.032312
vn 0.330352 -0.943304 -0.032312
vn 0.270985 -0.946452 -0.175489
vn 0.360679 -0.904848 -0.226187
vn 0.434258 -0.899773 -0.042766
vn 0.153762 -0.901152 -0.405317
vn 0.360679 -0.904848 -0.226187
vn 0.270985 -0.946452 -0.175489
vn 0.110894 -0.943527 -0.312184
vn -0.059093 -0.878407 -0.474246
vn 0.153762 -0.901152 -0.405317
vn 0.110894 -0.943527 -0.312184
vn -0.052288 -0.929083 -0.366156
vn -0.267817 -0.884074 -0.382998
vn -0.059093 -0.878407 -0.474246
vn -0.052288 -0.929083 -0.366156
vn -0.210913 -0.932271 -0.293917
s off
g mat5 legUL
usemtl initialShadingGroup
f 2/1/1 3/2/2 4/3/3 1/4/4
f 5/5/5 6/6/6 3/7/7 2/8/8
f 1/9/9 4/10/10 8/11/11 7/12/12
f 9/13/13 10/14/14 6/15/15 5/16/16
f 11/17/17 12/18/18 10/19/19 9/20/20
f 13/21/21 14/22/22 12/23/23 11/24/24
f 16/25/25 17/26/26 18/27/27 15/28/28
f 19/29/29 20/30/30 17/31/31 16/32/32
f 7/33/33 8/34/34 20/35/35 19/36/36
f 21/37/37 22/38/38 14/39/39 13/40/40
f 23/41/41 24/42/42 22/43/43 21/44/44
f 15/45/45 18/46/46 24/47/47 23/48/48
f 3/49/49 25/50/50 26/51/51 4/52/52
f 6/53/53 27/54/54 25/55/55 3/56/56
f 4/57/57 26/58/58 28/59/59 8/60/60
f 10/61/61 29/62/62 27/63/63 6/64/64
f 12/65/65 30/66/66 29/67/67 10/68/68
f 14/69/69 31/70/70 30/71/71 12/72/72
f 17/73/73 32/74/74 33/75/75 18/76/76
f 20/77/77 34/78/78 32/79/79 17/80/80
f 8/81/81 28/82/82 34/83/83 20/84/84
f 22/85/85 35/86/86 31/87/87 14/88/88
f 24/89/89 36/90/90 35/91/91 22/92/92
f 18/93/93 33/94/94 36/95/95 24/96/96
f 26/97/97 37/98/98 28/99/99
f 26/100/100 25/101/101 37/102/102
f 37/103/103 25/104/104 27/105/105
f 29/106/106 37/107/107 27/108/108
f 30/109/109 37/110/110 29/111/111
f 31/112/112 37/113/113 30/114/114
f 35/115/115 37/116/116 31/117/117
f 35/118/118 36/119/119 37/120/120
f 36/121/121 33/122/122 37/123/123
f 33/124/124 32/125/125 37/126/126
f 37/127/127 32/128/128 34/129/129
f 34/130/130 28/131/131 37/132/132
f 39/133/133 38/134/134 40/135/135
f 40/136/136 38/137/137 41/138/138
f 41/139/139 38/140/140 42/141/141
f 42/142/142 38/143/143 43/144/144
f 43/145/145 38/146/146 44/147/147
f 44/148/148 38/149/149 45/150/150
f 45/151/151 38/152/152 46/153/153
f 46/154/154 38/155/155 47/156/156
f 47/157/157 38/158/158 48/159/159
f 48/160/160 38/161/161 49/162/162
f 38/163/163 39/164/164 50/165/165
f 49/166/166 38/167/167 50/168/168
f 19/169/169 16/170/170 49/171/171 50/172/172
f 19/173/173 50/174/174 39/175/175 7/176/176
f 1/177/177 7/178/178 39/179/179 40/180/180
f 40/181/181 41/182/182 2/183/183 1/184/184
f 41/185/185 42/186/186 5/187/187 2/188/188
f 9/189/189 5/190/190 42/191/191 43/192/192
f 43/193/193 44/194/194 11/195/195 9/196/196
f 13/197/197 11/198/198 44/199/199 45/200/200
f 45/201/201 46/202/202 21/203/203 13/204/204
f 23/205/205 21/206/206 46/207/207 47/208/208
f 15/209/209 23/210/210 47/211/211 48/212/212
f 16/213/213 15/214/214 48/215/215 49/216/216
