# This file uses centimeters as units for non-parametric coordinates.

mtllib armDL.mtl
g default
v -0.156650 -0.000992 0.001318
v -0.094440 0.117518 0.001318
v 0.050362 0.166462 0.001318
v 0.244912 0.105787 0.001318
v 0.405035 -0.079019 0.001318
v 0.116419 -0.110314 0.001318
v 0.017534 -0.142224 0.001318
v -0.094440 -0.118211 0.001318
v -0.094440 -0.000992 0.117443
v 0.050362 -0.000992 0.149261
v 0.166157 0.004492 0.113935
v 0.405035 0.002331 0.081117
v 0.166157 0.004492 -0.111300
v -0.094440 -0.000992 -0.114805
v 0.050362 -0.000992 -0.146624
v -0.024038 0.115808 0.075289
v 0.469152 0.002331 0.001318
v 0.405035 0.002331 -0.078482
v 0.405035 0.093256 0.001318
v -0.024038 0.115808 -0.072655
v -0.055198 0.217733 0.041477
v -0.093420 0.218664 0.001318
v -0.014808 0.245233 0.001318
v -0.055198 0.217733 -0.038839
v -0.083314 0.282746 0.001318
v -1.738244 -0.000992 0.001318
v -1.800454 0.117518 0.001318
v -1.945256 0.166462 0.001318
v -2.139806 0.105787 0.001318
v -2.299929 -0.079019 0.001318
v -2.011313 -0.110314 0.001318
v -1.912428 -0.142224 0.001318
v -1.800454 -0.118211 0.001318
v -1.800454 -0.000992 0.117443
v -1.945256 -0.000992 0.149261
v -2.061051 0.004492 0.113935
v -2.299929 0.002331 0.081117
v -2.061051 0.004492 -0.111300
v -1.800454 -0.000992 -0.114805
v -1.945256 -0.000992 -0.146624
v -1.870856 0.115808 0.075289
v -2.364046 0.002331 0.001318
v -2.299929 0.002331 -0.078482
v -2.299929 0.093256 0.001318
v -1.870856 0.115808 -0.072655
v -1.839696 0.217733 0.041477
v -1.801474 0.218664 0.001318
v -1.880086 0.245233 0.001318
v -1.839696 0.217733 -0.038839
v -1.811580 0.282746 0.001318
vt 0.048400 0.574060
vt 0.048400 0.511770
vt 0.012150 0.511770
vt 0.058280 0.776010
vt 0.038140 0.713190
vt 0.030910 0.775110
vt 0.132780 0.511770
vt 0.200250 0.572180
vt 0.246140 0.511770
vt 0.161720 0.155400
vt 0.130610 0.091280
vt 0.115160 0.155400
vt 0.115160 0.155400
vt 0.062440 0.105070
vt 0.062440 0.155400
vt 0.062440 0.105070
vt 0.033150 0.155400
vt 0.062440 0.155400
vt 0.048400 0.449490
vt 0.012150 0.511770
vt 0.048400 0.511770
vt 0.132780 0.432420
vt 0.089430 0.472100
vt 0.132780 0.511770
vt 0.200250 0.451370
vt 0.132780 0.511770
vt 0.246140 0.511770
vt 0.132780 0.511770
vt 0.132780 0.591130
vt 0.200250 0.572180
vt 0.048400 0.511770
vt 0.048400 0.574060
vt 0.089430 0.551450
vt 0.161720 0.155400
vt 0.130610 0.219520
vt 0.185140 0.204210
vt 0.062440 0.205730
vt 0.115160 0.155400
vt 0.062440 0.155400
vt 0.062440 0.205730
vt 0.062440 0.155400
vt 0.033150 0.155400
vt 0.246140 0.511770
vt 0.339450 0.468970
vt 0.200250 0.451370
vt 0.246140 0.511770
vt 0.339450 0.554570
vt 0.339450 0.511770
vt 0.185140 0.106590
vt 0.297610 0.155400
vt 0.297610 0.120810
vt 0.185140 0.204210
vt 0.297610 0.155400
vt 0.161720 0.155400
vt 0.376810 0.511770
vt 0.339450 0.511770
vt 0.339450 0.554570
vt 0.297610 0.155400
vt 0.327790 0.155400
vt 0.297610 0.120810
vt 0.376810 0.511770
vt 0.339450 0.468970
vt 0.339450 0.511770
vt 0.297610 0.155400
vt 0.297610 0.189990
vt 0.327790 0.155400
vt 0.161720 0.155400
vt 0.185140 0.106590
vt 0.130610 0.091280
vt 0.115160 0.155400
vt 0.130610 0.091280
vt 0.062440 0.105070
vt 0.132780 0.432420
vt 0.048400 0.449490
vt 0.089430 0.472100
vt 0.200250 0.451370
vt 0.132780 0.432420
vt 0.132780 0.511770
vt 0.161720 0.155400
vt 0.115160 0.155400
vt 0.130610 0.219520
vt 0.062440 0.205730
vt 0.130610 0.219520
vt 0.115160 0.155400
vt 0.246140 0.511770
vt 0.339450 0.511770
vt 0.339450 0.468970
vt 0.246140 0.511770
vt 0.200250 0.572180
vt 0.339450 0.554570
vt 0.185140 0.106590
vt 0.161720 0.155400
vt 0.297610 0.155400
vt 0.185140 0.204210
vt 0.297610 0.189990
vt 0.297610 0.155400
vt 0.133900 0.825550
vt 0.058280 0.776010
vt 0.087210 0.749440
vt 0.089430 0.551450
vt 0.048400 0.574060
vt 0.132780 0.591130
vt 0.132780 0.511770
vt 0.089430 0.551450
vt 0.132780 0.591130
vt 0.133900 0.825550
vt 0.058280 0.776010
vt 0.080600 0.874510
vt 0.089430 0.472100
vt 0.048400 0.449490
vt 0.048400 0.511770
vt 0.030170 0.872850
vt 0.058280 0.776010
vt 0.030910 0.775110
vt 0.030170 0.872850
vt 0.058280 0.776010
vt 0.080600 0.874510
vt 0.058280 0.776010
vt 0.087210 0.749440
vt 0.038140 0.713190
vt 0.030910 0.775110
vt 0.038140 0.713190
vt 0.058280 0.776010
vt 0.038140 0.713190
vt 0.087210 0.749440
vt 0.058280 0.776010
vt 0.133900 0.825550
vt 0.080600 0.874510
vt 0.058280 0.776010
vt 0.133900 0.825550
vt 0.087210 0.749440
vt 0.058280 0.776010
vt 0.030170 0.872850
vt 0.080600 0.874510
vt 0.058280 0.776010
vt 0.030170 0.872850
vt 0.030910 0.775110
vt 0.058280 0.776010
vt 0.012150 0.511770
vt 0.048400 0.511770
vt 0.048400 0.574060
vt 0.030910 0.775110
vt 0.038140 0.713190
vt 0.058280 0.776010
vt 0.246140 0.511770
vt 0.200250 0.572180
vt 0.132780 0.511770
vt 0.115160 0.155400
vt 0.130610 0.091280
vt 0.161720 0.155400
vt 0.062440 0.155400
vt 0.062440 0.105070
vt 0.115160 0.155400
vt 0.062440 0.155400
vt 0.033150 0.155400
vt 0.062440 0.105070
vt 0.048400 0.511770
vt 0.012150 0.511770
vt 0.048400 0.449490
vt 0.132780 0.511770
vt 0.089430 0.472100
vt 0.132780 0.432420
vt 0.246140 0.511770
vt 0.132780 0.511770
vt 0.200250 0.451370
vt 0.200250 0.572180
vt 0.132780 0.591130
vt 0.132780 0.511770
vt 0.089430 0.551450
vt 0.048400 0.574060
vt 0.048400 0.511770
vt 0.185140 0.204210
vt 0.130610 0.219520
vt 0.161720 0.155400
vt 0.062440 0.155400
vt 0.115160 0.155400
vt 0.062440 0.205730
vt 0.033150 0.155400
vt 0.062440 0.155400
vt 0.062440 0.205730
vt 0.200250 0.451370
vt 0.339450 0.468970
vt 0.246140 0.511770
vt 0.339450 0.511770
vt 0.339450 0.554570
vt 0.246140 0.511770
vt 0.297610 0.120810
vt 0.297610 0.155400
vt 0.185140 0.106590
vt 0.161720 0.155400
vt 0.297610 0.155400
vt 0.185140 0.204210
vt 0.339450 0.554570
vt 0.339450 0.511770
vt 0.376810 0.511770
vt 0.297610 0.120810
vt 0.327790 0.155400
vt 0.297610 0.155400
vt 0.339450 0.511770
vt 0.339450 0.468970
vt 0.376810 0.511770
vt 0.327790 0.155400
vt 0.297610 0.189990
vt 0.297610 0.155400
vt 0.130610 0.091280
vt 0.185140 0.106590
vt 0.161720 0.155400
vt 0.062440 0.105070
vt 0.130610 0.091280
vt 0.115160 0.155400
vt 0.089430 0.472100
vt 0.048400 0.449490
vt 0.132780 0.432420
vt 0.132780 0.511770
vt 0.132780 0.432420
vt 0.200250 0.451370
vt 0.130610 0.219520
vt 0.115160 0.155400
vt 0.161720 0.155400
vt 0.115160 0.155400
vt 0.130610 0.219520
vt 0.062440 0.205730
vt 0.339450 0.468970
vt 0.339450 0.511770
vt 0.246140 0.511770
vt 0.339450 0.554570
vt 0.200250 0.572180
vt 0.246140 0.511770
vt 0.297610 0.155400
vt 0.161720 0.155400
vt 0.185140 0.106590
vt 0.297610 0.155400
vt 0.297610 0.189990
vt 0.185140 0.204210
vt 0.087210 0.749440
vt 0.058280 0.776010
vt 0.133900 0.825550
vt 0.132780 0.591130
vt 0.048400 0.574060
vt 0.089430 0.551450
vt 0.132780 0.591130
vt 0.089430 0.551450
vt 0.132780 0.511770
vt 0.080600 0.874510
vt 0.058280 0.776010
vt 0.133900 0.825550
vt 0.048400 0.511770
vt 0.048400 0.449490
vt 0.089430 0.472100
vt 0.030910 0.775110
vt 0.058280 0.776010
vt 0.030170 0.872850
vt 0.080600 0.874510
vt 0.058280 0.776010
vt 0.030170 0.872850
vt 0.038140 0.713190
vt 0.087210 0.749440
vt 0.058280 0.776010
vt 0.058280 0.776010
vt 0.038140 0.713190
vt 0.030910 0.775110
vt 0.058280 0.776010
vt 0.087210 0.749440
vt 0.038140 0.713190
vt 0.058280 0.776010
vt 0.080600 0.874510
vt 0.133900 0.825550
vt 0.058280 0.776010
vt 0.087210 0.749440
vt 0.133900 0.825550
vt 0.058280 0.776010
vt 0.080600 0.874510
vt 0.030170 0.872850
vt 0.058280 0.776010
vt 0.030910 0.775110
vt 0.030170 0.872850
vn -0.687544 0.286952 0.667040
vn -0.833219 0.324790 0.447502
vn -0.970412 0.168374 0.173061
vn -0.723208 0.042688 0.689310
vn -0.718384 0.113292 0.686359
vn -0.722340 0.060383 0.688897
vn 0.337541 0.558855 0.757461
vn 0.166979 0.669292 0.723993
vn 0.119705 0.673037 0.729857
vn 0.181660 -0.726897 0.662284
vn 0.105826 -0.731443 0.673640
vn -0.023040 -0.719720 0.693882
vn -0.023040 -0.719720 0.693882
vn -0.392771 -0.647953 0.652601
vn -0.511767 -0.604638 0.610333
vn -0.582129 -0.427736 0.691497
vn -0.969555 -0.172945 0.173358
vn -0.717379 -0.634095 0.288601
vn -0.687546 0.286941 -0.667042
vn -0.970411 0.168374 -0.173068
vn -0.833217 0.324791 -0.447504
vn 0.097015 0.590170 -0.801428
vn -0.003336 0.569182 -0.822205
vn 0.337539 0.558856 -0.757461
vn 0.166976 0.669294 -0.723992
vn 0.337539 0.558856 -0.757461
vn 0.119705 0.673041 -0.729854
vn 0.337541 0.558855 0.757461
vn 0.097014 0.590179 0.801422
vn 0.166979 0.669292 0.723993
vn -0.739606 0.260145 0.620732
vn -0.557717 0.499165 0.663163
vn -0.348341 0.465965 0.813348
vn 0.181657 -0.726898 -0.662284
vn 0.105820 -0.731442 -0.673643
vn 0.133581 -0.716387 -0.684796
vn -0.392771 -0.647948 -0.652606
vn -0.023042 -0.719716 -0.693886
vn -0.511765 -0.604634 -0.610340
vn -0.582127 -0.427732 -0.691501
vn -0.717379 -0.634093 -0.288608
vn -0.969554 -0.172945 -0.173366
vn 0.119705 0.673041 -0.729854
vn 0.294127 0.647078 -0.703405
vn 0.166976 0.669294 -0.723992
vn 0.119705 0.673037 0.729857
vn 0.294126 0.647075 0.703409
vn 0.391085 0.607090 0.691733
vn 0.133585 -0.716384 0.684799
vn 0.290880 -0.675940 0.677122
vn 0.397646 -0.642523 0.655012
vn 0.133581 -0.716387 -0.684796
vn 0.290881 -0.675944 -0.677118
vn 0.181657 -0.726898 -0.662284
vn 0.683133 0.481721 0.548884
vn 0.391085 0.607090 0.691733
vn 0.294126 0.647075 0.703409
vn 0.290880 -0.675940 0.677122
vn 0.664195 -0.523492 0.533668
vn 0.397646 -0.642523 0.655012
vn 0.683136 0.481722 -0.548880
vn 0.294127 0.647078 -0.703405
vn 0.391087 0.607093 -0.691729
vn 0.290881 -0.675944 -0.677118
vn 0.397648 -0.642527 -0.655008
vn 0.664197 -0.523494 -0.533663
vn 0.181660 -0.726897 0.662284
vn 0.133585 -0.716384 0.684799
vn 0.105826 -0.731443 0.673640
vn -0.023040 -0.719720 0.693882
vn 0.105826 -0.731443 0.673640
vn -0.392771 -0.647953 0.652601
vn 0.097015 0.590170 -0.801428
vn -0.557724 0.499152 -0.663167
vn -0.173784 0.483120 -0.858134
vn 0.166976 0.669294 -0.723992
vn 0.097015 0.590170 -0.801428
vn 0.337539 0.558856 -0.757461
vn 0.181657 -0.726898 -0.662284
vn -0.023042 -0.719716 -0.693886
vn 0.105820 -0.731442 -0.673643
vn -0.392771 -0.647948 -0.652606
vn 0.105820 -0.731442 -0.673643
vn -0.023042 -0.719716 -0.693886
vn 0.119705 0.673041 -0.729854
vn 0.391087 0.607093 -0.691729
vn 0.294127 0.647078 -0.703405
vn 0.119705 0.673037 0.729857
vn 0.166979 0.669292 0.723993
vn 0.294126 0.647075 0.703409
vn 0.133585 -0.716384 0.684799
vn 0.181660 -0.726897 0.662284
vn 0.290880 -0.675940 0.677122
vn 0.133581 -0.716387 -0.684796
vn 0.397648 -0.642527 -0.655008
vn 0.290881 -0.675944 -0.677118
vn 0.337539 0.558856 -0.757461
vn 0.438696 0.472182 -0.764585
vn 0.411407 0.504361 -0.759186
vn -0.173780 0.483117 0.858136
vn -0.557717 0.499165 0.663163
vn 0.097014 0.590179 0.801422
vn 0.337541 0.558855 0.757461
vn -0.003334 0.569184 0.822203
vn 0.097014 0.590179 0.801422
vn 0.337541 0.558855 0.757461
vn 0.438706 0.472183 0.764578
vn 0.203255 0.517365 0.831276
vn -0.348345 0.465961 -0.813349
vn -0.557724 0.499152 -0.663167
vn -0.739604 0.260147 -0.620733
vn -0.739606 0.260145 0.620732
vn -0.723208 0.042688 0.689310
vn -0.722340 0.060383 0.688897
vn -0.739604 0.260147 -0.620733
vn -0.723199 0.042695 -0.689319
vn -0.537204 0.358027 -0.763694
vn 0.438706 0.472183 0.764578
vn 0.411419 0.504376 0.759170
vn 0.325717 0.594823 0.734911
vn -0.722322 0.060382 -0.688916
vn -0.718367 0.113289 -0.686378
vn -0.723199 0.042695 -0.689319
vn 0.325708 0.594806 -0.734928
vn 0.411407 0.504361 -0.759186
vn 0.438696 0.472182 -0.764585
vn 0.337539 0.558856 -0.757461
vn 0.203257 0.517365 -0.831276
vn 0.438696 0.472182 -0.764585
vn 0.337541 0.558855 0.757461
vn 0.411419 0.504376 0.759170
vn 0.438706 0.472183 0.764578
vn -0.739606 0.260145 0.620732
vn -0.537195 0.358033 0.763698
vn -0.723208 0.042688 0.689310
vn -0.739604 0.260147 -0.620733
vn -0.722322 0.060382 -0.688916
vn -0.723199 0.042695 -0.689319
vn 0.970412 0.168374 0.173061
vn 0.833219 0.324790 0.447502
vn 0.687544 0.286952 0.667040
vn 0.722340 0.060383 0.688897
vn 0.718384 0.113292 0.686359
vn 0.723208 0.042688 0.689310
vn -0.119705 0.673037 0.729857
vn -0.166979 0.669292 0.723993
vn -0.337541 0.558855 0.757461
vn 0.023040 -0.719720 0.693882
vn -0.105826 -0.731443 0.673640
vn -0.181660 -0.726897 0.662284
vn 0.511767 -0.604638 0.610333
vn 0.392771 -0.647953 0.652601
vn 0.023040 -0.719720 0.693882
vn 0.717379 -0.634095 0.288601
vn 0.969555 -0.172945 0.173358
vn 0.582129 -0.427736 0.691497
vn 0.833217 0.324791 -0.447504
vn 0.970411 0.168374 -0.173068
vn 0.687546 0.286941 -0.667042
vn -0.337539 0.558856 -0.757461
vn 0.003336 0.569182 -0.822205
vn -0.097015 0.590170 -0.801428
vn -0.119705 0.673041 -0.729854
vn -0.337539 0.558856 -0.757461
vn -0.166976 0.669294 -0.723992
vn -0.166979 0.669292 0.723993
vn -0.097014 0.590179 0.801422
vn -0.337541 0.558855 0.757461
vn 0.348341 0.465965 0.813348
vn 0.557717 0.499165 0.663163
vn 0.739606 0.260145 0.620732
vn -0.133581 -0.716387 -0.684796
vn -0.105820 -0.731442 -0.673643
vn -0.181657 -0.726898 -0.662284
vn 0.511765 -0.604634 -0.610340
vn 0.023042 -0.719716 -0.693886
vn 0.392771 -0.647948 -0.652606
vn 0.969554 -0.172945 -0.173366
vn 0.717379 -0.634093 -0.288608
vn 0.582127 -0.427732 -0.691501
vn -0.166976 0.669294 -0.723992
vn -0.294127 0.647078 -0.703405
vn -0.119705 0.673041 -0.729854
vn -0.391085 0.607090 0.691733
vn -0.294126 0.647075 0.703409
vn -0.119705 0.673037 0.729857
vn -0.397646 -0.642523 0.655012
vn -0.290880 -0.675940 0.677122
vn -0.133585 -0.716384 0.684799
vn -0.181657 -0.726898 -0.662284
vn -0.290881 -0.675944 -0.677118
vn -0.133581 -0.716387 -0.684796
vn -0.294126 0.647075 0.703409
vn -0.391085 0.607090 0.691733
vn -0.683133 0.481721 0.548884
vn -0.397646 -0.642523 0.655012
vn -0.664195 -0.523492 0.533668
vn -0.290880 -0.675940 0.677122
vn -0.391087 0.607093 -0.691729
vn -0.294127 0.647078 -0.703405
vn -0.683136 0.481722 -0.548880
vn -0.664197 -0.523494 -0.533663
vn -0.397648 -0.642527 -0.655008
vn -0.290881 -0.675944 -0.677118
vn -0.105826 -0.731443 0.673640
vn -0.133585 -0.716384 0.684799
vn -0.181660 -0.726897 0.662284
vn 0.392771 -0.647953 0.652601
vn -0.105826 -0.731443 0.673640
vn 0.023040 -0.719720 0.693882
vn 0.173784 0.483120 -0.858134
vn 0.557724 0.499152 -0.663167
vn -0.097015 0.590170 -0.801428
vn -0.337539 0.558856 -0.757461
vn -0.097015 0.590170 -0.801428
vn -0.166976 0.669294 -0.723992
vn -0.105820 -0.731442 -0.673643
vn 0.023042 -0.719716 -0.693886
vn -0.181657 -0.726898 -0.662284
vn 0.023042 -0.719716 -0.693886
vn -0.105820 -0.731442 -0.673643
vn 0.392771 -0.647948 -0.652606
vn -0.294127 0.647078 -0.703405
vn -0.391087 0.607093 -0.691729
vn -0.119705 0.673041 -0.729854
vn -0.294126 0.647075 0.703409
vn -0.166979 0.669292 0.723993
vn -0.119705 0.673037 0.729857
vn -0.290880 -0.675940 0.677122
vn -0.181660 -0.726897 0.662284
vn -0.133585 -0.716384 0.684799
vn -0.290881 -0.675944 -0.677118
vn -0.397648 -0.642527 -0.655008
vn -0.133581 -0.716387 -0.684796
vn -0.411407 0.504361 -0.759186
vn -0.438696 0.472182 -0.764585
vn -0.337539 0.558856 -0.757461
vn -0.097014 0.590179 0.801422
vn 0.557717 0.499165 0.663163
vn 0.173780 0.483117 0.858136
vn -0.097014 0.590179 0.801422
vn 0.003334 0.569184 0.822203
vn -0.337541 0.558855 0.757461
vn -0.203255 0.517365 0.831276
vn -0.438706 0.472183 0.764578
vn -0.337541 0.558855 0.757461
vn 0.739604 0.260147 -0.620733
vn 0.557724 0.499152 -0.663167
vn 0.348345 0.465961 -0.813349
vn 0.722340 0.060383 0.688897
vn 0.723208 0.042688 0.689310
vn 0.739606 0.260145 0.620732
vn 0.537204 0.358027 -0.763694
vn 0.723199 0.042695 -0.689319
vn 0.739604 0.260147 -0.620733
vn -0.325717 0.594823 0.734911
vn -0.411419 0.504376 0.759170
vn -0.438706 0.472183 0.764578
vn 0.723199 0.042695 -0.689319
vn 0.718367 0.113289 -0.686378
vn 0.722322 0.060382 -0.688916
vn -0.438696 0.472182 -0.764585
vn -0.411407 0.504361 -0.759186
vn -0.325708 0.594806 -0.734928
vn -0.438696 0.472182 -0.764585
vn -0.203257 0.517365 -0.831276
vn -0.337539 0.558856 -0.757461
vn -0.438706 0.472183 0.764578
vn -0.411419 0.504376 0.759170
vn -0.337541 0.558855 0.757461
vn 0.723208 0.042688 0.689310
vn 0.537195 0.358033 0.763698
vn 0.739606 0.260145 0.620732
vn 0.723199 0.042695 -0.689319
vn 0.722322 0.060382 -0.688916
vn 0.739604 0.260147 -0.620733
s off
g armL_matMain armL
usemtl lambert16SG
f 9/1/1 2/2/2 1/3/3
f 21/4/4 25/5/5 22/6/6
f 3/7/7 11/8/8 4/9/9
f 6/10/10 10/11/11 7/12/12
f 7/13/13 9/14/14 8/15/15
f 9/16/16 1/17/17 8/18/18
f 14/19/19 1/20/20 2/21/21
f 15/22/22 20/23/23 3/24/24
f 13/25/25 3/26/26 4/27/27
f 3/28/28 10/29/29 11/30/30
f 2/31/31 9/32/32 16/33/33
f 6/34/34 15/35/35 13/36/36
f 14/37/37 7/38/38 8/39/39
f 14/40/40 8/41/41 1/42/42
f 4/43/43 18/44/44 13/45/45
f 4/46/46 12/47/47 19/48/48
f 11/49/49 5/50/50 12/51/51
f 13/52/52 5/53/53 6/54/54
f 17/55/55 19/56/56 12/57/57
f 5/58/58 17/59/59 12/60/60
f 17/61/61 18/62/62 19/63/63
f 5/64/64 18/65/65 17/66/66
f 6/67/67 11/68/68 10/69/69
f 7/70/70 10/71/71 9/72/72
f 15/73/73 14/74/74 20/75/75
f 13/76/76 15/77/77 3/78/78
f 6/79/79 7/80/80 15/81/81
f 14/82/82 15/83/83 7/84/84
f 4/85/85 19/86/86 18/87/87
f 4/88/88 11/89/89 12/90/90
f 11/91/91 6/92/92 5/93/93
f 13/94/94 18/95/95 5/96/96
f 3/97/97 24/98/98 23/99/99
f 16/100/100 9/101/101 10/102/102
f 3/103/103 16/104/104 10/105/105
f 3/106/106 21/107/107 16/108/108
f 20/109/109 14/110/110 2/111/111
f 2/112/112 21/113/113 22/114/114
f 2/115/115 24/116/116 20/117/117
f 21/118/118 23/119/119 25/120/120
f 22/121/121 25/122/122 24/123/123
f 25/124/124 23/125/125 24/126/126
f 3/127/127 20/128/128 24/129/129
f 3/130/130 23/131/131 21/132/132
f 2/133/133 16/134/134 21/135/135
f 2/136/136 22/137/137 24/138/138
f 26/139/139 27/140/140 34/141/141
f 47/142/142 50/143/143 46/144/144
f 29/145/145 36/146/146 28/147/147
f 32/148/148 35/149/149 31/150/150
f 33/151/151 34/152/152 32/153/153
f 33/154/154 26/155/155 34/156/156
f 27/157/157 26/158/158 39/159/159
f 28/160/160 45/161/161 40/162/162
f 29/163/163 28/164/164 38/165/165
f 36/166/166 35/167/167 28/168/168
f 41/169/169 34/170/170 27/171/171
f 38/172/172 40/173/173 31/174/174
f 33/175/175 32/176/176 39/177/177
f 26/178/178 33/179/179 39/180/180
f 38/181/181 43/182/182 29/183/183
f 44/184/184 37/185/185 29/186/186
f 37/187/187 30/188/188 36/189/189
f 31/190/190 30/191/191 38/192/192
f 37/193/193 44/194/194 42/195/195
f 37/196/196 42/197/197 30/198/198
f 44/199/199 43/200/200 42/201/201
f 42/202/202 43/203/203 30/204/204
f 35/205/205 36/206/206 31/207/207
f 34/208/208 35/209/209 32/210/210
f 45/211/211 39/212/212 40/213/213
f 28/214/214 40/215/215 38/216/216
f 40/217/217 32/218/218 31/219/219
f 32/220/220 40/221/221 39/222/222
f 43/223/223 44/224/224 29/225/225
f 37/226/226 36/227/227 29/228/228
f 30/229/229 31/230/230 36/231/231
f 30/232/232 43/233/233 38/234/234
f 48/235/235 49/236/236 28/237/237
f 35/238/238 34/239/239 41/240/240
f 35/241/241 41/242/242 28/243/243
f 41/244/244 46/245/245 28/246/246
f 27/247/247 39/248/248 45/249/249
f 47/250/250 46/251/251 27/252/252
f 45/253/253 49/254/254 27/255/255
f 50/256/256 48/257/257 46/258/258
f 49/259/259 50/260/260 47/261/261
f 49/262/262 48/263/263 50/264/264
f 49/265/265 45/266/266 28/267/267
f 46/268/268 48/269/269 28/270/270
f 46/271/271 41/272/272 27/273/273
f 49/274/274 47/275/275 27/276/276
