# This file uses centimeters as units for non-parametric coordinates.

mtllib legDL.mtl
g default
v -0.694802 0.058705 0.000664
v -0.694802 -0.009946 -0.120677
v -0.694802 -0.292302 -0.145788
v -0.694802 -0.495584 -0.113492
v -0.694802 -0.714193 0.052133
v -0.694802 -0.318222 0.117531
v -0.694802 -0.181729 0.151646
v -0.694802 -0.027166 0.125973
v -0.801669 -0.027166 0.000664
v -0.830949 -0.227043 0.000664
v -0.798441 -0.386878 -0.005202
v -0.768241 -0.735757 -0.007828
v -0.591164 -0.386878 -0.005202
v -0.587936 -0.027166 0.000664
v -0.558655 -0.227043 0.000664
v -0.775326 -0.108434 -0.116295
v -0.646083 -0.812699 -0.013524
v -0.621364 -0.734751 -0.007828
v -0.694802 -0.720441 -0.071370
v -0.614278 -0.108434 -0.116295
v -0.694802 -0.086092 -0.192854
v -0.653241 -0.849122 -0.016392
v -0.694687 -0.862504 -0.047716
v -0.740292 -0.809301 -0.009150
v -0.694687 -0.860366 0.030662
v -0.731699 -0.850443 -0.007644
v -0.694687 -0.917753 -0.013052
v -0.001162 0.058705 0.000664
v -0.001162 -0.009946 -0.120677
v -0.001162 -0.292302 -0.145788
v -0.001162 -0.495584 -0.113492
v -0.001162 -0.714193 0.052133
v -0.001162 -0.318222 0.117531
v -0.001162 -0.181729 0.151646
v -0.001162 -0.027166 0.125973
v 0.105705 -0.027166 0.000664
v 0.134985 -0.227043 0.000664
v 0.102477 -0.386878 -0.005202
v 0.072277 -0.735757 -0.007828
v -0.104800 -0.386878 -0.005202
v -0.108028 -0.027166 0.000664
v -0.137309 -0.227043 0.000664
v 0.079362 -0.108434 -0.116295
v -0.049881 -0.812699 -0.013524
v -0.074600 -0.734751 -0.007828
v -0.001162 -0.720441 -0.071370
v -0.081686 -0.108434 -0.116295
v -0.001162 -0.086092 -0.192854
v -0.042723 -0.849122 -0.016392
v -0.001277 -0.862504 -0.047716
v 0.044328 -0.809301 -0.009150
v -0.001277 -0.860366 0.030662
v 0.035735 -0.850443 -0.007644
v -0.001277 -0.917753 -0.013052
vt 0.071710 0.159280
vt 0.090130 0.159280
vt 0.094760 0.100950
vt 0.090130 0.159280
vt 0.110570 0.159280
vt 0.116560 0.115330
vt 0.220440 0.159280
vt 0.191270 0.102720
vt 0.165900 0.159280
vt 0.105390 0.511530
vt 0.118060 0.434110
vt 0.143550 0.511530
vt 0.062180 0.511530
vt 0.062180 0.450760
vt 0.105390 0.511530
vt 0.062180 0.511530
vt 0.038170 0.511530
vt 0.062180 0.450760
vt 0.090130 0.159280
vt 0.071710 0.159280
vt 0.094760 0.217600
vt 0.165900 0.159280
vt 0.116560 0.203230
vt 0.148390 0.233580
vt 0.220440 0.159280
vt 0.165900 0.159280
vt 0.191270 0.215840
vt 0.191270 0.102720
vt 0.148390 0.084970
vt 0.165900 0.159280
vt 0.116560 0.115330
vt 0.094760 0.100950
vt 0.090130 0.159280
vt 0.162750 0.570470
vt 0.118060 0.588960
vt 0.143550 0.511530
vt 0.062180 0.511530
vt 0.105390 0.511530
vt 0.062180 0.572310
vt 0.038170 0.511530
vt 0.062180 0.511530
vt 0.062180 0.572310
vt 0.191270 0.215840
vt 0.284610 0.199360
vt 0.220440 0.159280
vt 0.280770 0.159280
vt 0.284880 0.119200
vt 0.220440 0.159280
vt 0.260300 0.469770
vt 0.254270 0.511530
vt 0.162750 0.452590
vt 0.143550 0.511530
vt 0.254270 0.511530
vt 0.162750 0.570470
vt 0.297480 0.121850
vt 0.280770 0.159280
vt 0.321610 0.158940
vt 0.297480 0.121850
vt 0.284880 0.119200
vt 0.280770 0.159280
vt 0.273430 0.472530
vt 0.254270 0.511530
vt 0.260300 0.469770
vt 0.273430 0.472530
vt 0.281800 0.511180
vt 0.254270 0.511530
vt 0.118060 0.434110
vt 0.162750 0.452590
vt 0.143550 0.511530
vt 0.062180 0.450760
vt 0.118060 0.434110
vt 0.105390 0.511530
vt 0.116560 0.203230
vt 0.094760 0.217600
vt 0.148390 0.233580
vt 0.165900 0.159280
vt 0.148390 0.233580
vt 0.191270 0.215840
vt 0.118060 0.588960
vt 0.105390 0.511530
vt 0.143550 0.511530
vt 0.105390 0.511530
vt 0.118060 0.588960
vt 0.062180 0.572310
vt 0.284610 0.199360
vt 0.280770 0.159280
vt 0.220440 0.159280
vt 0.284880 0.119200
vt 0.191270 0.102720
vt 0.220440 0.159280
vt 0.254270 0.511530
vt 0.143550 0.511530
vt 0.162750 0.452590
vt 0.254270 0.511530
vt 0.260020 0.553300
vt 0.162750 0.570470
vt 0.148390 0.084970
vt 0.094760 0.100950
vt 0.116560 0.115330
vt 0.148390 0.084970
vt 0.116560 0.115330
vt 0.165900 0.159280
vt 0.090130 0.159280
vt 0.094760 0.217600
vt 0.116560 0.203230
vt 0.110570 0.159280
vt 0.165900 0.159280
vt 0.116560 0.115330
vt 0.116560 0.203230
vt 0.110570 0.159280
vt 0.090130 0.159280
vt 0.116560 0.203230
vt 0.165900 0.159280
vt 0.110570 0.159280
vt 0.321610 0.158940
vt 0.310890 0.115690
vt 0.297480 0.121850
vt 0.273430 0.472530
vt 0.287400 0.466120
vt 0.281800 0.511180
vt 0.281800 0.511180
vt 0.286850 0.557180
vt 0.274840 0.552370
vt 0.298840 0.198470
vt 0.310370 0.203090
vt 0.321610 0.158940
vt 0.310370 0.203090
vt 0.339990 0.203090
vt 0.321610 0.158940
vt 0.281800 0.511180
vt 0.303840 0.511810
vt 0.286850 0.557180
vt 0.274840 0.552370
vt 0.254270 0.511530
vt 0.281800 0.511180
vt 0.274840 0.552370
vt 0.260020 0.553300
vt 0.254270 0.511530
vt 0.298840 0.198470
vt 0.280770 0.159280
vt 0.284610 0.199360
vt 0.298840 0.198470
vt 0.321610 0.158940
vt 0.280770 0.159280
vt 0.340080 0.115690
vt 0.310890 0.115690
vt 0.321610 0.158940
vt 0.303840 0.511810
vt 0.281800 0.511180
vt 0.287400 0.466120
vt 0.094760 0.100950
vt 0.090130 0.159280
vt 0.071710 0.159280
vt 0.116560 0.115330
vt 0.110570 0.159280
vt 0.090130 0.159280
vt 0.165900 0.159280
vt 0.191270 0.102720
vt 0.220440 0.159280
vt 0.143550 0.511530
vt 0.118060 0.434110
vt 0.105390 0.511530
vt 0.105390 0.511530
vt 0.062180 0.450760
vt 0.062180 0.511530
vt 0.062180 0.450760
vt 0.038170 0.511530
vt 0.062180 0.511530
vt 0.094760 0.217600
vt 0.071710 0.159280
vt 0.090130 0.159280
vt 0.148390 0.233580
vt 0.116560 0.203230
vt 0.165900 0.159280
vt 0.191270 0.215840
vt 0.165900 0.159280
vt 0.220440 0.159280
vt 0.165900 0.159280
vt 0.148390 0.084970
vt 0.191270 0.102720
vt 0.090130 0.159280
vt 0.094760 0.100950
vt 0.116560 0.115330
vt 0.143550 0.511530
vt 0.118060 0.588960
vt 0.162750 0.570470
vt 0.062180 0.572310
vt 0.105390 0.511530
vt 0.062180 0.511530
vt 0.062180 0.572310
vt 0.062180 0.511530
vt 0.038170 0.511530
vt 0.220440 0.159280
vt 0.284610 0.199360
vt 0.191270 0.215840
vt 0.220440 0.159280
vt 0.284880 0.119200
vt 0.280770 0.159280
vt 0.162750 0.452590
vt 0.254270 0.511530
vt 0.260300 0.469770
vt 0.162750 0.570470
vt 0.254270 0.511530
vt 0.143550 0.511530
vt 0.321610 0.158940
vt 0.280770 0.159280
vt 0.297480 0.121850
vt 0.280770 0.159280
vt 0.284880 0.119200
vt 0.297480 0.121850
vt 0.260300 0.469770
vt 0.254270 0.511530
vt 0.273430 0.472530
vt 0.254270 0.511530
vt 0.281800 0.511180
vt 0.273430 0.472530
vt 0.143550 0.511530
vt 0.162750 0.452590
vt 0.118060 0.434110
vt 0.105390 0.511530
vt 0.118060 0.434110
vt 0.062180 0.450760
vt 0.148390 0.233580
vt 0.094760 0.217600
vt 0.116560 0.203230
vt 0.191270 0.215840
vt 0.148390 0.233580
vt 0.165900 0.159280
vt 0.143550 0.511530
vt 0.105390 0.511530
vt 0.118060 0.588960
vt 0.062180 0.572310
vt 0.118060 0.588960
vt 0.105390 0.511530
vt 0.220440 0.159280
vt 0.280770 0.159280
vt 0.284610 0.199360
vt 0.220440 0.159280
vt 0.191270 0.102720
vt 0.284880 0.119200
vt 0.162750 0.452590
vt 0.143550 0.511530
vt 0.254270 0.511530
vt 0.162750 0.570470
vt 0.260020 0.553300
vt 0.254270 0.511530
vt 0.116560 0.115330
vt 0.094760 0.100950
vt 0.148390 0.084970
vt 0.165900 0.159280
vt 0.116560 0.115330
vt 0.148390 0.084970
vt 0.116560 0.203230
vt 0.094760 0.217600
vt 0.090130 0.159280
vt 0.116560 0.115330
vt 0.165900 0.159280
vt 0.110570 0.159280
vt 0.090130 0.159280
vt 0.110570 0.159280
vt 0.116560 0.203230
vt 0.110570 0.159280
vt 0.165900 0.159280
vt 0.116560 0.203230
vt 0.297480 0.121850
vt 0.310890 0.115690
vt 0.321610 0.158940
vt 0.281800 0.511180
vt 0.287400 0.466120
vt 0.273430 0.472530
vt 0.274840 0.552370
vt 0.286850 0.557180
vt 0.281800 0.511180
vt 0.321610 0.158940
vt 0.310370 0.203090
vt 0.298840 0.198470
vt 0.321610 0.158940
vt 0.339990 0.203090
vt 0.310370 0.203090
vt 0.286850 0.557180
vt 0.303840 0.511810
vt 0.281800 0.511180
vt 0.281800 0.511180
vt 0.254270 0.511530
vt 0.274840 0.552370
vt 0.254270 0.511530
vt 0.260020 0.553300
vt 0.274840 0.552370
vt 0.284610 0.199360
vt 0.280770 0.159280
vt 0.298840 0.198470
vt 0.280770 0.159280
vt 0.321610 0.158940
vt 0.298840 0.198470
vt 0.321610 0.158940
vt 0.310890 0.115690
vt 0.340080 0.115690
vt 0.287400 0.466120
vt 0.281800 0.511180
vt 0.303840 0.511810
vn -0.625929 0.778972 0.037617
vn -0.640274 0.589745 -0.492189
vn -0.779660 0.587858 -0.215762
vn -0.640274 0.589745 -0.492189
vn -0.703631 0.186130 -0.685755
vn -0.794741 0.167103 -0.583493
vn -0.718971 -0.101599 -0.687575
vn -0.757786 -0.096865 -0.645273
vn -0.737177 -0.159515 -0.656601
vn -0.745664 0.015408 0.666144
vn -0.728196 -0.077373 0.680987
vn -0.712831 -0.150825 0.684926
vn -0.690735 0.419372 0.589078
vn -0.859013 0.298221 0.416126
vn -0.745664 0.015408 0.666144
vn -0.690735 0.419372 0.589078
vn -0.625929 0.778972 0.037617
vn -0.780178 0.478939 0.402416
vn 0.640276 0.589745 -0.492187
vn 0.625932 0.778970 0.037617
vn 0.779661 0.587857 -0.215760
vn 0.737178 -0.159516 -0.656600
vn 0.794742 0.167104 -0.583491
vn 0.842605 -0.078484 -0.532782
vn 0.719351 -0.101594 -0.687178
vn 0.737178 -0.159516 -0.656600
vn 0.757813 -0.096927 -0.645233
vn -0.757786 -0.096865 -0.645273
vn -0.842604 -0.078484 -0.532784
vn -0.737177 -0.159515 -0.656601
vn -0.794741 0.167103 -0.583493
vn -0.764074 0.481461 -0.429401
vn -0.640274 0.589745 -0.492189
vn 0.686594 -0.113764 0.718085
vn 0.728197 -0.077373 0.680986
vn 0.712832 -0.150826 0.684924
vn 0.690738 0.419371 0.589075
vn 0.745665 0.015409 0.666143
vn 0.859014 0.298222 0.416124
vn 0.625932 0.778970 0.037617
vn 0.690738 0.419371 0.589075
vn 0.780180 0.478938 0.402415
vn 0.757813 -0.096927 -0.645233
vn 0.673535 -0.116227 -0.729961
vn 0.719351 -0.101594 -0.687178
vn -0.654581 -0.159412 -0.738993
vn -0.667761 -0.141350 -0.730832
vn -0.718971 -0.101599 -0.687575
vn -0.599479 -0.146412 0.786885
vn -0.663164 -0.127033 0.737615
vn -0.686455 -0.113695 0.718229
vn 0.712832 -0.150826 0.684924
vn 0.664589 -0.128424 0.736090
vn 0.686594 -0.113764 0.718085
vn -0.695129 -0.171950 -0.698018
vn -0.654581 -0.159412 -0.738993
vn -0.738951 -0.219502 -0.637001
vn -0.695129 -0.171950 -0.698018
vn -0.667761 -0.141350 -0.730832
vn -0.654581 -0.159412 -0.738993
vn -0.676793 -0.154744 0.719726
vn -0.663164 -0.127033 0.737615
vn -0.599479 -0.146412 0.786885
vn -0.676793 -0.154744 0.719726
vn -0.725353 -0.223282 0.651159
vn -0.663164 -0.127033 0.737615
vn -0.728196 -0.077373 0.680987
vn -0.686455 -0.113695 0.718229
vn -0.712831 -0.150825 0.684926
vn -0.859013 0.298221 0.416126
vn -0.874964 -0.025937 0.483492
vn -0.745664 0.015408 0.666144
vn 0.794742 0.167104 -0.583491
vn 0.918032 0.396201 0.015569
vn 0.961769 -0.035455 -0.271559
vn 0.737178 -0.159516 -0.656600
vn 0.842605 -0.078484 -0.532782
vn 0.757813 -0.096927 -0.645233
vn 0.728197 -0.077373 0.680986
vn 0.745665 0.015409 0.666143
vn 0.712832 -0.150826 0.684924
vn 0.745665 0.015409 0.666143
vn 0.874964 -0.025936 0.483492
vn 0.859014 0.298222 0.416124
vn 0.673535 -0.116227 -0.729961
vn 0.638577 -0.137067 -0.757253
vn 0.719351 -0.101594 -0.687178
vn -0.667761 -0.141350 -0.730832
vn -0.757786 -0.096865 -0.645273
vn -0.718971 -0.101599 -0.687575
vn -0.663164 -0.127033 0.737615
vn -0.712831 -0.150825 0.684926
vn -0.686455 -0.113695 0.718229
vn 0.664589 -0.128424 0.736090
vn 0.599742 -0.150072 0.785995
vn 0.686594 -0.113764 0.718085
vn -0.961768 -0.035456 -0.271560
vn -0.918032 0.396200 0.015568
vn -0.794741 0.167103 -0.583493
vn -0.842604 -0.078484 -0.532784
vn -0.794741 0.167103 -0.583493
vn -0.737177 -0.159515 -0.656601
vn 0.640276 0.589745 -0.492187
vn 0.764076 0.481462 -0.429397
vn 0.794742 0.167104 -0.583491
vn -0.703631 0.186130 -0.685755
vn -0.737177 -0.159515 -0.656601
vn -0.794741 0.167103 -0.583493
vn 0.794742 0.167104 -0.583491
vn 0.703631 0.186130 -0.685755
vn 0.640276 0.589745 -0.492187
vn 0.794742 0.167104 -0.583491
vn 0.737178 -0.159516 -0.656600
vn 0.703631 0.186130 -0.685755
vn -0.738951 -0.219502 -0.637001
vn -0.746410 -0.270750 -0.607920
vn -0.695129 -0.171950 -0.698018
vn -0.676793 -0.154744 0.719726
vn -0.725307 -0.283377 0.627397
vn -0.725353 -0.223282 0.651159
vn 0.744332 -0.239955 0.623211
vn 0.749206 -0.308180 0.586272
vn 0.689247 -0.180322 0.701728
vn 0.633202 -0.109120 -0.766256
vn 0.633453 -0.239948 -0.735638
vn 0.640962 -0.201115 -0.740757
vn 0.633453 -0.239948 -0.735638
vn 0.630266 -0.412621 -0.657654
vn 0.640962 -0.201115 -0.740757
vn 0.744332 -0.239955 0.623211
vn 0.729811 -0.414264 0.543839
vn 0.749206 -0.308180 0.586272
vn 0.689247 -0.180322 0.701728
vn 0.664589 -0.128424 0.736090
vn 0.744332 -0.239955 0.623211
vn 0.689247 -0.180322 0.701728
vn 0.599742 -0.150072 0.785995
vn 0.664589 -0.128424 0.736090
vn 0.633202 -0.109120 -0.766256
vn 0.638577 -0.137067 -0.757253
vn 0.673535 -0.116227 -0.729961
vn 0.633202 -0.109120 -0.766256
vn 0.640962 -0.201115 -0.740757
vn 0.638577 -0.137067 -0.757253
vn -0.736966 -0.359236 -0.572565
vn -0.746410 -0.270750 -0.607920
vn -0.738951 -0.219502 -0.637001
vn -0.702021 -0.431539 0.566517
vn -0.725353 -0.223282 0.651159
vn -0.725307 -0.283377 0.627397
vn 0.779660 0.587858 -0.215762
vn 0.640274 0.589745 -0.492189
vn 0.625929 0.778972 0.037617
vn 0.794741 0.167103 -0.583493
vn 0.703631 0.186130 -0.685755
vn 0.640274 0.589745 -0.492189
vn 0.737177 -0.159515 -0.656601
vn 0.757786 -0.096865 -0.645273
vn 0.718971 -0.101599 -0.687575
vn 0.712831 -0.150825 0.684926
vn 0.728196 -0.077373 0.680987
vn 0.745664 0.015408 0.666144
vn 0.745664 0.015408 0.666144
vn 0.859013 0.298221 0.416126
vn 0.690735 0.419372 0.589078
vn 0.780178 0.478939 0.402416
vn 0.625929 0.778972 0.037617
vn 0.690735 0.419372 0.589078
vn -0.779661 0.587857 -0.215760
vn -0.625932 0.778970 0.037617
vn -0.640276 0.589745 -0.492187
vn -0.842605 -0.078484 -0.532782
vn -0.794742 0.167104 -0.583491
vn -0.737178 -0.159516 -0.656600
vn -0.757813 -0.096927 -0.645233
vn -0.737178 -0.159516 -0.656600
vn -0.719351 -0.101594 -0.687178
vn 0.737177 -0.159515 -0.656601
vn 0.842604 -0.078484 -0.532784
vn 0.757786 -0.096865 -0.645273
vn 0.640274 0.589745 -0.492189
vn 0.764074 0.481461 -0.429401
vn 0.794741 0.167103 -0.583493
vn -0.712832 -0.150826 0.684924
vn -0.728197 -0.077373 0.680986
vn -0.686594 -0.113764 0.718085
vn -0.859014 0.298222 0.416124
vn -0.745665 0.015409 0.666143
vn -0.690738 0.419371 0.589075
vn -0.780180 0.478938 0.402415
vn -0.690738 0.419371 0.589075
vn -0.625932 0.778970 0.037617
vn -0.719351 -0.101594 -0.687178
vn -0.673535 -0.116227 -0.729961
vn -0.757813 -0.096927 -0.645233
vn 0.718971 -0.101599 -0.687575
vn 0.667761 -0.141350 -0.730832
vn 0.654581 -0.159412 -0.738993
vn 0.686455 -0.113695 0.718229
vn 0.663164 -0.127033 0.737615
vn 0.599479 -0.146412 0.786885
vn -0.686594 -0.113764 0.718085
vn -0.664589 -0.128424 0.736090
vn -0.712832 -0.150826 0.684924
vn 0.738951 -0.219502 -0.637001
vn 0.654581 -0.159412 -0.738993
vn 0.695129 -0.171950 -0.698018
vn 0.654581 -0.159412 -0.738993
vn 0.667761 -0.141350 -0.730832
vn 0.695129 -0.171950 -0.698018
vn 0.599479 -0.146412 0.786885
vn 0.663164 -0.127033 0.737615
vn 0.676793 -0.154744 0.719726
vn 0.663164 -0.127033 0.737615
vn 0.725353 -0.223282 0.651159
vn 0.676793 -0.154744 0.719726
vn 0.712831 -0.150825 0.684926
vn 0.686455 -0.113695 0.718229
vn 0.728196 -0.077373 0.680987
vn 0.745664 0.015408 0.666144
vn 0.874964 -0.025937 0.483492
vn 0.859013 0.298221 0.416126
vn -0.961769 -0.035455 -0.271559
vn -0.918032 0.396201 0.015569
vn -0.794742 0.167104 -0.583491
vn -0.757813 -0.096927 -0.645233
vn -0.842605 -0.078484 -0.532782
vn -0.737178 -0.159516 -0.656600
vn -0.712832 -0.150826 0.684924
vn -0.745665 0.015409 0.666143
vn -0.728197 -0.077373 0.680986
vn -0.859014 0.298222 0.416124
vn -0.874964 -0.025936 0.483492
vn -0.745665 0.015409 0.666143
vn -0.719351 -0.101594 -0.687178
vn -0.638577 -0.137067 -0.757253
vn -0.673535 -0.116227 -0.729961
vn 0.718971 -0.101599 -0.687575
vn 0.757786 -0.096865 -0.645273
vn 0.667761 -0.141350 -0.730832
vn 0.686455 -0.113695 0.718229
vn 0.712831 -0.150825 0.684926
vn 0.663164 -0.127033 0.737615
vn -0.686594 -0.113764 0.718085
vn -0.599742 -0.150072 0.785995
vn -0.664589 -0.128424 0.736090
vn 0.794741 0.167103 -0.583493
vn 0.918032 0.396200 0.015568
vn 0.961768 -0.035456 -0.271560
vn 0.737177 -0.159515 -0.656601
vn 0.794741 0.167103 -0.583493
vn 0.842604 -0.078484 -0.532784
vn -0.794742 0.167104 -0.583491
vn -0.764076 0.481462 -0.429397
vn -0.640276 0.589745 -0.492187
vn 0.794741 0.167103 -0.583493
vn 0.737177 -0.159515 -0.656601
vn 0.703631 0.186130 -0.685755
vn -0.640276 0.589745 -0.492187
vn -0.703631 0.186130 -0.685755
vn -0.794742 0.167104 -0.583491
vn -0.703631 0.186130 -0.685755
vn -0.737178 -0.159516 -0.656600
vn -0.794742 0.167104 -0.583491
vn 0.695129 -0.171950 -0.698018
vn 0.746410 -0.270750 -0.607920
vn 0.738951 -0.219502 -0.637001
vn 0.725353 -0.223282 0.651159
vn 0.725307 -0.283377 0.627397
vn 0.676793 -0.154744 0.719726
vn -0.689247 -0.180322 0.701728
vn -0.749206 -0.308180 0.586272
vn -0.744332 -0.239955 0.623211
vn -0.640962 -0.201115 -0.740757
vn -0.633453 -0.239948 -0.735638
vn -0.633202 -0.109120 -0.766256
vn -0.640962 -0.201115 -0.740757
vn -0.630266 -0.412621 -0.657654
vn -0.633453 -0.239948 -0.735638
vn -0.749206 -0.308180 0.586272
vn -0.729811 -0.414264 0.543839
vn -0.744332 -0.239955 0.623211
vn -0.744332 -0.239955 0.623211
vn -0.664589 -0.128424 0.736090
vn -0.689247 -0.180322 0.701728
vn -0.664589 -0.128424 0.736090
vn -0.599742 -0.150072 0.785995
vn -0.689247 -0.180322 0.701728
vn -0.673535 -0.116227 -0.729961
vn -0.638577 -0.137067 -0.757253
vn -0.633202 -0.109120 -0.766256
vn -0.638577 -0.137067 -0.757253
vn -0.640962 -0.201115 -0.740757
vn -0.633202 -0.109120 -0.766256
vn 0.738951 -0.219502 -0.637001
vn 0.746410 -0.270750 -0.607920
vn 0.736966 -0.359236 -0.572565
vn 0.725307 -0.283377 0.627397
vn 0.725353 -0.223282 0.651159
vn 0.702021 -0.431539 0.566517
s off
g legL_matMain legL
usemtl lambert20SG
f 1/1/1 2/2/2 9/3/3
f 2/4/4 21/5/5 16/6/6
f 4/7/7 11/8/8 3/9/9
f 7/10/10 10/11/11 6/12/12
f 8/13/13 9/14/14 7/15/15
f 8/16/16 1/17/17 9/18/18
f 2/19/19 1/20/20 14/21/21
f 3/22/22 20/23/23 15/24/24
f 4/25/25 3/26/26 13/27/27
f 11/28/28 10/29/29 3/30/30
f 16/31/31 9/32/32 2/33/33
f 13/34/34 15/35/35 6/36/36
f 8/37/37 7/38/38 14/39/39
f 1/40/40 8/41/41 14/42/42
f 13/43/43 18/44/44 4/45/45
f 19/46/46 12/47/47 4/48/48
f 12/49/49 5/50/50 11/51/51
f 6/52/52 5/53/53 13/54/54
f 24/55/55 19/56/56 23/57/57
f 24/58/58 12/59/59 19/60/60
f 24/61/61 5/62/62 12/63/63
f 24/64/64 25/65/65 5/66/66
f 10/67/67 11/68/68 6/69/69
f 9/70/70 10/71/71 7/72/72
f 20/73/73 14/74/74 15/75/75
f 3/76/76 15/77/77 13/78/78
f 15/79/79 7/80/80 6/81/81
f 7/82/82 15/83/83 14/84/84
f 18/85/85 19/86/86 4/87/87
f 12/88/88 11/89/89 4/90/90
f 5/91/91 6/92/92 11/93/93
f 5/94/94 18/95/95 13/96/96
f 10/97/97 9/98/98 16/99/99
f 10/100/100 16/101/101 3/102/102
f 2/103/103 14/104/104 20/105/105
f 21/106/106 3/107/107 16/108/108
f 20/109/109 21/110/110 2/111/111
f 20/112/112 3/113/113 21/114/114
f 23/115/115 26/116/116 24/117/117
f 24/118/118 26/119/119 25/120/120
f 25/121/121 22/122/122 17/123/123
f 17/124/124 22/125/125 23/126/126
f 22/127/127 27/128/128 23/129/129
f 25/130/130 27/131/131 22/132/132
f 17/133/133 5/134/134 25/135/135
f 17/136/136 18/137/137 5/138/138
f 17/139/139 19/140/140 18/141/141
f 17/142/142 23/143/143 19/144/144
f 27/145/145 26/146/146 23/147/147
f 27/148/148 25/149/149 26/150/150
f 36/151/151 29/152/152 28/153/153
f 43/154/154 48/155/155 29/156/156
f 30/157/157 38/158/158 31/159/159
f 33/160/160 37/161/161 34/162/162
f 34/163/163 36/164/164 35/165/165
f 36/166/166 28/167/167 35/168/168
f 41/169/169 28/170/170 29/171/171
f 42/172/172 47/173/173 30/174/174
f 40/175/175 30/176/176 31/177/177
f 30/178/178 37/179/179 38/180/180
f 29/181/181 36/182/182 43/183/183
f 33/184/184 42/185/185 40/186/186
f 41/187/187 34/188/188 35/189/189
f 41/190/190 35/191/191 28/192/192
f 31/193/193 45/194/194 40/195/195
f 31/196/196 39/197/197 46/198/198
f 38/199/199 32/200/200 39/201/201
f 40/202/202 32/203/203 33/204/204
f 50/205/205 46/206/206 51/207/207
f 46/208/208 39/209/209 51/210/210
f 39/211/211 32/212/212 51/213/213
f 32/214/214 52/215/215 51/216/216
f 33/217/217 38/218/218 37/219/219
f 34/220/220 37/221/221 36/222/222
f 42/223/223 41/224/224 47/225/225
f 40/226/226 42/227/227 30/228/228
f 33/229/229 34/230/230 42/231/231
f 41/232/232 42/233/233 34/234/234
f 31/235/235 46/236/236 45/237/237
f 31/238/238 38/239/239 39/240/240
f 38/241/241 33/242/242 32/243/243
f 40/244/244 45/245/245 32/246/246
f 43/247/247 36/248/248 37/249/249
f 30/250/250 43/251/251 37/252/252
f 47/253/253 41/254/254 29/255/255
f 43/256/256 30/257/257 48/258/258
f 29/259/259 48/260/260 47/261/261
f 48/262/262 30/263/263 47/264/264
f 51/265/265 53/266/266 50/267/267
f 52/268/268 53/269/269 51/270/270
f 44/271/271 49/272/272 52/273/273
f 50/274/274 49/275/275 44/276/276
f 50/277/277 54/278/278 49/279/279
f 49/280/280 54/281/281 52/282/282
f 52/283/283 32/284/284 44/285/285
f 32/286/286 45/287/287 44/288/288
f 45/289/289 46/290/290 44/291/291
f 46/292/292 50/293/293 44/294/294
f 50/295/295 53/296/296 54/297/297
f 53/298/298 52/299/299 54/300/300
