# This file uses centimeters as units for non-parametric coordinates.

mtllib legUL.mtl
g default
v -0.490387 -0.278378 -0.038400
v -0.722554 -0.181453 -0.248792
v -0.702395 0.130315 -0.101699
v -0.920385 -0.153571 -0.028156
v 0.008377 0.130315 -0.101699
v 0.028536 -0.181453 -0.248792
v -0.203631 -0.278378 -0.038400
v 0.226367 -0.153571 -0.028156
vt 0.221140 0.021120
vt 0.227260 0.160330
vt 0.120060 0.152110
vt 0.227260 0.160330
vt 0.201150 0.289120
vt 0.120060 0.152110
vt 0.120060 0.152110
vt 0.227260 0.160330
vt 0.221140 0.021120
vt 0.120060 0.152110
vt 0.201150 0.289120
vt 0.227260 0.160330
vn 0.705882 0.264395 -0.657134
vn 0.705882 0.264396 -0.657134
vn 0.705882 0.264395 -0.657134
vn -0.727167 -0.004966 -0.686442
vn -0.729901 0.198247 -0.654173
vn -0.647177 0.569221 -0.507099
vn -0.649600 0.441440 -0.618991
vn -0.674655 -0.023076 -0.737772
vn -0.668270 0.100904 -0.737044
vn 0.647177 0.569221 -0.507099
vn 0.729901 0.198247 -0.654173
vn 0.727167 -0.004966 -0.686442
s off
g legU_matBody0 legU
usemtl lambert18SG
f 1/1/1 2/2/2 3/3/3
f 2/4/4 4/5/5 3/6/6
f 5/7/7 6/8/8 7/9/9
f 5/10/10 8/11/11 6/12/12
g default
v -0.651388 0.201886 0.119753
v -0.527775 0.080622 0.034394
v -0.490387 -0.278378 -0.038400
v -0.533991 -0.536286 -0.011265
v -0.679441 -0.629196 -0.023862
v -0.849987 -0.508682 -0.023693
v -0.920385 -0.153571 -0.028156
v -0.859677 0.080111 0.049298
v -0.692141 0.023829 0.218221
v -0.712721 -0.283569 0.238950
v -0.705105 -0.523017 0.180252
v -0.702395 0.130315 -0.101699
v -0.722554 -0.181453 -0.248792
v -0.702675 -0.548249 -0.158235
v -0.599521 -0.605466 0.107505
v -0.684673 -0.706095 0.062190
v -0.792078 -0.583980 0.077508
v -0.710768 -0.694490 0.371303
v -0.656054 -0.663133 0.279630
v -0.699128 -0.722604 0.252973
v -0.753769 -0.672542 0.279630
v -0.715173 -0.610186 0.307892
v -0.042630 0.201886 0.119753
v -0.166243 0.080622 0.034394
v -0.203631 -0.278378 -0.038400
v -0.160027 -0.536286 -0.011265
v -0.014577 -0.629196 -0.023862
v 0.155969 -0.508682 -0.023693
v 0.226367 -0.153571 -0.028156
v 0.165659 0.080111 0.049298
v -0.001877 0.023829 0.218221
v 0.018703 -0.283569 0.238950
v 0.011087 -0.523017 0.180252
v 0.008377 0.130315 -0.101699
v 0.028536 -0.181453 -0.248792
v 0.008657 -0.548249 -0.158235
v -0.094497 -0.605466 0.107505
v -0.009345 -0.706095 0.062190
v 0.098060 -0.583980 0.077508
v 0.016750 -0.694490 0.371303
v -0.037964 -0.663133 0.279630
v 0.005110 -0.722604 0.252973
v 0.059751 -0.672542 0.279630
v 0.021155 -0.610186 0.307892
vt 0.056310 0.523100
vt 0.107190 0.431260
vt 0.102200 0.502880
vt 0.196390 0.498610
vt 0.102200 0.502880
vt 0.190040 0.411400
vt 0.196390 0.498610
vt 0.298600 0.451640
vt 0.277300 0.510040
vt 0.087710 0.757630
vt 0.069900 0.762530
vt 0.102760 0.841460
vt 0.346730 0.529200
vt 0.309660 0.475470
vt 0.331940 0.534240
vt 0.196390 0.498610
vt 0.277300 0.510040
vt 0.297930 0.599990
vt 0.102200 0.502880
vt 0.196390 0.498610
vt 0.219300 0.616420
vt 0.056310 0.523100
vt 0.102200 0.502880
vt 0.100310 0.587830
vt 0.107190 0.431260
vt 0.056310 0.523100
vt 0.103960 0.511430
vt 0.107190 0.431260
vt 0.103960 0.511430
vt 0.190040 0.411400
vt 0.299380 0.244820
vt 0.227260 0.160330
vt 0.320700 0.149650
vt 0.321850 0.528190
vt 0.331940 0.534240
vt 0.298600 0.451640
vt 0.321850 0.528190
vt 0.297930 0.599990
vt 0.331940 0.534240
vt 0.320700 0.149650
vt 0.227260 0.160330
vt 0.293400 0.048500
vt 0.103960 0.511430
vt 0.100310 0.587830
vt 0.219300 0.616420
vt 0.103960 0.511430
vt 0.056310 0.523100
vt 0.100310 0.587830
vt 0.308270 0.564880
vt 0.331940 0.534240
vt 0.297930 0.599990
vt 0.219300 0.616420
vt 0.100310 0.587830
vt 0.102200 0.502880
vt 0.297930 0.599990
vt 0.219300 0.616420
vt 0.196390 0.498610
vt 0.221140 0.021120
vt 0.293400 0.048500
vt 0.227260 0.160330
vt 0.107190 0.431260
vt 0.190040 0.411400
vt 0.102200 0.502880
vt 0.190040 0.411400
vt 0.298600 0.451640
vt 0.196390 0.498610
vt 0.201150 0.289120
vt 0.227260 0.160330
vt 0.299380 0.244820
vt 0.308270 0.564880
vt 0.297930 0.599990
vt 0.277300 0.510040
vt 0.309660 0.475470
vt 0.277300 0.510040
vt 0.298600 0.451640
vt 0.069900 0.762530
vt 0.068830 0.708610
vt 0.087710 0.757630
vt 0.069900 0.762530
vt 0.053090 0.767150
vt 0.072780 0.864330
vt 0.044650 0.872470
vt 0.053090 0.767150
vt 0.081690 0.887510
vt 0.081690 0.887510
vt 0.069900 0.762530
vt 0.102760 0.841460
vt 0.068830 0.708610
vt 0.069900 0.762530
vt 0.087710 0.757630
vt 0.298600 0.451640
vt 0.331940 0.534240
vt 0.309660 0.475470
vt 0.346730 0.529200
vt 0.331940 0.534240
vt 0.308270 0.564880
vt 0.053090 0.767150
vt 0.068830 0.708610
vt 0.069900 0.762530
vt 0.053090 0.767150
vt 0.069900 0.762530
vt 0.068830 0.708610
vt 0.069900 0.762530
vt 0.072780 0.864330
vt 0.102760 0.841460
vt 0.053090 0.767150
vt 0.044650 0.872470
vt 0.072780 0.864330
vt 0.053090 0.767150
vt 0.069900 0.762530
vt 0.081690 0.887510
vt 0.069900 0.762530
vt 0.087710 0.757630
vt 0.102760 0.841460
vt 0.102200 0.502880
vt 0.107190 0.431260
vt 0.056310 0.523100
vt 0.190040 0.411400
vt 0.102200 0.502880
vt 0.196390 0.498610
vt 0.277300 0.510040
vt 0.298600 0.451640
vt 0.196390 0.498610
vt 0.102760 0.841460
vt 0.069900 0.762530
vt 0.087710 0.757630
vt 0.331940 0.534240
vt 0.309660 0.475470
vt 0.346730 0.529200
vt 0.297930 0.599990
vt 0.277300 0.510040
vt 0.196390 0.498610
vt 0.219300 0.616420
vt 0.196390 0.498610
vt 0.102200 0.502880
vt 0.100310 0.587830
vt 0.102200 0.502880
vt 0.056310 0.523100
vt 0.103960 0.511430
vt 0.056310 0.523100
vt 0.107190 0.431260
vt 0.190040 0.411400
vt 0.103960 0.511430
vt 0.107190 0.431260
vt 0.320700 0.149650
vt 0.227260 0.160330
vt 0.299380 0.244820
vt 0.298600 0.451640
vt 0.331940 0.534240
vt 0.321850 0.528190
vt 0.331940 0.534240
vt 0.297930 0.599990
vt 0.321850 0.528190
vt 0.293400 0.048500
vt 0.227260 0.160330
vt 0.320700 0.149650
vt 0.219300 0.616420
vt 0.100310 0.587830
vt 0.103960 0.511430
vt 0.100310 0.587830
vt 0.056310 0.523100
vt 0.103960 0.511430
vt 0.297930 0.599990
vt 0.331940 0.534240
vt 0.308270 0.564880
vt 0.102200 0.502880
vt 0.100310 0.587830
vt 0.219300 0.616420
vt 0.196390 0.498610
vt 0.219300 0.616420
vt 0.297930 0.599990
vt 0.227260 0.160330
vt 0.293400 0.048500
vt 0.221140 0.021120
vt 0.102200 0.502880
vt 0.190040 0.411400
vt 0.107190 0.431260
vt 0.196390 0.498610
vt 0.298600 0.451640
vt 0.190040 0.411400
vt 0.299380 0.244820
vt 0.227260 0.160330
vt 0.201150 0.289120
vt 0.277300 0.510040
vt 0.297930 0.599990
vt 0.308270 0.564880
vt 0.298600 0.451640
vt 0.277300 0.510040
vt 0.309660 0.475470
vt 0.087710 0.757630
vt 0.068830 0.708610
vt 0.069900 0.762530
vt 0.072780 0.864330
vt 0.053090 0.767150
vt 0.069900 0.762530
vt 0.081690 0.887510
vt 0.053090 0.767150
vt 0.044650 0.872470
vt 0.102760 0.841460
vt 0.069900 0.762530
vt 0.081690 0.887510
vt 0.087710 0.757630
vt 0.069900 0.762530
vt 0.068830 0.708610
vt 0.309660 0.475470
vt 0.331940 0.534240
vt 0.298600 0.451640
vt 0.308270 0.564880
vt 0.331940 0.534240
vt 0.346730 0.529200
vt 0.069900 0.762530
vt 0.068830 0.708610
vt 0.053090 0.767150
vt 0.068830 0.708610
vt 0.069900 0.762530
vt 0.053090 0.767150
vt 0.102760 0.841460
vt 0.072780 0.864330
vt 0.069900 0.762530
vt 0.072780 0.864330
vt 0.044650 0.872470
vt 0.053090 0.767150
vt 0.081690 0.887510
vt 0.069900 0.762530
vt 0.053090 0.767150
vt 0.102760 0.841460
vt 0.087710 0.757630
vt 0.069900 0.762530
vn -0.554151 0.780637 0.289001
vn -0.686057 0.539279 0.488369
vn -0.691192 0.189709 0.697326
vn -0.802477 -0.075369 0.591904
vn -0.691192 0.189709 0.697326
vn -0.770844 -0.035217 0.636049
vn -0.802477 -0.075369 0.591904
vn -0.817383 -0.052164 0.573728
vn -0.855634 0.245096 0.455871
vn 0.697610 0.510691 0.502528
vn 0.705925 0.524653 0.475825
vn 0.751985 0.350971 0.557976
vn -0.730770 -0.602486 -0.320915
vn -0.686347 -0.675225 -0.270183
vn -0.597866 -0.701775 -0.387387
vn 0.765739 -0.072107 0.639096
vn 0.751985 0.350971 0.557976
vn 0.759438 0.056154 0.648152
vn 0.747887 0.052744 0.661727
vn 0.765739 -0.072107 0.639096
vn 0.771081 -0.043644 0.635239
vn 0.691905 0.221631 0.687129
vn 0.747887 0.052744 0.661727
vn 0.729718 0.084348 0.678525
vn -0.689889 0.722888 -0.038547
vn -0.211750 0.975250 0.063635
vn -0.403573 0.730282 -0.551197
vn -0.614133 0.670103 -0.416897
vn -0.647177 0.569221 -0.507099
vn -0.729901 0.198247 -0.654173
vn -0.677109 -0.511893 -0.528668
vn -0.727167 -0.004966 -0.686442
vn -0.649892 -0.513111 -0.560677
vn -0.649892 -0.513111 -0.560677
vn -0.597866 -0.701775 -0.387387
vn -0.677109 -0.511893 -0.528668
vn 0.605091 -0.448208 -0.658008
vn 0.625584 -0.503924 -0.595571
vn 0.622571 -0.689894 -0.369394
vn 0.605091 -0.448208 -0.658008
vn 0.674655 -0.023076 -0.737772
vn 0.625584 -0.503924 -0.595571
vn 0.649600 0.441440 -0.618991
vn 0.610141 0.529206 -0.589634
vn 0.668270 0.100904 -0.737044
vn 0.436828 0.664913 -0.605865
vn 0.033239 0.948748 -0.314281
vn 0.610141 0.529206 -0.589634
vn 0.741391 -0.658266 -0.130480
vn 0.622571 -0.689894 -0.369394
vn 0.625584 -0.503924 -0.595571
vn 0.771081 -0.043644 0.635239
vn 0.729718 0.084348 0.678525
vn 0.747887 0.052744 0.661727
vn 0.759438 0.056154 0.648152
vn 0.771081 -0.043644 0.635239
vn 0.765739 -0.072107 0.639096
vn 0.668270 0.100904 -0.737044
vn 0.625584 -0.503924 -0.595571
vn 0.674655 -0.023076 -0.737772
vn -0.648716 0.238258 0.722773
vn -0.770844 -0.035217 0.636049
vn -0.691192 0.189709 0.697326
vn -0.770844 -0.035217 0.636049
vn -0.817383 -0.052164 0.573728
vn -0.802477 -0.075369 0.591904
vn -0.729901 0.198247 -0.654173
vn -0.727167 -0.004966 -0.686442
vn -0.677109 -0.511893 -0.528668
vn 0.718945 0.464293 0.517253
vn 0.759438 0.056154 0.648152
vn 0.751985 0.350971 0.557976
vn -0.807651 0.338438 0.482867
vn -0.855634 0.245096 0.455871
vn -0.817383 -0.052164 0.573728
vn -0.836244 0.416892 0.356226
vn -0.832049 0.305016 0.463314
vn -0.859339 0.373631 0.349195
vn 0.770329 -0.621618 0.142069
vn 0.769607 -0.631347 0.095428
vn 0.741391 -0.658266 -0.130480
vn -0.730770 -0.602486 -0.320915
vn -0.707288 -0.704835 -0.054320
vn -0.686347 -0.675225 -0.270183
vn -0.807651 0.338438 0.482867
vn -0.836244 0.416892 0.356226
vn -0.855634 0.245096 0.455871
vn 0.683531 0.461238 0.565725
vn 0.705925 0.524653 0.475825
vn 0.697610 0.510691 0.502528
vn -0.677109 -0.511893 -0.528668
vn -0.597866 -0.701775 -0.387387
vn -0.686347 -0.675225 -0.270183
vn 0.790391 -0.579907 -0.197460
vn 0.622571 -0.689894 -0.369394
vn 0.741391 -0.658266 -0.130481
vn -0.707288 -0.704835 -0.054320
vn -0.638999 -0.760142 0.117745
vn -0.681778 -0.731152 -0.024387
vn 0.769607 -0.631347 0.095428
vn 0.770329 -0.621618 0.142069
vn 0.738989 -0.635501 0.223683
vn 0.705925 0.524653 0.475825
vn 0.718945 0.464293 0.517253
vn 0.751985 0.350971 0.557976
vn 0.769607 -0.631347 0.095428
vn 0.790391 -0.579907 -0.197460
vn 0.741391 -0.658266 -0.130480
vn -0.707288 -0.704835 -0.054320
vn -0.681778 -0.731152 -0.024387
vn -0.686347 -0.675225 -0.270183
vn -0.836244 0.416892 0.356226
vn -0.859339 0.373631 0.349195
vn -0.855634 0.245096 0.455871
vn 0.691192 0.189709 0.697326
vn 0.686057 0.539279 0.488369
vn 0.554151 0.780637 0.289001
vn 0.770844 -0.035217 0.636049
vn 0.691192 0.189709 0.697326
vn 0.802477 -0.075369 0.591904
vn 0.855634 0.245096 0.455871
vn 0.817383 -0.052164 0.573728
vn 0.802477 -0.075369 0.591904
vn -0.751985 0.350971 0.557976
vn -0.705925 0.524653 0.475825
vn -0.697610 0.510691 0.502528
vn 0.597866 -0.701775 -0.387387
vn 0.686347 -0.675225 -0.270183
vn 0.730770 -0.602486 -0.320915
vn -0.759438 0.056154 0.648152
vn -0.751985 0.350971 0.557976
vn -0.765739 -0.072107 0.639096
vn -0.771081 -0.043644 0.635239
vn -0.765739 -0.072107 0.639096
vn -0.747887 0.052744 0.661727
vn -0.729718 0.084348 0.678525
vn -0.747887 0.052744 0.661727
vn -0.691905 0.221631 0.687129
vn 0.403573 0.730282 -0.551197
vn 0.211750 0.975250 0.063635
vn 0.689889 0.722888 -0.038547
vn 0.729901 0.198247 -0.654173
vn 0.647177 0.569221 -0.507099
vn 0.614133 0.670103 -0.416897
vn 0.649892 -0.513111 -0.560677
vn 0.727167 -0.004966 -0.686442
vn 0.677109 -0.511893 -0.528668
vn 0.677109 -0.511893 -0.528668
vn 0.597866 -0.701775 -0.387387
vn 0.649892 -0.513111 -0.560677
vn -0.622571 -0.689894 -0.369394
vn -0.625584 -0.503924 -0.595571
vn -0.605091 -0.448208 -0.658008
vn -0.625584 -0.503924 -0.595571
vn -0.674655 -0.023076 -0.737772
vn -0.605091 -0.448208 -0.658008
vn -0.668270 0.100904 -0.737044
vn -0.610141 0.529206 -0.589634
vn -0.649600 0.441440 -0.618991
vn -0.610141 0.529206 -0.589634
vn -0.033239 0.948748 -0.314281
vn -0.436828 0.664913 -0.605865
vn -0.625584 -0.503924 -0.595571
vn -0.622571 -0.689894 -0.369394
vn -0.741391 -0.658266 -0.130480
vn -0.747887 0.052744 0.661727
vn -0.729718 0.084348 0.678525
vn -0.771081 -0.043644 0.635239
vn -0.765739 -0.072107 0.639096
vn -0.771081 -0.043644 0.635239
vn -0.759438 0.056154 0.648152
vn -0.674655 -0.023076 -0.737772
vn -0.625584 -0.503924 -0.595571
vn -0.668270 0.100904 -0.737044
vn 0.691192 0.189709 0.697326
vn 0.770844 -0.035217 0.636049
vn 0.648716 0.238258 0.722773
vn 0.802477 -0.075369 0.591904
vn 0.817383 -0.052164 0.573728
vn 0.770844 -0.035217 0.636049
vn 0.677109 -0.511893 -0.528668
vn 0.727167 -0.004966 -0.686442
vn 0.729901 0.198247 -0.654173
vn -0.751985 0.350971 0.557976
vn -0.759438 0.056154 0.648152
vn -0.718945 0.464293 0.517253
vn 0.817383 -0.052164 0.573728
vn 0.855634 0.245096 0.455871
vn 0.807651 0.338438 0.482867
vn 0.859339 0.373631 0.349195
vn 0.832049 0.305016 0.463314
vn 0.836244 0.416892 0.356226
vn -0.741391 -0.658266 -0.130480
vn -0.769607 -0.631347 0.095428
vn -0.770329 -0.621618 0.142069
vn 0.686347 -0.675225 -0.270183
vn 0.707288 -0.704835 -0.054320
vn 0.730770 -0.602486 -0.320915
vn 0.855634 0.245096 0.455871
vn 0.836244 0.416892 0.356226
vn 0.807651 0.338438 0.482867
vn -0.697610 0.510691 0.502528
vn -0.705925 0.524653 0.475825
vn -0.683531 0.461238 0.565725
vn 0.686347 -0.675225 -0.270183
vn 0.597866 -0.701775 -0.387387
vn 0.677109 -0.511893 -0.528668
vn -0.741391 -0.658266 -0.130481
vn -0.622571 -0.689894 -0.369394
vn -0.790391 -0.579907 -0.197460
vn 0.681778 -0.731152 -0.024387
vn 0.638999 -0.760142 0.117745
vn 0.707288 -0.704835 -0.054320
vn -0.738989 -0.635501 0.223683
vn -0.770329 -0.621618 0.142069
vn -0.769607 -0.631347 0.095428
vn -0.751985 0.350971 0.557976
vn -0.718945 0.464293 0.517253
vn -0.705925 0.524653 0.475825
vn -0.741391 -0.658266 -0.130480
vn -0.790391 -0.579907 -0.197460
vn -0.769607 -0.631347 0.095428
vn 0.686347 -0.675225 -0.270183
vn 0.681778 -0.731152 -0.024387
vn 0.707288 -0.704835 -0.054320
vn 0.855634 0.245096 0.455871
vn 0.859339 0.373631 0.349195
vn 0.836244 0.416892 0.356226
s off
g legU legU_matMain
usemtl lambert19SG
f 9/13/13 16/14/14 17/15/15
f 18/16/16 17/17/17 15/18/18
f 18/19/19 14/20/20 19/21/21
f 30/22/22 27/23/23 19/24/24
f 24/25/25 25/26/26 13/27/27
f 18/28/28 19/29/29 12/30/30
f 17/31/31 18/32/32 11/33/33
f 9/34/34 17/35/35 10/36/36
f 16/37/37 9/38/38 20/39/39
f 16/40/40 20/41/41 15/42/42
f 14/43/43 21/44/44 22/45/45
f 22/46/46 13/47/47 14/48/48
f 22/49/49 12/50/50 13/51/51
f 22/52/52 21/53/53 12/54/54
f 20/55/55 10/56/56 11/57/57
f 20/58/58 9/59/59 10/60/60
f 23/61/61 13/62/62 12/63/63
f 11/64/64 10/65/65 17/66/66
f 12/67/67 11/68/68 18/69/69
f 11/70/70 12/71/71 21/72/72
f 16/73/73 15/74/74 17/75/75
f 15/76/76 14/77/77 18/78/78
f 15/79/79 21/80/80 14/81/81
f 23/82/82 12/83/83 19/84/84
f 25/85/85 19/86/86 14/87/87
f 29/88/88 26/89/89 30/90/90
f 27/91/91 28/92/92 23/93/93
f 24/94/94 28/95/95 25/96/96
f 25/97/97 29/98/98 19/99/99
f 26/100/100 27/101/101 30/102/102
f 14/103/103 13/104/104 25/105/105
f 24/106/106 13/107/107 23/108/108
f 28/109/109 26/110/110 29/111/111
f 28/112/112 27/113/113 26/114/114
f 27/115/115 23/116/116 19/117/117
f 28/118/118 24/119/119 23/120/120
f 28/121/121 29/122/122 25/123/123
f 29/124/124 30/125/125 19/126/126
f 39/127/127 38/128/128 31/129/129
f 37/130/130 39/131/131 40/132/132
f 41/133/133 36/134/134 40/135/135
f 41/136/136 49/137/137 52/138/138
f 35/139/139 47/140/140 46/141/141
f 34/142/142 41/143/143 40/144/144
f 33/145/145 40/146/146 39/147/147
f 32/148/148 39/149/149 31/150/150
f 42/151/151 31/152/152 38/153/153
f 37/154/154 42/155/155 38/156/156
f 44/157/157 43/158/158 36/159/159
f 36/160/160 35/161/161 44/162/162
f 35/163/163 34/164/164 44/165/165
f 34/166/166 43/167/167 44/168/168
f 33/169/169 32/170/170 42/171/171
f 32/172/172 31/173/173 42/174/174
f 34/175/175 35/176/176 45/177/177
f 39/178/178 32/179/179 33/180/180
f 40/181/181 33/182/182 34/183/183
f 43/184/184 34/185/185 33/186/186
f 39/187/187 37/188/188 38/189/189
f 40/190/190 36/191/191 37/192/192
f 36/193/193 43/194/194 37/195/195
f 41/196/196 34/197/197 45/198/198
f 36/199/199 41/200/200 47/201/201
f 52/202/202 48/203/203 51/204/204
f 45/205/205 50/206/206 49/207/207
f 47/208/208 50/209/209 46/210/210
f 41/211/211 51/212/212 47/213/213
f 52/214/214 49/215/215 48/216/216
f 47/217/217 35/218/218 36/219/219
f 45/220/220 35/221/221 46/222/222
f 51/223/223 48/224/224 50/225/225
f 48/226/226 49/227/227 50/228/228
f 41/229/229 45/230/230 49/231/231
f 45/232/232 46/233/233 50/234/234
f 47/235/235 51/236/236 50/237/237
f 41/238/238 52/239/239 51/240/240
