# This file uses centimeters as units for non-parametric coordinates.

mtllib tail05.mtl
g default
v -0.106285 0.085739 -0.006906
v -0.106285 -0.086182 0.034272
v 0.000000 0.010256 -0.614036
v 0.000000 -0.059331 0.150300
v 0.000000 0.098434 0.109120
v 0.106229 0.085739 -0.006906
v 0.106229 -0.086182 0.034272
v 0.000000 0.121309 0.018726
v 0.000000 -0.107995 0.042441
vt 0.288850 0.602520
vt 0.274320 0.511390
vt 0.236250 0.602520
vt 0.236250 0.602520
vt 0.274320 0.511390
vt 0.288850 0.602520
vt 0.291290 0.511390
vt 0.288850 0.602520
vt 0.236250 0.602520
vt 0.238700 0.511390
vt 0.236250 0.602520
vt 0.288850 0.602520
vt 0.291290 0.511390
vt 0.238700 0.511390
vt 0.288850 0.602520
vt 0.274320 0.511390
vt 0.282810 0.511390
vt 0.274320 0.511390
vt 0.288850 0.602520
vt 0.282810 0.511390
vt 0.274320 0.511390
vt 0.236250 0.602520
vt 0.256510 0.511390
vt 0.236250 0.602520
vt 0.274320 0.511390
vt 0.256510 0.511390
vt 0.236250 0.602520
vt 0.238700 0.511390
vt 0.243150 0.511390
vt 0.238700 0.511390
vt 0.236250 0.602520
vt 0.243150 0.511390
vt 0.288850 0.602520
vt 0.291290 0.511390
vt 0.289170 0.511390
vt 0.291290 0.511390
vt 0.288850 0.602520
vt 0.289170 0.511390
vn -0.960689 0.068308 0.269092
vn -0.985063 -0.040109 -0.167460
vn -0.960689 0.068308 0.269092
vn 0.960713 0.068287 0.269012
vn 0.985078 -0.040089 -0.167374
vn 0.960713 0.068287 0.269012
vn -0.622072 0.604234 0.497924
vn -0.857492 0.422819 0.293140
vn -0.960689 0.068308 0.269092
vn -0.741367 0.162864 0.651038
vn 0.960713 0.068287 0.269012
vn 0.857556 0.422742 0.293063
vn 0.622249 0.604157 0.497796
vn 0.741543 0.162817 0.650850
vn 0.324316 0.945403 0.032132
vn 0.000070 0.984946 -0.172863
vn 0.000081 0.999423 0.033970
vn 0.000070 0.984946 -0.172863
vn -0.324163 0.945455 0.032137
vn 0.000081 0.999423 0.033970
vn 0.000048 -0.984161 -0.177277
vn 0.208481 -0.970770 0.118915
vn 0.000054 -0.992581 0.121587
vn -0.208376 -0.970792 0.118918
vn 0.000048 -0.984161 -0.177277
vn 0.000054 -0.992581 0.121587
vn 0.208481 -0.970770 0.118915
vn 0.000055 -0.911518 0.411260
vn 0.000054 -0.992581 0.121587
vn 0.000055 -0.911518 0.411260
vn -0.208376 -0.970792 0.118918
vn 0.000054 -0.992581 0.121587
vn -0.541388 0.792472 0.280869
vn -0.311207 0.828424 0.465686
vn 0.000081 0.999423 0.033970
vn 0.311415 0.828394 0.465601
vn 0.541557 0.792387 0.280782
vn 0.000081 0.999423 0.033970
s off
g matMain tail5
usemtl lambert36SG
f 1/1/1 3/2/2 2/3/3
f 7/4/4 3/5/5 6/6/6
f 5/7/7 1/8/8 2/9/9 4/10/10
f 7/11/11 6/12/12 5/13/13 4/14/14
f 6/15/15 3/16/16 8/17/17
f 3/18/18 1/19/19 8/20/20
f 3/21/21 7/22/22 9/23/23
f 2/24/24 3/25/25 9/26/26
f 7/27/27 4/28/28 9/29/29
f 4/30/30 2/31/31 9/32/32
f 1/33/33 5/34/34 8/35/35
f 5/36/36 6/37/37 8/38/38
