# This file uses centimeters as units for non-parametric coordinates.

mtllib tail01.mtl
g default
v -0.164708 -0.018020 -0.078230
v -0.204103 -0.018050 -0.559710
v -0.140390 0.115457 -0.546154
v -0.140390 -0.125250 -0.508162
v 0.000037 -0.153738 -0.067599
v 0.000037 0.146776 -0.027560
v 0.000037 0.288829 -0.617150
v 0.000037 -0.192392 -0.475884
v 0.000037 0.015727 -0.557751
v 0.000037 -0.108477 -0.506211
v 0.000037 0.132231 -0.544204
v 0.164708 -0.018020 -0.078230
v 0.000000 -0.018017 0.144027
v 0.204103 -0.018050 -0.559710
v 0.140390 0.115457 -0.546154
v 0.140390 -0.125250 -0.508162
vt 0.316840 0.066420
vt 0.277890 0.156090
vt 0.084190 0.156090
vt 0.236250 0.602520
vt 0.268880 0.643860
vt 0.288850 0.602520
vt 0.316840 0.066420
vt 0.084190 0.156090
vt 0.135260 0.050890
vt 0.141000 0.618300
vt 0.088090 0.603620
vt 0.156630 0.511390
vt 0.288850 0.602520
vt 0.274320 0.511390
vt 0.236250 0.602520
vt 0.236250 0.602520
vt 0.141000 0.618300
vt 0.268880 0.643860
vt 0.288850 0.602520
vt 0.268880 0.643860
vt 0.141000 0.618300
vt 0.274320 0.511390
vt 0.238700 0.511390
vt 0.236250 0.602520
vt 0.274320 0.511390
vt 0.288850 0.602520
vt 0.291290 0.511390
vt 0.288850 0.602520
vt 0.156630 0.511390
vt 0.338330 0.511390
vt 0.288850 0.602520
vt 0.141000 0.618300
vt 0.156630 0.511390
vt 0.321500 0.156090
vt 0.277890 0.156090
vt 0.316840 0.066420
vt 0.288850 0.602520
vt 0.338330 0.511390
vt 0.291290 0.511390
vt 0.034390 0.065330
vt 0.135260 0.050890
vt 0.084190 0.156090
vt 0.084190 0.156090
vt 0.277890 0.156090
vt 0.316840 0.066420
vt 0.288850 0.602520
vt 0.268880 0.643860
vt 0.236250 0.602520
vt 0.135260 0.050890
vt 0.084190 0.156090
vt 0.316840 0.066420
vt 0.156630 0.511390
vt 0.088090 0.603620
vt 0.141000 0.618300
vt 0.236250 0.602520
vt 0.274320 0.511390
vt 0.288850 0.602520
vt 0.268880 0.643860
vt 0.141000 0.618300
vt 0.236250 0.602520
vt 0.141000 0.618300
vt 0.268880 0.643860
vt 0.288850 0.602520
vt 0.236250 0.602520
vt 0.238700 0.511390
vt 0.274320 0.511390
vt 0.291290 0.511390
vt 0.288850 0.602520
vt 0.274320 0.511390
vt 0.338330 0.511390
vt 0.156630 0.511390
vt 0.288850 0.602520
vt 0.156630 0.511390
vt 0.141000 0.618300
vt 0.288850 0.602520
vt 0.316840 0.066420
vt 0.277890 0.156090
vt 0.321500 0.156090
vt 0.291290 0.511390
vt 0.338330 0.511390
vt 0.288850 0.602520
vt 0.084190 0.156090
vt 0.135260 0.050890
vt 0.034390 0.065330
vn -0.671247 -0.733581 0.106235
vn 0.000105 -0.995548 0.094253
vn -0.346630 -0.913044 0.214938
vn 0.102716 -0.262447 -0.959464
vn 0.473002 -0.137362 -0.870288
vn 0.091298 -0.156882 -0.983388
vn -0.671247 -0.733581 0.106235
vn -0.566811 -0.791407 0.228911
vn -0.717701 -0.658527 0.226379
vn -0.791327 0.557085 0.251907
vn -0.682805 0.527013 0.505999
vn -0.724752 0.630551 0.277742
vn 0.091298 -0.156882 -0.983388
vn 0.000011 -0.144117 -0.989561
vn 0.102716 -0.262447 -0.959464
vn -0.671247 -0.733581 0.106235
vn -0.873693 -0.436828 0.214106
vn -0.996092 -0.034016 0.081503
vn -0.795073 0.592279 0.130635
vn -0.996092 -0.034016 0.081503
vn -0.915577 0.328419 0.232078
vn 0.000011 -0.144117 -0.989561
vn -0.000015 -0.361675 -0.932304
vn 0.102716 -0.262447 -0.959464
vn 0.000011 -0.144117 -0.989561
vn 0.091298 -0.156882 -0.983388
vn -0.000009 -0.159125 -0.987258
vn -0.795073 0.592279 0.130635
vn -0.724752 0.630551 0.277742
vn -0.734337 0.659902 0.158994
vn -0.795073 0.592279 0.130635
vn -0.791327 0.557085 0.251907
vn -0.724752 0.630551 0.277742
vn -0.000015 -0.361675 -0.932304
vn -0.000014 -0.339886 -0.940467
vn 0.102716 -0.262447 -0.959464
vn 0.091298 -0.156882 -0.983388
vn -0.000017 -0.422252 -0.906478
vn -0.000009 -0.159125 -0.987258
vn -0.588730 -0.680470 0.436299
vn -0.717701 -0.658527 0.226379
vn -0.566811 -0.791407 0.228911
vn 0.346826 -0.912966 0.214954
vn 0.000105 -0.995548 0.094253
vn 0.671355 -0.733486 0.106214
vn -0.091282 -0.156883 -0.983390
vn -0.473002 -0.137362 -0.870288
vn -0.102707 -0.262447 -0.959465
vn 0.717798 -0.658416 0.226395
vn 0.566983 -0.791279 0.228928
vn 0.671355 -0.733486 0.106214
vn 0.724911 0.630368 0.277740
vn 0.682915 0.526791 0.506081
vn 0.791416 0.556955 0.251917
vn -0.102707 -0.262447 -0.959465
vn 0.000011 -0.144117 -0.989561
vn -0.091282 -0.156883 -0.983390
vn 0.996092 -0.034016 0.081503
vn 0.873746 -0.436720 0.214112
vn 0.671355 -0.733486 0.106214
vn 0.915619 0.328299 0.232079
vn 0.996092 -0.034016 0.081503
vn 0.795171 0.592154 0.130600
vn -0.102707 -0.262447 -0.959465
vn -0.000015 -0.361675 -0.932304
vn 0.000011 -0.144117 -0.989561
vn -0.000009 -0.159125 -0.987258
vn -0.091282 -0.156883 -0.983390
vn 0.000011 -0.144117 -0.989561
vn 0.734515 0.659715 0.158948
vn 0.724911 0.630368 0.277740
vn 0.795171 0.592154 0.130600
vn 0.724911 0.630368 0.277740
vn 0.791416 0.556955 0.251917
vn 0.795171 0.592154 0.130600
vn -0.102708 -0.262447 -0.959465
vn -0.000014 -0.339886 -0.940467
vn -0.000015 -0.361675 -0.932304
vn -0.000009 -0.159125 -0.987258
vn -0.000017 -0.422252 -0.906478
vn -0.091282 -0.156883 -0.983390
vn 0.566983 -0.791279 0.228928
vn 0.717798 -0.658416 0.226395
vn 0.588859 -0.680298 0.436395
s off
g tail1_matMain tail1
usemtl lambert32SG
f 4/1/1 8/2/2 5/3/3
f 4/4/4 2/5/5 3/6/6
f 4/7/7 5/8/8 1/9/9
f 1/10/10 13/11/11 6/12/12
f 3/13/13 9/14/14 4/15/15
f 4/16/16 1/17/17 2/18/18
f 3/19/19 2/20/20 1/21/21
f 9/22/22 10/23/23 4/24/24
f 9/25/25 3/26/26 11/27/27
f 3/28/28 6/29/29 7/30/30
f 3/31/31 1/32/32 6/33/33
f 10/34/34 8/35/35 4/36/36
f 3/37/37 7/38/38 11/39/39
f 13/40/40 1/41/41 5/42/42
f 5/43/43 8/44/44 16/45/45
f 15/46/46 14/47/47 16/48/48
f 12/49/49 5/50/50 16/51/51
f 6/52/52 13/53/53 12/54/54
f 16/55/55 9/56/56 15/57/57
f 14/58/58 12/59/59 16/60/60
f 12/61/61 14/62/62 15/63/63
f 16/64/64 10/65/65 9/66/66
f 11/67/67 15/68/68 9/69/69
f 7/70/70 6/71/71 15/72/72
f 6/73/73 12/74/74 15/75/75
f 16/76/76 8/77/77 10/78/78
f 11/79/79 7/80/80 15/81/81
f 5/82/82 12/83/83 13/84/84
