# This file uses centimeters as units for non-parametric coordinates.

mtllib wing01.mtl
g default
v -0.607323 0.071912 0.000493
v -0.604055 0.184499 -0.539186
v -0.633820 -0.479206 -1.038210
v -0.660296 -0.581967 -1.129654
v -0.631604 -0.482538 -1.024660
v -0.602177 0.062076 -0.580772
v -0.605183 -0.033509 -0.116092
v -0.624471 -0.260676 -0.076485
v -0.616388 -0.378274 -0.004883
v -0.621739 -0.228538 0.044944
v -0.608392 0.000000 0.069737
v -0.621491 -0.251862 -0.483894
v -0.649301 0.130884 -0.578070
v -0.658327 -0.458530 -1.041187
v -0.650666 0.027284 -0.000877
v -0.648547 -0.254999 -0.000738
v -0.562019 0.108510 -0.633504
v -0.607055 -0.471674 -1.073751
v -0.563009 0.005491 -0.056662
v -0.597276 -0.268143 -0.033302
v -0.608476 0.066625 -0.578179
v -0.612254 -0.030401 -0.109358
v -0.603562 0.087302 -0.595065
v -0.001069 0.071912 0.000493
v -0.004337 0.184499 -0.539186
v 0.025428 -0.479206 -1.038210
v 0.051904 -0.581967 -1.129654
v 0.023212 -0.482538 -1.024660
v -0.006215 0.062076 -0.580772
v -0.003209 -0.033509 -0.116092
v 0.016079 -0.260676 -0.076485
v 0.007996 -0.378274 -0.004883
v 0.013347 -0.228538 0.044944
v 0.000000 0.000000 0.069737
v 0.013099 -0.251862 -0.483894
v 0.040909 0.130884 -0.578070
v 0.049935 -0.458530 -1.041187
v 0.042274 0.027284 -0.000877
v 0.040155 -0.254999 -0.000738
v -0.046373 0.108510 -0.633504
v -0.001337 -0.471674 -1.073751
v -0.045383 0.005491 -0.056662
v -0.011116 -0.268143 -0.033302
v 0.000084 0.066625 -0.578179
v 0.003862 -0.030401 -0.109358
v -0.004830 0.087302 -0.595065
vt 0.297510 0.513220
vt 0.303870 0.494350
vt 0.345140 0.510740
vt 0.297510 0.513220
vt 0.345140 0.510740
vt 0.297870 0.528400
vt 0.351170 0.512220
vt 0.004440 0.498760
vt 0.330380 0.584670
vt 0.239680 0.511820
vt 0.076740 0.513090
vt 0.238850 0.447140
vt 0.239680 0.511820
vt 0.238850 0.447140
vt 0.371240 0.512180
vt 0.239680 0.511820
vt 0.371240 0.512180
vt 0.211710 0.564890
vt 0.085950 0.592200
vt 0.076740 0.513090
vt 0.211710 0.564890
vt 0.021830 0.434650
vt 0.311280 0.431510
vt 0.004440 0.498760
vt 0.094800 0.511730
vt 0.297510 0.513220
vt 0.112190 0.475950
vt 0.303870 0.494350
vt 0.297510 0.513220
vt 0.345140 0.510740
vt 0.345140 0.510740
vt 0.297510 0.513220
vt 0.297870 0.528400
vt 0.297870 0.528400
vt 0.297510 0.513220
vt 0.110490 0.539910
vt 0.123750 0.410410
vt 0.076740 0.513090
vt 0.238850 0.447140
vt 0.238850 0.447140
vt 0.239680 0.511820
vt 0.371240 0.512180
vt 0.371240 0.512180
vt 0.239680 0.511820
vt 0.211710 0.564890
vt 0.239680 0.511820
vt 0.076740 0.513090
vt 0.211710 0.564890
vt 0.021830 0.434650
vt 0.004440 0.498760
vt 0.311280 0.431510
vt 0.297510 0.513220
vt 0.297870 0.528400
vt 0.094800 0.511730
vt 0.076740 0.513090
vt 0.119350 0.420020
vt 0.238850 0.447140
vt 0.076740 0.513090
vt 0.239680 0.511820
vt 0.211710 0.564890
vt 0.311280 0.431510
vt 0.351170 0.512220
vt 0.004440 0.498760
vt 0.297510 0.513220
vt 0.094800 0.511730
vt 0.110490 0.539910
vt 0.094800 0.511730
vt 0.297870 0.528400
vt 0.108980 0.537200
vt 0.076740 0.513090
vt 0.239680 0.511820
vt 0.238850 0.447140
vt 0.076740 0.513090
vt 0.086580 0.597570
vt 0.211710 0.564890
vt 0.004440 0.498760
vt 0.351170 0.512220
vt 0.311280 0.431510
vt 0.351170 0.512220
vt 0.332380 0.577720
vt 0.004440 0.498760
vt 0.004440 0.498760
vt 0.063240 0.588230
vt 0.330380 0.584670
vt 0.332380 0.577720
vt 0.057740 0.579860
vt 0.004440 0.498760
vt 0.094800 0.511730
vt 0.110300 0.479840
vt 0.297510 0.513220
vt 0.297510 0.513220
vt 0.303870 0.494350
vt 0.112190 0.475950
vt 0.110300 0.479840
vt 0.303870 0.494350
vt 0.297510 0.513220
vt 0.021830 0.434650
vt 0.004440 0.498760
vt 0.085950 0.592200
vt 0.004440 0.498760
vt 0.021830 0.434650
vt 0.086580 0.597570
vt 0.311280 0.431510
vt 0.094800 0.511730
vt 0.112190 0.475950
vt 0.351170 0.512220
vt 0.311280 0.431510
vt 0.110300 0.479840
vt 0.345140 0.510740
vt 0.303870 0.494350
vt 0.297510 0.513220
vt 0.297870 0.528400
vt 0.345140 0.510740
vt 0.297510 0.513220
vt 0.330380 0.584670
vt 0.004440 0.498760
vt 0.351170 0.512220
vt 0.238850 0.447140
vt 0.076740 0.513090
vt 0.239680 0.511820
vt 0.371240 0.512180
vt 0.238850 0.447140
vt 0.239680 0.511820
vt 0.211710 0.564890
vt 0.371240 0.512180
vt 0.239680 0.511820
vt 0.211710 0.564890
vt 0.076740 0.513090
vt 0.085950 0.592200
vt 0.004440 0.498760
vt 0.311280 0.431510
vt 0.021830 0.434650
vt 0.112190 0.475950
vt 0.297510 0.513220
vt 0.094800 0.511730
vt 0.345140 0.510740
vt 0.297510 0.513220
vt 0.303870 0.494350
vt 0.297870 0.528400
vt 0.297510 0.513220
vt 0.345140 0.510740
vt 0.110490 0.539910
vt 0.297510 0.513220
vt 0.297870 0.528400
vt 0.238850 0.447140
vt 0.076740 0.513090
vt 0.123750 0.410410
vt 0.371240 0.512180
vt 0.239680 0.511820
vt 0.238850 0.447140
vt 0.211710 0.564890
vt 0.239680 0.511820
vt 0.371240 0.512180
vt 0.211710 0.564890
vt 0.076740 0.513090
vt 0.239680 0.511820
vt 0.311280 0.431510
vt 0.004440 0.498760
vt 0.021830 0.434650
vt 0.094800 0.511730
vt 0.297870 0.528400
vt 0.297510 0.513220
vt 0.238850 0.447140
vt 0.119350 0.420020
vt 0.076740 0.513090
vt 0.211710 0.564890
vt 0.239680 0.511820
vt 0.076740 0.513090
vt 0.004440 0.498760
vt 0.351170 0.512220
vt 0.311280 0.431510
vt 0.110490 0.539910
vt 0.094800 0.511730
vt 0.297510 0.513220
vt 0.108980 0.537200
vt 0.297870 0.528400
vt 0.094800 0.511730
vt 0.238850 0.447140
vt 0.239680 0.511820
vt 0.076740 0.513090
vt 0.211710 0.564890
vt 0.086580 0.597570
vt 0.076740 0.513090
vt 0.311280 0.431510
vt 0.351170 0.512220
vt 0.004440 0.498760
vt 0.004440 0.498760
vt 0.332380 0.577720
vt 0.351170 0.512220
vt 0.330380 0.584670
vt 0.063240 0.588230
vt 0.004440 0.498760
vt 0.004440 0.498760
vt 0.057740 0.579860
vt 0.332380 0.577720
vt 0.297510 0.513220
vt 0.110300 0.479840
vt 0.094800 0.511730
vt 0.112190 0.475950
vt 0.303870 0.494350
vt 0.297510 0.513220
vt 0.297510 0.513220
vt 0.303870 0.494350
vt 0.110300 0.479840
vt 0.085950 0.592200
vt 0.004440 0.498760
vt 0.021830 0.434650
vt 0.086580 0.597570
vt 0.021830 0.434650
vt 0.004440 0.498760
vt 0.112190 0.475950
vt 0.094800 0.511730
vt 0.311280 0.431510
vt 0.110300 0.479840
vt 0.311280 0.431510
vt 0.351170 0.512220
vn 0.436858 0.536680 -0.721893
vn 0.510048 0.504221 -0.696859
vn 0.505277 0.497364 -0.705212
vn -0.717264 -0.411055 0.562643
vn -0.714433 -0.400038 0.574069
vn -0.830568 -0.324437 0.452657
vn 0.815331 -0.565858 0.122637
vn 0.931045 -0.345529 -0.117326
vn 0.919131 -0.385149 0.082814
vn -0.981026 -0.130842 0.143071
vn -0.996977 0.045151 0.063236
vn -0.971074 -0.047381 -0.234032
vn -0.981026 -0.130842 0.143071
vn -0.971074 -0.047381 -0.234032
vn -0.951910 -0.254083 0.171199
vn -0.981026 -0.130842 0.143071
vn -0.951910 -0.254083 0.171199
vn -0.838446 -0.078691 0.539274
vn -0.766289 0.292819 0.571890
vn -0.984391 0.115086 0.133155
vn -0.838446 -0.078691 0.539274
vn -0.672998 0.642365 0.366662
vn -0.802579 0.582902 -0.126855
vn -0.934014 0.298518 0.196225
vn -0.724207 0.398233 -0.562969
vn -0.735154 0.479651 -0.479044
vn -0.565621 0.469738 -0.677805
vn -0.742527 0.491552 -0.455006
vn -0.735154 0.479651 -0.479044
vn -0.715265 0.558321 -0.420326
vn 0.799825 -0.529436 0.282803
vn 0.850055 -0.405567 0.336040
vn 0.920411 -0.320480 0.223913
vn 0.920411 -0.320480 0.223913
vn 0.850055 -0.405567 0.336040
vn 0.919131 -0.385149 0.082814
vn 0.954324 -0.248691 -0.165588
vn 0.996341 -0.084173 -0.014791
vn 0.895473 -0.173482 -0.409917
vn 0.895473 -0.173482 -0.409917
vn 0.978986 -0.166404 -0.117884
vn 0.972527 -0.199659 -0.119698
vn 0.972527 -0.199659 -0.119698
vn 0.978986 -0.166404 -0.117884
vn 0.938481 -0.085549 0.334567
vn 0.978986 -0.166404 -0.117884
vn 0.996341 -0.084173 -0.014791
vn 0.938481 -0.085549 0.334567
vn 0.888491 0.401400 0.222398
vn 0.993193 0.114294 0.022480
vn 0.888999 0.448802 0.090875
vn -0.717264 -0.411055 0.562643
vn -0.830568 -0.324437 0.452657
vn -0.792153 -0.491090 0.362387
vn -0.996977 0.045151 0.063236
vn -0.990107 -0.084289 -0.112175
vn -0.971074 -0.047381 -0.234032
vn -0.984391 0.115086 0.133155
vn -0.981026 -0.130842 0.143071
vn -0.838446 -0.078691 0.539274
vn -0.802579 0.582902 -0.126855
vn -0.796253 0.595773 0.105052
vn -0.934014 0.298518 0.196225
vn 0.850055 -0.405567 0.336040
vn 0.958658 -0.258040 0.119959
vn 0.919131 -0.385149 0.082814
vn -0.792153 -0.491090 0.362387
vn -0.830568 -0.324437 0.452657
vn -0.955464 -0.283185 0.083038
vn 0.988077 -0.139426 -0.065296
vn 0.978986 -0.166404 -0.117884
vn 0.895473 -0.173482 -0.409917
vn 0.996341 -0.084173 -0.014791
vn 0.933856 0.110645 0.340104
vn 0.938481 -0.085549 0.334567
vn 0.993193 0.114294 0.022480
vn 0.970571 0.037646 0.237856
vn 0.888999 0.448802 0.090875
vn -0.792153 -0.491090 0.362387
vn -0.955464 -0.283185 0.083038
vn -0.983308 -0.178527 0.035107
vn 0.931045 -0.345529 -0.117326
vn 0.954324 -0.248691 -0.165588
vn 0.919131 -0.385149 0.082814
vn -0.955464 -0.283185 0.083038
vn -0.990107 -0.084289 -0.112175
vn -0.983308 -0.178527 0.035107
vn 0.217445 0.544189 -0.810294
vn 0.320590 0.539395 -0.778637
vn 0.436858 0.536680 -0.721893
vn -0.735154 0.479651 -0.479044
vn -0.742527 0.491552 -0.455006
vn -0.565621 0.469738 -0.677805
vn 0.320590 0.539395 -0.778637
vn 0.510048 0.504221 -0.696859
vn 0.436858 0.536680 -0.721893
vn -0.672998 0.642365 0.366662
vn -0.827341 0.396571 0.397792
vn -0.766289 0.292819 0.571890
vn 0.979677 0.157187 0.124598
vn 0.888491 0.401400 0.222398
vn 0.933856 0.110645 0.340104
vn -0.649668 0.660000 -0.377269
vn -0.724207 0.398233 -0.562969
vn -0.565621 0.469738 -0.677805
vn 0.217445 0.544189 -0.810294
vn -0.324366 0.470224 -0.820778
vn -0.253526 0.564453 -0.785568
vn -0.505277 0.497364 -0.705212
vn -0.510048 0.504221 -0.696859
vn -0.436858 0.536680 -0.721893
vn 0.830568 -0.324437 0.452657
vn 0.714433 -0.400038 0.574069
vn 0.717264 -0.411055 0.562643
vn -0.919131 -0.385149 0.082814
vn -0.931045 -0.345529 -0.117326
vn -0.815331 -0.565858 0.122637
vn 0.971074 -0.047381 -0.234032
vn 0.996977 0.045151 0.063236
vn 0.981026 -0.130842 0.143071
vn 0.951910 -0.254083 0.171199
vn 0.971074 -0.047381 -0.234032
vn 0.981026 -0.130842 0.143071
vn 0.838446 -0.078691 0.539274
vn 0.951910 -0.254083 0.171199
vn 0.981026 -0.130842 0.143071
vn 0.838446 -0.078691 0.539274
vn 0.984391 0.115086 0.133155
vn 0.766289 0.292819 0.571890
vn 0.934014 0.298518 0.196225
vn 0.802579 0.582902 -0.126855
vn 0.672998 0.642365 0.366662
vn 0.565621 0.469738 -0.677805
vn 0.735154 0.479651 -0.479044
vn 0.724207 0.398233 -0.562969
vn 0.715265 0.558321 -0.420326
vn 0.735154 0.479651 -0.479044
vn 0.742527 0.491552 -0.455006
vn -0.920411 -0.320480 0.223913
vn -0.850055 -0.405567 0.336040
vn -0.799825 -0.529436 0.282803
vn -0.919131 -0.385149 0.082814
vn -0.850055 -0.405567 0.336040
vn -0.920411 -0.320480 0.223913
vn -0.895473 -0.173482 -0.409917
vn -0.996341 -0.084173 -0.014791
vn -0.954324 -0.248691 -0.165588
vn -0.972527 -0.199659 -0.119698
vn -0.978986 -0.166404 -0.117884
vn -0.895473 -0.173482 -0.409917
vn -0.938481 -0.085549 0.334567
vn -0.978986 -0.166404 -0.117884
vn -0.972527 -0.199659 -0.119698
vn -0.938481 -0.085549 0.334567
vn -0.996341 -0.084173 -0.014791
vn -0.978986 -0.166404 -0.117884
vn -0.888999 0.448802 0.090875
vn -0.993193 0.114294 0.022480
vn -0.888491 0.401400 0.222398
vn 0.792153 -0.491090 0.362387
vn 0.830568 -0.324437 0.452657
vn 0.717264 -0.411055 0.562643
vn 0.971074 -0.047381 -0.234032
vn 0.990107 -0.084289 -0.112175
vn 0.996977 0.045151 0.063236
vn 0.838446 -0.078691 0.539274
vn 0.981026 -0.130842 0.143071
vn 0.984391 0.115086 0.133155
vn 0.934014 0.298518 0.196225
vn 0.796253 0.595773 0.105052
vn 0.802579 0.582902 -0.126855
vn -0.919131 -0.385149 0.082814
vn -0.958658 -0.258040 0.119959
vn -0.850055 -0.405567 0.336040
vn 0.955464 -0.283185 0.083038
vn 0.830568 -0.324437 0.452657
vn 0.792153 -0.491090 0.362387
vn -0.895473 -0.173482 -0.409917
vn -0.978986 -0.166404 -0.117884
vn -0.988077 -0.139426 -0.065296
vn -0.938481 -0.085549 0.334567
vn -0.933856 0.110645 0.340104
vn -0.996341 -0.084173 -0.014791
vn -0.888999 0.448802 0.090875
vn -0.970571 0.037646 0.237856
vn -0.993193 0.114294 0.022480
vn 0.983308 -0.178527 0.035107
vn 0.955464 -0.283185 0.083038
vn 0.792153 -0.491090 0.362387
vn -0.919131 -0.385149 0.082814
vn -0.954324 -0.248691 -0.165588
vn -0.931045 -0.345529 -0.117326
vn 0.983308 -0.178527 0.035107
vn 0.990107 -0.084289 -0.112175
vn 0.955464 -0.283185 0.083038
vn -0.436858 0.536680 -0.721893
vn -0.320590 0.539395 -0.778637
vn -0.217445 0.544189 -0.810294
vn 0.565621 0.469738 -0.677805
vn 0.742527 0.491552 -0.455006
vn 0.735154 0.479651 -0.479044
vn -0.436858 0.536680 -0.721893
vn -0.510048 0.504221 -0.696859
vn -0.320590 0.539395 -0.778637
vn 0.766289 0.292819 0.571890
vn 0.827341 0.396571 0.397792
vn 0.672998 0.642365 0.366662
vn -0.933856 0.110645 0.340104
vn -0.888491 0.401400 0.222398
vn -0.979677 0.157187 0.124598
vn 0.565621 0.469738 -0.677805
vn 0.724207 0.398233 -0.562969
vn 0.649668 0.660000 -0.377269
vn 0.253526 0.564453 -0.785568
vn 0.324366 0.470224 -0.820778
vn -0.217445 0.544189 -0.810294
s off
g wing1_matMain wing1
usemtl lambert24SG
f 14/1/1 3/2/2 4/3/3
f 14/4/4 4/5/5 5/6/6
f 17/7/7 19/8/8 6/9/9
f 16/10/10 15/11/11 8/12/12
f 16/13/13 8/14/14 9/15/15
f 16/16/16 9/17/17 10/18/18
f 11/19/19 15/20/20 10/21/21
f 1/22/22 2/23/23 15/24/24
f 17/25/25 18/26/26 23/27/27
f 3/28/28 18/29/29 4/30/30
f 4/31/31 18/32/32 5/33/33
f 5/34/34 18/35/35 6/36/36
f 7/37/37 19/38/38 8/39/39
f 8/40/40 20/41/41 9/42/42
f 9/43/43 20/44/44 10/45/45
f 20/46/46 19/47/47 10/48/48
f 1/49/49 19/50/50 2/51/51
f 14/52/52 5/53/53 13/54/54
f 15/55/55 22/56/56 8/57/57
f 15/58/58 16/59/59 10/60/60
f 2/61/61 13/62/62 15/63/63
f 18/64/64 17/65/65 6/66/66
f 13/67/67 5/68/68 21/69/69
f 19/70/70 20/71/71 8/72/72
f 19/73/73 11/74/74 10/75/75
f 19/76/76 17/77/77 2/78/78
f 13/79/79 21/80/80 15/81/81
f 19/82/82 7/83/83 6/84/84
f 21/85/85 22/86/86 15/87/87
f 13/88/88 23/89/89 14/90/90
f 18/91/91 3/92/92 23/93/93
f 23/94/94 3/95/95 14/96/96
f 1/97/97 15/98/98 11/99/99
f 19/100/100 1/101/101 11/102/102
f 2/103/103 17/104/104 23/105/105
f 13/106/106 2/107/107 23/108/108
f 27/109/109 26/110/110 37/111/111
f 28/112/112 27/113/113 37/114/114
f 29/115/115 42/116/116 40/117/117
f 31/118/118 38/119/119 39/120/120
f 32/121/121 31/122/122 39/123/123
f 33/124/124 32/125/125 39/126/126
f 33/127/127 38/128/128 34/129/129
f 38/130/130 25/131/131 24/132/132
f 46/133/133 41/134/134 40/135/135
f 27/136/136 41/137/137 26/138/138
f 28/139/139 41/140/140 27/141/141
f 29/142/142 41/143/143 28/144/144
f 31/145/145 42/146/146 30/147/147
f 32/148/148 43/149/149 31/150/150
f 33/151/151 43/152/152 32/153/153
f 33/154/154 42/155/155 43/156/156
f 25/157/157 42/158/158 24/159/159
f 36/160/160 28/161/161 37/162/162
f 31/163/163 45/164/164 38/165/165
f 33/166/166 39/167/167 38/168/168
f 38/169/169 36/170/170 25/171/171
f 29/172/172 40/173/173 41/174/174
f 44/175/175 28/176/176 36/177/177
f 31/178/178 43/179/179 42/180/180
f 33/181/181 34/182/182 42/183/183
f 25/184/184 40/185/185 42/186/186
f 38/187/187 44/188/188 36/189/189
f 29/190/190 30/191/191 42/192/192
f 38/193/193 45/194/194 44/195/195
f 37/196/196 46/197/197 36/198/198
f 46/199/199 26/200/200 41/201/201
f 37/202/202 26/203/203 46/204/204
f 34/205/205 38/206/206 24/207/207
f 34/208/208 24/209/209 42/210/210
f 46/211/211 40/212/212 25/213/213
f 46/214/214 25/215/215 36/216/216
g default
v -0.621491 -0.251862 -0.483894
v -0.605183 -0.033509 -0.116092
v -0.624471 -0.260676 -0.076485
v -0.608476 0.066625 -0.578179
v -0.631604 -0.482538 -1.024660
v -0.612254 -0.030401 -0.109358
v -0.602177 0.062076 -0.580772
v 0.016079 -0.260676 -0.076485
v -0.003209 -0.033509 -0.116092
v 0.013099 -0.251862 -0.483894
v 0.023212 -0.482538 -1.024660
v 0.000084 0.066625 -0.578179
v 0.003862 -0.030401 -0.109358
v -0.006215 0.062076 -0.580772
vt 0.495990 0.125540
vt 0.429240 0.121490
vt 0.429410 0.187990
vt 0.502370 0.024940
vt 0.590830 0.133800
vt 0.495990 0.125540
vt 0.495990 0.125540
vt 0.427780 0.122060
vt 0.502370 0.024940
vt 0.427780 0.122060
vt 0.495990 0.125540
vt 0.429410 0.187990
vt 0.495990 0.125540
vt 0.503180 0.025660
vt 0.429240 0.121490
vt 0.495990 0.125540
vt 0.590830 0.133800
vt 0.503180 0.025660
vt 0.429410 0.187990
vt 0.429240 0.121490
vt 0.495990 0.125540
vt 0.495990 0.125540
vt 0.590830 0.133800
vt 0.502370 0.024940
vt 0.502370 0.024940
vt 0.427780 0.122060
vt 0.495990 0.125540
vt 0.429410 0.187990
vt 0.495990 0.125540
vt 0.427780 0.122060
vt 0.429240 0.121490
vt 0.503180 0.025660
vt 0.495990 0.125540
vt 0.503180 0.025660
vt 0.590830 0.133800
vt 0.495990 0.125540
vn 0.996480 -0.083653 0.005479
vn 0.996480 -0.083653 0.005479
vn 0.996480 -0.083653 0.005479
vn -0.955464 -0.283185 0.083038
vn -0.830568 -0.324437 0.452657
vn -0.998997 0.044741 -0.001542
vn -0.998997 0.044741 -0.001542
vn -0.990107 -0.084289 -0.112175
vn -0.955464 -0.283185 0.083038
vn -0.990107 -0.084289 -0.112175
vn -0.998997 0.044741 -0.001542
vn -0.971074 -0.047381 -0.234032
vn 0.997627 -0.068819 0.001847
vn 0.919131 -0.385149 0.082814
vn 0.954324 -0.248691 -0.165588
vn 0.997627 -0.068819 0.001847
vn 0.920411 -0.320480 0.223913
vn 0.919131 -0.385149 0.082814
vn -0.895473 -0.173482 -0.409917
vn -0.954324 -0.248691 -0.165588
vn -0.997627 -0.068819 0.001847
vn 0.998997 0.044741 -0.001542
vn 0.830568 -0.324437 0.452657
vn 0.955464 -0.283185 0.083038
vn 0.955464 -0.283185 0.083038
vn 0.990107 -0.084289 -0.112175
vn 0.998997 0.044741 -0.001542
vn 0.971074 -0.047381 -0.234032
vn 0.998997 0.044741 -0.001542
vn 0.990107 -0.084289 -0.112175
vn -0.954324 -0.248691 -0.165588
vn -0.919131 -0.385149 0.082814
vn -0.997627 -0.068819 0.001847
vn -0.919131 -0.385149 0.082814
vn -0.920411 -0.320480 0.223913
vn -0.997627 -0.068819 0.001847
s off
g wing1 wing1_matWing
usemtl lambert25SG
f 47/217/217 48/218/218 49/219/219
f 50/220/220 51/221/221 47/222/222
f 47/223/223 52/224/224 50/225/225
f 52/226/226 47/227/227 49/228/228
f 47/229/229 53/230/230 48/231/231
f 47/232/232 51/233/233 53/234/234
f 54/235/235 55/236/236 56/237/237
f 56/238/238 57/239/239 58/240/240
f 58/241/241 59/242/242 56/243/243
f 54/244/244 56/245/245 59/246/246
f 55/247/247 60/248/248 56/249/249
f 60/250/250 57/251/251 56/252/252
